<svg xmlns="http://www.w3.org/2000/svg" xmlns:xlink="http://www.w3.org/1999/xlink" height="437.512" viewBox="0 0 329.76459 328.13431" width="439.686" id="svg2"><defs id="defs4" stroke-linejoin="round" stroke-miterlimit="100000"><style id="style6">*{stroke-linecap:butt;stroke-linejoin:round;stroke-miterlimit:100000}</style></defs><g id="figure_1" stroke-linejoin="round" stroke-miterlimit="100000"><g id="axes_1"><g id="patch_2"><path clip-path="url(#pe737fb45bd)" d="M295.2 364.8a148.807 148.807 0 0 0 105.217-43.583A148.807 148.807 0 0 0 444 216a148.807 148.807 0 0 0-43.583-105.217A148.807 148.807 0 0 0 295.2 67.2a148.807 148.807 0 0 0-105.217 43.583A148.807 148.807 0 0 0 146.4 216a148.807 148.807 0 0 0 43.583 105.217A148.807 148.807 0 0 0 295.2 364.8z" id="path14" fill="none" stroke="#000" stroke-linejoin="miter" transform="translate(-130.318 -51.933)"/></g><g id="patch_3"><path clip-path="url(#pe737fb45bd)" d="M444 231.582a15.583 15.583 0 1 0 0-31.166 15.583 15.583 0 0 0 0 31.166z" id="path17" opacity=".5" fill="#00f" stroke="#00f" stroke-linejoin="miter" transform="translate(-130.318 -51.933)"/></g><g id="patch_4"><path clip-path="url(#pe737fb45bd)" d="M440.748 200.645a15.583 15.583 0 1 0 0-31.166 15.583 15.583 0 0 0 0 31.166z" id="path20" opacity=".5" fill="#00f" stroke="#00f" stroke-linejoin="miter" transform="translate(-130.318 -51.933)"/></g><g id="patch_5"><path clip-path="url(#pe737fb45bd)" d="M431.136 171.06a15.583 15.583 0 1 0-.001-31.166 15.583 15.583 0 0 0 0 31.166z" id="path23" opacity=".5" fill="#00f" stroke="#00f" stroke-linejoin="miter" transform="translate(-130.318 -51.933)"/></g><g id="patch_6"><path clip-path="url(#pe737fb45bd)" d="M415.582 144.12a15.583 15.583 0 1 0 0-31.166 15.583 15.583 0 0 0 0 31.166z" id="path26" opacity=".5" fill="#00f" stroke="#00f" stroke-linejoin="miter" transform="translate(-130.318 -51.933)"/></g><g id="patch_7"><path clip-path="url(#pe737fb45bd)" d="M394.767 121.002a15.583 15.583 0 1 0-.001-31.166 15.583 15.583 0 0 0 0 31.166z" id="path29" opacity=".5" fill="#00f" stroke="#00f" stroke-linejoin="miter" transform="translate(-130.318 -51.933)"/></g><g id="patch_8"><path clip-path="url(#pe737fb45bd)" d="M369.6 102.718a15.583 15.583 0 1 0 0-31.166 15.583 15.583 0 0 0 0 31.166z" id="path32" opacity=".5" fill="#00f" stroke="#00f" stroke-linejoin="miter" transform="translate(-130.318 -51.933)"/></g><g id="patch_9"><path clip-path="url(#pe737fb45bd)" d="M341.182 90.065a15.583 15.583 0 1 0 0-31.166 15.583 15.583 0 0 0 0 31.166z" id="path35" opacity=".5" fill="#00f" stroke="#00f" stroke-linejoin="miter" transform="translate(-130.318 -51.933)"/></g><g id="patch_10"><path clip-path="url(#pe737fb45bd)" d="M310.754 83.597a15.583 15.583 0 1 0 0-31.166 15.583 15.583 0 0 0 0 31.166z" id="path38" opacity=".5" fill="#00f" stroke="#00f" stroke-linejoin="miter" transform="translate(-130.318 -51.933)"/></g><g id="patch_11"><path clip-path="url(#pe737fb45bd)" d="M279.646 83.597a15.583 15.583 0 1 0 0-31.166 15.583 15.583 0 0 0 0 31.166z" id="path41" opacity=".5" fill="#00f" stroke="#00f" stroke-linejoin="miter" transform="translate(-130.318 -51.933)"/></g><g id="patch_12"><path clip-path="url(#pe737fb45bd)" d="M249.218 90.065a15.583 15.583 0 1 0 0-31.166 15.583 15.583 0 0 0 0 31.166z" id="path44" opacity=".5" fill="#00f" stroke="#00f" stroke-linejoin="miter" transform="translate(-130.318 -51.933)"/></g><g id="patch_13"><path clip-path="url(#pe737fb45bd)" d="M220.8 102.718a15.583 15.583 0 1 0 0-31.166 15.583 15.583 0 0 0 0 31.166z" id="path47" opacity=".5" fill="#00f" stroke="#00f" stroke-linejoin="miter" transform="translate(-130.318 -51.933)"/></g><g id="patch_14"><path clip-path="url(#pe737fb45bd)" d="M195.633 121.002a15.583 15.583 0 1 0 0-31.166 15.583 15.583 0 0 0 0 31.166z" id="path50" opacity=".5" fill="#00f" stroke="#00f" stroke-linejoin="miter" transform="translate(-130.318 -51.933)"/></g><g id="patch_15"><path clip-path="url(#pe737fb45bd)" d="M174.818 144.12a15.583 15.583 0 1 0 0-31.166 15.583 15.583 0 0 0 0 31.166z" id="path53" opacity=".5" fill="#00f" stroke="#00f" stroke-linejoin="miter" transform="translate(-130.318 -51.933)"/></g><g id="patch_16"><path clip-path="url(#pe737fb45bd)" d="M159.264 171.06a15.583 15.583 0 1 0 0-31.166 15.583 15.583 0 0 0 0 31.166z" id="path56" opacity=".5" fill="#00f" stroke="#00f" stroke-linejoin="miter" transform="translate(-130.318 -51.933)"/></g><g id="patch_17"><path clip-path="url(#pe737fb45bd)" d="M149.652 200.645a15.583 15.583 0 1 0-.001-31.166 15.583 15.583 0 0 0 0 31.166z" id="path59" opacity=".5" fill="#00f" stroke="#00f" stroke-linejoin="miter" transform="translate(-130.318 -51.933)"/></g><g id="patch_18"><path clip-path="url(#pe737fb45bd)" d="M146.4 231.582a15.583 15.583 0 1 0 0-31.166 15.583 15.583 0 0 0 0 31.166z" id="path62" opacity=".5" fill="#00f" stroke="#00f" stroke-linejoin="miter" transform="translate(-130.318 -51.933)"/></g><g id="patch_19"><path clip-path="url(#pe737fb45bd)" d="M149.652 262.52a15.583 15.583 0 1 0-.001-31.167 15.583 15.583 0 0 0 0 31.167z" id="path65" opacity=".5" fill="#00f" stroke="#00f" stroke-linejoin="miter" transform="translate(-130.318 -51.933)"/></g><g id="patch_20"><path clip-path="url(#pe737fb45bd)" d="M159.264 292.105a15.583 15.583 0 1 0 0-31.166 15.583 15.583 0 0 0 0 31.166z" id="path68" opacity=".5" fill="#00f" stroke="#00f" stroke-linejoin="miter" transform="translate(-130.318 -51.933)"/></g><g id="patch_21"><path clip-path="url(#pe737fb45bd)" d="M174.818 319.045a15.583 15.583 0 1 0 0-31.166 15.583 15.583 0 0 0 0 31.166z" id="path71" opacity=".5" fill="#00f" stroke="#00f" stroke-linejoin="miter" transform="translate(-130.318 -51.933)"/></g><g id="patch_22"><path clip-path="url(#pe737fb45bd)" d="M195.633 342.162a15.583 15.583 0 1 0 0-31.166 15.583 15.583 0 0 0 0 31.166z" id="path74" opacity=".5" fill="#00f" stroke="#00f" stroke-linejoin="miter" transform="translate(-130.318 -51.933)"/></g><g id="patch_23"><path clip-path="url(#pe737fb45bd)" d="M220.8 360.447a15.583 15.583 0 1 0 0-31.166 15.583 15.583 0 0 0 0 31.166z" id="path77" opacity=".5" fill="#00f" stroke="#00f" stroke-linejoin="miter" transform="translate(-130.318 -51.933)"/></g><g id="patch_24"><path clip-path="url(#pe737fb45bd)" d="M249.218 373.1a15.583 15.583 0 1 0 0-31.167 15.583 15.583 0 0 0 0 31.167z" id="path80" opacity=".5" fill="#00f" stroke="#00f" stroke-linejoin="miter" transform="translate(-130.318 -51.933)"/></g><g id="patch_25"><path clip-path="url(#pe737fb45bd)" d="M279.646 379.567a15.583 15.583 0 1 0 0-31.166 15.583 15.583 0 0 0 0 31.166z" id="path83" opacity=".5" fill="#00f" stroke="#00f" stroke-linejoin="miter" transform="translate(-130.318 -51.933)"/></g><g id="patch_26"><path clip-path="url(#pe737fb45bd)" d="M310.754 379.567a15.583 15.583 0 1 0 0-31.166 15.583 15.583 0 0 0 0 31.166z" id="path86" opacity=".5" fill="#00f" stroke="#00f" stroke-linejoin="miter" transform="translate(-130.318 -51.933)"/></g><g id="patch_27"><path clip-path="url(#pe737fb45bd)" d="M341.182 373.1a15.583 15.583 0 1 0 0-31.167 15.583 15.583 0 0 0 0 31.167z" id="path89" opacity=".5" fill="#00f" stroke="#00f" stroke-linejoin="miter" transform="translate(-130.318 -51.933)"/></g><g id="patch_28"><path clip-path="url(#pe737fb45bd)" d="M369.6 360.447a15.583 15.583 0 1 0 0-31.166 15.583 15.583 0 0 0 0 31.166z" id="path92" opacity=".5" fill="#00f" stroke="#00f" stroke-linejoin="miter" transform="translate(-130.318 -51.933)"/></g><g id="patch_29"><path clip-path="url(#pe737fb45bd)" d="M394.767 342.162a15.583 15.583 0 1 0-.001-31.166 15.583 15.583 0 0 0 0 31.166z" id="path95" opacity=".5" fill="#00f" stroke="#00f" stroke-linejoin="miter" transform="translate(-130.318 -51.933)"/></g><g id="patch_30"><path clip-path="url(#pe737fb45bd)" d="M415.582 319.045a15.583 15.583 0 1 0 0-31.166 15.583 15.583 0 0 0 0 31.166z" id="path98" opacity=".5" fill="#00f" stroke="#00f" stroke-linejoin="miter" transform="translate(-130.318 -51.933)"/></g><g id="patch_31"><path clip-path="url(#pe737fb45bd)" d="M431.136 292.105a15.583 15.583 0 1 0-.001-31.166 15.583 15.583 0 0 0 0 31.166z" id="path101" opacity=".5" fill="#00f" stroke="#00f" stroke-linejoin="miter" transform="translate(-130.318 -51.933)"/></g><g id="patch_32"><path clip-path="url(#pe737fb45bd)" d="M440.748 262.52a15.583 15.583 0 1 0 0-31.166 15.583 15.583 0 0 0 0 31.166z" id="path104" opacity=".5" fill="#00f" stroke="#00f" stroke-linejoin="miter" transform="translate(-130.318 -51.933)"/></g><g id="line2d_1" transform="translate(-130.318 -51.933)"><defs id="defs107"><path d="M0 1.5a1.5 1.5 0 1 0 0-3 1.5 1.5 0 0 0 0 3z" id="m500307cac5" stroke="#00f" stroke-width=".5"/></defs><g clip-path="url(#pe737fb45bd)" id="g110"><use x="444" xlink:href="#m500307cac5" y="216" id="use112" width="100%" height="100%" fill="#00f" stroke="#00f" stroke-width=".5"/></g></g><g id="line2d_2"><g clip-path="url(#pe737fb45bd)" id="g115" transform="translate(-130.318 -51.933)"><use x="440.748" xlink:href="#m500307cac5" y="185.063" id="use117" width="100%" height="100%" fill="#00f" stroke="#00f" stroke-width=".5"/></g></g><g id="line2d_3"><g clip-path="url(#pe737fb45bd)" id="g120" transform="translate(-130.318 -51.933)"><use x="431.136" xlink:href="#m500307cac5" y="155.478" id="use122" width="100%" height="100%" fill="#00f" stroke="#00f" stroke-width=".5"/></g></g><g id="line2d_4"><g clip-path="url(#pe737fb45bd)" id="g125" transform="translate(-130.318 -51.933)"><use x="415.582" xlink:href="#m500307cac5" y="128.538" id="use127" width="100%" height="100%" fill="#00f" stroke="#00f" stroke-width=".5"/></g></g><g id="line2d_5"><g clip-path="url(#pe737fb45bd)" id="g130" transform="translate(-130.318 -51.933)"><use x="394.767" xlink:href="#m500307cac5" y="105.42" id="use132" width="100%" height="100%" fill="#00f" stroke="#00f" stroke-width=".5"/></g></g><g id="line2d_6"><g clip-path="url(#pe737fb45bd)" id="g135" transform="translate(-130.318 -51.933)"><use x="369.6" xlink:href="#m500307cac5" y="87.135" id="use137" width="100%" height="100%" fill="#00f" stroke="#00f" stroke-width=".5"/></g></g><g id="line2d_7"><g clip-path="url(#pe737fb45bd)" id="g140" transform="translate(-130.318 -51.933)"><use x="341.182" xlink:href="#m500307cac5" y="74.483" id="use142" width="100%" height="100%" fill="#00f" stroke="#00f" stroke-width=".5"/></g></g><g id="line2d_8"><g clip-path="url(#pe737fb45bd)" id="g145" transform="translate(-130.318 -51.933)"><use x="310.754" xlink:href="#m500307cac5" y="68.015" id="use147" width="100%" height="100%" fill="#00f" stroke="#00f" stroke-width=".5"/></g></g><g id="line2d_9"><g clip-path="url(#pe737fb45bd)" id="g150" transform="translate(-130.318 -51.933)"><use x="279.646" xlink:href="#m500307cac5" y="68.015" id="use152" width="100%" height="100%" fill="#00f" stroke="#00f" stroke-width=".5"/></g></g><g id="line2d_10"><g clip-path="url(#pe737fb45bd)" id="g155" transform="translate(-130.318 -51.933)"><use x="249.218" xlink:href="#m500307cac5" y="74.483" id="use157" width="100%" height="100%" fill="#00f" stroke="#00f" stroke-width=".5"/></g></g><g id="line2d_11"><g clip-path="url(#pe737fb45bd)" id="g160" transform="translate(-130.318 -51.933)"><use x="220.8" xlink:href="#m500307cac5" y="87.135" id="use162" width="100%" height="100%" fill="#00f" stroke="#00f" stroke-width=".5"/></g></g><g id="line2d_12"><g clip-path="url(#pe737fb45bd)" id="g165" transform="translate(-130.318 -51.933)"><use x="195.633" xlink:href="#m500307cac5" y="105.42" id="use167" width="100%" height="100%" fill="#00f" stroke="#00f" stroke-width=".5"/></g></g><g id="line2d_13"><g clip-path="url(#pe737fb45bd)" id="g170" transform="translate(-130.318 -51.933)"><use x="174.818" xlink:href="#m500307cac5" y="128.538" id="use172" width="100%" height="100%" fill="#00f" stroke="#00f" stroke-width=".5"/></g></g><g id="line2d_14"><g clip-path="url(#pe737fb45bd)" id="g175" transform="translate(-130.318 -51.933)"><use x="159.264" xlink:href="#m500307cac5" y="155.478" id="use177" width="100%" height="100%" fill="#00f" stroke="#00f" stroke-width=".5"/></g></g><g id="line2d_15"><g clip-path="url(#pe737fb45bd)" id="g180" transform="translate(-130.318 -51.933)"><use x="149.652" xlink:href="#m500307cac5" y="185.063" id="use182" width="100%" height="100%" fill="#00f" stroke="#00f" stroke-width=".5"/></g></g><g id="line2d_16"><g clip-path="url(#pe737fb45bd)" id="g185" transform="translate(-130.318 -51.933)"><use x="146.4" xlink:href="#m500307cac5" y="216" id="use187" width="100%" height="100%" fill="#00f" stroke="#00f" stroke-width=".5"/></g></g><g id="line2d_17"><g clip-path="url(#pe737fb45bd)" id="g190" transform="translate(-130.318 -51.933)"><use x="149.652" xlink:href="#m500307cac5" y="246.937" id="use192" width="100%" height="100%" fill="#00f" stroke="#00f" stroke-width=".5"/></g></g><g id="line2d_18"><g clip-path="url(#pe737fb45bd)" id="g195" transform="translate(-130.318 -51.933)"><use x="159.264" xlink:href="#m500307cac5" y="276.522" id="use197" width="100%" height="100%" fill="#00f" stroke="#00f" stroke-width=".5"/></g></g><g id="line2d_19"><g clip-path="url(#pe737fb45bd)" id="g200" transform="translate(-130.318 -51.933)"><use x="174.818" xlink:href="#m500307cac5" y="303.462" id="use202" width="100%" height="100%" fill="#00f" stroke="#00f" stroke-width=".5"/></g></g><g id="line2d_20"><g clip-path="url(#pe737fb45bd)" id="g205" transform="translate(-130.318 -51.933)"><use x="195.633" xlink:href="#m500307cac5" y="326.58" id="use207" width="100%" height="100%" fill="#00f" stroke="#00f" stroke-width=".5"/></g></g><g id="line2d_21"><g clip-path="url(#pe737fb45bd)" id="g210" transform="translate(-130.318 -51.933)"><use x="220.8" xlink:href="#m500307cac5" y="344.865" id="use212" width="100%" height="100%" fill="#00f" stroke="#00f" stroke-width=".5"/></g></g><g id="line2d_22"><g clip-path="url(#pe737fb45bd)" id="g215" transform="translate(-130.318 -51.933)"><use x="249.218" xlink:href="#m500307cac5" y="357.517" id="use217" width="100%" height="100%" fill="#00f" stroke="#00f" stroke-width=".5"/></g></g><g id="line2d_23"><g clip-path="url(#pe737fb45bd)" id="g220" transform="translate(-130.318 -51.933)"><use x="279.646" xlink:href="#m500307cac5" y="363.985" id="use222" width="100%" height="100%" fill="#00f" stroke="#00f" stroke-width=".5"/></g></g><g id="line2d_24"><g clip-path="url(#pe737fb45bd)" id="g225" transform="translate(-130.318 -51.933)"><use x="310.754" xlink:href="#m500307cac5" y="363.985" id="use227" width="100%" height="100%" fill="#00f" stroke="#00f" stroke-width=".5"/></g></g><g id="line2d_25"><g clip-path="url(#pe737fb45bd)" id="g230" transform="translate(-130.318 -51.933)"><use x="341.182" xlink:href="#m500307cac5" y="357.517" id="use232" width="100%" height="100%" fill="#00f" stroke="#00f" stroke-width=".5"/></g></g><g id="line2d_26"><g clip-path="url(#pe737fb45bd)" id="g235" transform="translate(-130.318 -51.933)"><use x="369.6" xlink:href="#m500307cac5" y="344.865" id="use237" width="100%" height="100%" fill="#00f" stroke="#00f" stroke-width=".5"/></g></g><g id="line2d_27"><g clip-path="url(#pe737fb45bd)" id="g240" transform="translate(-130.318 -51.933)"><use x="394.767" xlink:href="#m500307cac5" y="326.58" id="use242" width="100%" height="100%" fill="#00f" stroke="#00f" stroke-width=".5"/></g></g><g id="line2d_28"><g clip-path="url(#pe737fb45bd)" id="g245" transform="translate(-130.318 -51.933)"><use x="415.582" xlink:href="#m500307cac5" y="303.462" id="use247" width="100%" height="100%" fill="#00f" stroke="#00f" stroke-width=".5"/></g></g><g id="line2d_29"><g clip-path="url(#pe737fb45bd)" id="g250" transform="translate(-130.318 -51.933)"><use x="431.136" xlink:href="#m500307cac5" y="276.522" id="use252" width="100%" height="100%" fill="#00f" stroke="#00f" stroke-width=".5"/></g></g><g id="line2d_30"><g clip-path="url(#pe737fb45bd)" id="g255" transform="translate(-130.318 -51.933)"><use x="440.748" xlink:href="#m500307cac5" y="246.937" id="use257" width="100%" height="100%" fill="#00f" stroke="#00f" stroke-width=".5"/></g></g></g></g><defs id="defs259"><clipPath id="pe737fb45bd" stroke-linejoin="round" stroke-miterlimit="100000"><path id="rect262" d="M72 43.2h446.4v345.6H72z"/></clipPath></defs></svg>