<svg xmlns="http://www.w3.org/2000/svg" xmlns:xlink="http://www.w3.org/1999/xlink" id="svg538" width="347.319" viewBox="0 0 260.489 260.489" version="1.1" height="347.319"><defs id="defs267"><style id="style265" type="text/css">*{stroke-linecap:butt;stroke-linejoin:round}</style></defs><g transform="translate(-48.316 -2.812)" id="figure_1"><g id="axes_1"><g id="patch_2"><path id="path269" d="M178.56 252.096c31.57 0 61.85-12.543 84.174-34.866a119.046 119.046 0 0034.866-84.174c0-31.57-12.543-61.85-34.866-84.174a119.046 119.046 0 00-84.174-34.866c-31.57 0-61.85 12.543-84.174 34.866a119.046 119.046 0 00-34.866 84.174c0 31.57 12.543 61.85 34.866 84.174a119.046 119.046 0 0084.174 34.866z" clip-path="url(#p9957957fab)" fill="none" stroke="#000" stroke-linejoin="miter"/></g><g id="patch_3"><path id="path272" d="M218.523 155.238a22.183 22.183 0 100-44.366 22.183 22.183 0 000 44.366z" clip-path="url(#p9957957fab)" opacity=".5" fill="#1f77b4"/></g><g id="patch_4"><path id="path275" d="M138.597 155.238a22.183 22.183 0 100-44.366 22.183 22.183 0 000 44.366z" clip-path="url(#p9957957fab)" opacity=".5" fill="#1f77b4"/></g><g id="patch_5"><path id="path278" d="M178.56 115.275a22.183 22.183 0 100-44.366 22.183 22.183 0 000 44.366z" clip-path="url(#p9957957fab)" opacity=".5" fill="#1f77b4"/></g><g id="patch_6"><path id="path281" d="M178.56 195.2a22.183 22.183 0 100-44.365 22.183 22.183 0 000 44.366z" clip-path="url(#p9957957fab)" opacity=".5" fill="#1f77b4"/></g><g id="patch_7"><path id="path284" d="M262.734 155.94a22.886 22.886 0 100-45.77 22.886 22.886 0 000 45.77z" clip-path="url(#p9957957fab)" opacity=".5" fill="#1f77b4"/></g><g id="patch_8"><path id="path287" d="M94.386 155.94a22.886 22.886 0 100-45.77 22.886 22.886 0 000 45.77z" clip-path="url(#p9957957fab)" opacity=".5" fill="#1f77b4"/></g><g id="patch_9"><path id="path290" d="M178.56 71.767a22.886 22.886 0 100-45.772 22.886 22.886 0 000 45.772z" clip-path="url(#p9957957fab)" opacity=".5" fill="#1f77b4"/></g><g id="patch_10"><path id="path293" d="M178.56 240.115a22.886 22.886 0 100-45.772 22.886 22.886 0 000 45.772z" clip-path="url(#p9957957fab)" opacity=".5" fill="#1f77b4"/></g><g id="patch_11"><path id="path296" d="M290.692 151.169a18.114 18.114 0 10-.001-36.228 18.114 18.114 0 000 36.228z" clip-path="url(#p9957957fab)" opacity=".5" fill="#1f77b4"/></g><g id="patch_12"><path id="path299" d="M66.428 151.169a18.114 18.114 0 100-36.228 18.114 18.114 0 000 36.228z" clip-path="url(#p9957957fab)" opacity=".5" fill="#1f77b4"/></g><g id="patch_13"><path id="path302" d="M178.56 39.037a18.114 18.114 0 100-36.227 18.114 18.114 0 000 36.227z" clip-path="url(#p9957957fab)" opacity=".5" fill="#1f77b4"/></g><g id="patch_14"><path id="path305" d="M178.56 263.3a18.114 18.114 0 100-36.227 18.114 18.114 0 000 36.227z" clip-path="url(#p9957957fab)" opacity=".5" fill="#1f77b4"/></g><g id="patch_15"><path id="path308" d="M251.476 113.925a22.923 22.923 0 100-45.846 22.923 22.923 0 000 45.846z" clip-path="url(#p9957957fab)" opacity=".5" fill="#1f77b4"/></g><g id="patch_16"><path id="path311" d="M251.476 198.03a22.923 22.923 0 100-45.845 22.923 22.923 0 000 45.846z" clip-path="url(#p9957957fab)" opacity=".5" fill="#1f77b4"/></g><g id="patch_17"><path id="path314" d="M105.644 113.925a22.923 22.923 0 10-.001-45.846 22.923 22.923 0 000 45.846z" clip-path="url(#p9957957fab)" opacity=".5" fill="#1f77b4"/></g><g id="patch_18"><path id="path317" d="M105.644 198.03a22.923 22.923 0 10-.001-45.845 22.923 22.923 0 000 45.846z" clip-path="url(#p9957957fab)" opacity=".5" fill="#1f77b4"/></g><g id="patch_19"><path id="path320" d="M220.613 83.061a22.923 22.923 0 100-45.845 22.923 22.923 0 000 45.845z" clip-path="url(#p9957957fab)" opacity=".5" fill="#1f77b4"/></g><g id="patch_20"><path id="path323" d="M220.613 228.894a22.923 22.923 0 100-45.845 22.923 22.923 0 000 45.845z" clip-path="url(#p9957957fab)" opacity=".5" fill="#1f77b4"/></g><g id="patch_21"><path id="path326" d="M136.507 83.061a22.923 22.923 0 100-45.845 22.923 22.923 0 000 45.845z" clip-path="url(#p9957957fab)" opacity=".5" fill="#1f77b4"/></g><g id="patch_22"><path id="path329" d="M136.507 228.894a22.923 22.923 0 10-.001-45.845 22.923 22.923 0 000 45.845z" clip-path="url(#p9957957fab)" opacity=".5" fill="#1f77b4"/></g><g id="patch_23"><path id="path332" d="M275.667 95.097a18.111 18.111 0 10-.001-36.223 18.111 18.111 0 000 36.223z" clip-path="url(#p9957957fab)" opacity=".5" fill="#1f77b4"/></g><g id="patch_24"><path id="path335" d="M275.667 207.236a18.111 18.111 0 10-.001-36.223 18.111 18.111 0 000 36.223z" clip-path="url(#p9957957fab)" opacity=".5" fill="#1f77b4"/></g><g id="patch_25"><path id="path338" d="M81.453 95.097a18.111 18.111 0 100-36.223 18.111 18.111 0 000 36.223z" clip-path="url(#p9957957fab)" opacity=".5" fill="#1f77b4"/></g><g id="patch_26"><path id="path341" d="M81.453 207.236a18.111 18.111 0 100-36.223 18.111 18.111 0 000 36.223z" clip-path="url(#p9957957fab)" opacity=".5" fill="#1f77b4"/></g><g id="patch_27"><path id="path344" d="M234.63 54.06a18.111 18.111 0 10-.001-36.223 18.111 18.111 0 000 36.223z" clip-path="url(#p9957957fab)" opacity=".5" fill="#1f77b4"/></g><g id="patch_28"><path id="path347" d="M234.63 248.273a18.111 18.111 0 10-.001-36.223 18.111 18.111 0 000 36.223z" clip-path="url(#p9957957fab)" opacity=".5" fill="#1f77b4"/></g><g id="patch_29"><path id="path350" d="M122.49 54.06a18.111 18.111 0 100-36.223 18.111 18.111 0 000 36.223z" clip-path="url(#p9957957fab)" opacity=".5" fill="#1f77b4"/></g><g id="patch_30"><path id="path353" d="M122.49 248.273a18.111 18.111 0 100-36.223 18.111 18.111 0 000 36.223z" clip-path="url(#p9957957fab)" opacity=".5" fill="#1f77b4"/></g><g id="patch_31"><path id="path356" d="M206.818 126.98a22.183 22.183 0 100-44.366 22.183 22.183 0 000 44.366z" clip-path="url(#p9957957fab)" opacity=".5" fill="#1f77b4"/></g><g id="patch_32"><path id="path359" d="M206.818 183.496a22.183 22.183 0 100-44.366 22.183 22.183 0 000 44.366z" clip-path="url(#p9957957fab)" opacity=".5" fill="#1f77b4"/></g><g id="patch_33"><path id="path362" d="M150.302 126.98a22.183 22.183 0 10-.001-44.366 22.183 22.183 0 000 44.366z" clip-path="url(#p9957957fab)" opacity=".5" fill="#1f77b4"/></g><g id="patch_34"><path id="path365" d="M150.302 183.496a22.183 22.183 0 10-.001-44.366 22.183 22.183 0 000 44.366z" clip-path="url(#p9957957fab)" opacity=".5" fill="#1f77b4"/></g><g id="line2d_1"><defs id="defs369"><path id="mee0f2fd33b" d="M0 1.5a1.5 1.5 0 100-3 1.5 1.5 0 000 3z" stroke="#1f77b4"/></defs><g id="g373" clip-path="url(#p9957957fab)"><use height="100%" width="100%" id="use371" y="133.056" xlink:href="#mee0f2fd33b" x="218.523" fill="#1f77b4" stroke="#1f77b4"/></g></g><g id="line2d_2"><g id="g378" clip-path="url(#p9957957fab)"><use height="100%" width="100%" id="use376" y="133.056" xlink:href="#mee0f2fd33b" x="138.597" fill="#1f77b4" stroke="#1f77b4"/></g></g><g id="line2d_3"><g id="g383" clip-path="url(#p9957957fab)"><use height="100%" width="100%" id="use381" y="93.093" xlink:href="#mee0f2fd33b" x="178.56" fill="#1f77b4" stroke="#1f77b4"/></g></g><g id="line2d_4"><g id="g388" clip-path="url(#p9957957fab)"><use height="100%" width="100%" id="use386" y="173.019" xlink:href="#mee0f2fd33b" x="178.56" fill="#1f77b4" stroke="#1f77b4"/></g></g><g id="line2d_5"><g id="g393" clip-path="url(#p9957957fab)"><use height="100%" width="100%" id="use391" y="133.056" xlink:href="#mee0f2fd33b" x="262.734" fill="#1f77b4" stroke="#1f77b4"/></g></g><g id="line2d_6"><g id="g398" clip-path="url(#p9957957fab)"><use height="100%" width="100%" id="use396" y="133.056" xlink:href="#mee0f2fd33b" x="94.386" fill="#1f77b4" stroke="#1f77b4"/></g></g><g id="line2d_7"><g id="g403" clip-path="url(#p9957957fab)"><use height="100%" width="100%" id="use401" y="48.882" xlink:href="#mee0f2fd33b" x="178.56" fill="#1f77b4" stroke="#1f77b4"/></g></g><g id="line2d_8"><g id="g408" clip-path="url(#p9957957fab)"><use height="100%" width="100%" id="use406" y="217.23" xlink:href="#mee0f2fd33b" x="178.56" fill="#1f77b4" stroke="#1f77b4"/></g></g><g id="line2d_9"><g id="g413" clip-path="url(#p9957957fab)"><use height="100%" width="100%" id="use411" y="133.056" xlink:href="#mee0f2fd33b" x="290.692" fill="#1f77b4" stroke="#1f77b4"/></g></g><g id="line2d_10"><g id="g418" clip-path="url(#p9957957fab)"><use height="100%" width="100%" id="use416" y="133.056" xlink:href="#mee0f2fd33b" x="66.428" fill="#1f77b4" stroke="#1f77b4"/></g></g><g id="line2d_11"><g id="g423" clip-path="url(#p9957957fab)"><use height="100%" width="100%" id="use421" y="20.924" xlink:href="#mee0f2fd33b" x="178.56" fill="#1f77b4" stroke="#1f77b4"/></g></g><g id="line2d_12"><g id="g428" clip-path="url(#p9957957fab)"><use height="100%" width="100%" id="use426" y="245.188" xlink:href="#mee0f2fd33b" x="178.56" fill="#1f77b4" stroke="#1f77b4"/></g></g><g id="line2d_13"><g id="g433" clip-path="url(#p9957957fab)"><use height="100%" width="100%" id="use431" y="91.003" xlink:href="#mee0f2fd33b" x="251.476" fill="#1f77b4" stroke="#1f77b4"/></g></g><g id="line2d_14"><g id="g438" clip-path="url(#p9957957fab)"><use height="100%" width="100%" id="use436" y="175.109" xlink:href="#mee0f2fd33b" x="251.476" fill="#1f77b4" stroke="#1f77b4"/></g></g><g id="line2d_15"><g id="g443" clip-path="url(#p9957957fab)"><use height="100%" width="100%" id="use441" y="91.003" xlink:href="#mee0f2fd33b" x="105.644" fill="#1f77b4" stroke="#1f77b4"/></g></g><g id="line2d_16"><g id="g448" clip-path="url(#p9957957fab)"><use height="100%" width="100%" id="use446" y="175.109" xlink:href="#mee0f2fd33b" x="105.644" fill="#1f77b4" stroke="#1f77b4"/></g></g><g id="line2d_17"><g id="g453" clip-path="url(#p9957957fab)"><use height="100%" width="100%" id="use451" y="60.14" xlink:href="#mee0f2fd33b" x="220.613" fill="#1f77b4" stroke="#1f77b4"/></g></g><g id="line2d_18"><g id="g458" clip-path="url(#p9957957fab)"><use height="100%" width="100%" id="use456" y="205.972" xlink:href="#mee0f2fd33b" x="220.613" fill="#1f77b4" stroke="#1f77b4"/></g></g><g id="line2d_19"><g id="g463" clip-path="url(#p9957957fab)"><use height="100%" width="100%" id="use461" y="60.14" xlink:href="#mee0f2fd33b" x="136.507" fill="#1f77b4" stroke="#1f77b4"/></g></g><g id="line2d_20"><g id="g468" clip-path="url(#p9957957fab)"><use height="100%" width="100%" id="use466" y="205.972" xlink:href="#mee0f2fd33b" x="136.507" fill="#1f77b4" stroke="#1f77b4"/></g></g><g id="line2d_21"><g id="g473" clip-path="url(#p9957957fab)"><use height="100%" width="100%" id="use471" y="76.987" xlink:href="#mee0f2fd33b" x="275.667" fill="#1f77b4" stroke="#1f77b4"/></g></g><g id="line2d_22"><g id="g478" clip-path="url(#p9957957fab)"><use height="100%" width="100%" id="use476" y="189.125" xlink:href="#mee0f2fd33b" x="275.667" fill="#1f77b4" stroke="#1f77b4"/></g></g><g id="line2d_23"><g id="g483" clip-path="url(#p9957957fab)"><use height="100%" width="100%" id="use481" y="76.987" xlink:href="#mee0f2fd33b" x="81.453" fill="#1f77b4" stroke="#1f77b4"/></g></g><g id="line2d_24"><g id="g488" clip-path="url(#p9957957fab)"><use height="100%" width="100%" id="use486" y="189.125" xlink:href="#mee0f2fd33b" x="81.453" fill="#1f77b4" stroke="#1f77b4"/></g></g><g id="line2d_25"><g id="g493" clip-path="url(#p9957957fab)"><use height="100%" width="100%" id="use491" y="35.949" xlink:href="#mee0f2fd33b" x="234.629" fill="#1f77b4" stroke="#1f77b4"/></g></g><g id="line2d_26"><g id="g498" clip-path="url(#p9957957fab)"><use height="100%" width="100%" id="use496" y="230.163" xlink:href="#mee0f2fd33b" x="234.629" fill="#1f77b4" stroke="#1f77b4"/></g></g><g id="line2d_27"><g id="g503" clip-path="url(#p9957957fab)"><use height="100%" width="100%" id="use501" y="35.949" xlink:href="#mee0f2fd33b" x="122.491" fill="#1f77b4" stroke="#1f77b4"/></g></g><g id="line2d_28"><g id="g508" clip-path="url(#p9957957fab)"><use height="100%" width="100%" id="use506" y="230.163" xlink:href="#mee0f2fd33b" x="122.491" fill="#1f77b4" stroke="#1f77b4"/></g></g><g id="line2d_29"><g id="g513" clip-path="url(#p9957957fab)"><use height="100%" width="100%" id="use511" y="104.798" xlink:href="#mee0f2fd33b" x="206.818" fill="#1f77b4" stroke="#1f77b4"/></g></g><g id="line2d_30"><g id="g518" clip-path="url(#p9957957fab)"><use height="100%" width="100%" id="use516" y="161.314" xlink:href="#mee0f2fd33b" x="206.818" fill="#1f77b4" stroke="#1f77b4"/></g></g><g id="line2d_31"><g id="g523" clip-path="url(#p9957957fab)"><use height="100%" width="100%" id="use521" y="104.798" xlink:href="#mee0f2fd33b" x="150.302" fill="#1f77b4" stroke="#1f77b4"/></g></g><g id="line2d_32"><g id="g528" clip-path="url(#p9957957fab)"><use height="100%" width="100%" id="use526" y="161.314" xlink:href="#mee0f2fd33b" x="150.302" fill="#1f77b4" stroke="#1f77b4"/></g></g></g></g><defs id="defs536"><clipPath id="p9957957fab"><path id="rect533" d="M0 0h357.12v266.112H0z"/></clipPath></defs></svg>