<svg xmlns="http://www.w3.org/2000/svg" xmlns:xlink="http://www.w3.org/1999/xlink" id="svg1262" width="348.652" viewBox="0 0 261.489 261.489" version="1.1" height="348.652"><defs id="defs991"><style id="style989" type="text/css">*{stroke-linecap:butt;stroke-linejoin:round}</style></defs><g transform="translate(-55.016 -9.512)" id="figure_1"><g id="axes_1"><g id="patch_2"><path id="path993" d="M185.76 259.296c31.57 0 61.85-12.543 84.174-34.866a119.046 119.046 0 0034.866-84.174c0-31.57-12.543-61.85-34.866-84.174a119.046 119.046 0 00-84.174-34.866c-31.57 0-61.85 12.543-84.174 34.866a119.046 119.046 0 00-34.866 84.174c0 31.57 12.543 61.85 34.866 84.174a119.046 119.046 0 0084.174 34.866z" clip-path="url(#p0af5b5da1a)" fill="none" stroke="#000" stroke-linejoin="miter"/></g><g id="patch_3"><path id="path996" d="M225.723 162.438a22.183 22.183 0 100-44.366 22.183 22.183 0 000 44.366z" clip-path="url(#p0af5b5da1a)" opacity=".5" fill="#1f77b4" stroke="#1f77b4" stroke-linejoin="miter"/></g><g id="patch_4"><path id="path999" d="M145.797 162.438a22.183 22.183 0 100-44.366 22.183 22.183 0 000 44.366z" clip-path="url(#p0af5b5da1a)" opacity=".5" fill="#1f77b4" stroke="#1f77b4" stroke-linejoin="miter"/></g><g id="patch_5"><path id="path1002" d="M185.76 122.475a22.183 22.183 0 100-44.366 22.183 22.183 0 000 44.366z" clip-path="url(#p0af5b5da1a)" opacity=".5" fill="#1f77b4" stroke="#1f77b4" stroke-linejoin="miter"/></g><g id="patch_6"><path id="path1005" d="M185.76 202.4a22.183 22.183 0 100-44.365 22.183 22.183 0 000 44.366z" clip-path="url(#p0af5b5da1a)" opacity=".5" fill="#1f77b4" stroke="#1f77b4" stroke-linejoin="miter"/></g><g id="patch_7"><path id="path1008" d="M269.934 163.14a22.886 22.886 0 100-45.77 22.886 22.886 0 000 45.77z" clip-path="url(#p0af5b5da1a)" opacity=".5" fill="#1f77b4" stroke="#1f77b4" stroke-linejoin="miter"/></g><g id="patch_8"><path id="path1011" d="M101.586 163.14a22.886 22.886 0 100-45.77 22.886 22.886 0 000 45.77z" clip-path="url(#p0af5b5da1a)" opacity=".5" fill="#1f77b4" stroke="#1f77b4" stroke-linejoin="miter"/></g><g id="patch_9"><path id="path1014" d="M185.76 78.967a22.886 22.886 0 100-45.772 22.886 22.886 0 000 45.772z" clip-path="url(#p0af5b5da1a)" opacity=".5" fill="#1f77b4" stroke="#1f77b4" stroke-linejoin="miter"/></g><g id="patch_10"><path id="path1017" d="M185.76 247.315a22.886 22.886 0 100-45.772 22.886 22.886 0 000 45.772z" clip-path="url(#p0af5b5da1a)" opacity=".5" fill="#1f77b4" stroke="#1f77b4" stroke-linejoin="miter"/></g><g id="patch_11"><path id="path1020" d="M297.892 158.369a18.114 18.114 0 10-.001-36.228 18.114 18.114 0 000 36.228z" clip-path="url(#p0af5b5da1a)" opacity=".5" fill="#1f77b4" stroke="#1f77b4" stroke-linejoin="miter"/></g><g id="patch_12"><path id="path1023" d="M73.628 158.369a18.114 18.114 0 100-36.228 18.114 18.114 0 000 36.228z" clip-path="url(#p0af5b5da1a)" opacity=".5" fill="#1f77b4" stroke="#1f77b4" stroke-linejoin="miter"/></g><g id="patch_13"><path id="path1026" d="M185.76 46.237a18.114 18.114 0 100-36.227 18.114 18.114 0 000 36.227z" clip-path="url(#p0af5b5da1a)" opacity=".5" fill="#1f77b4" stroke="#1f77b4" stroke-linejoin="miter"/></g><g id="patch_14"><path id="path1029" d="M185.76 270.5a18.114 18.114 0 100-36.227 18.114 18.114 0 000 36.227z" clip-path="url(#p0af5b5da1a)" opacity=".5" fill="#1f77b4" stroke="#1f77b4" stroke-linejoin="miter"/></g><g id="patch_15"><path id="path1032" d="M258.676 121.125a22.923 22.923 0 100-45.846 22.923 22.923 0 000 45.846z" clip-path="url(#p0af5b5da1a)" opacity=".5" fill="#1f77b4" stroke="#1f77b4" stroke-linejoin="miter"/></g><g id="patch_16"><path id="path1035" d="M258.676 205.23a22.923 22.923 0 100-45.845 22.923 22.923 0 000 45.846z" clip-path="url(#p0af5b5da1a)" opacity=".5" fill="#1f77b4" stroke="#1f77b4" stroke-linejoin="miter"/></g><g id="patch_17"><path id="path1038" d="M112.844 121.125a22.923 22.923 0 10-.001-45.846 22.923 22.923 0 000 45.846z" clip-path="url(#p0af5b5da1a)" opacity=".5" fill="#1f77b4" stroke="#1f77b4" stroke-linejoin="miter"/></g><g id="patch_18"><path id="path1041" d="M112.844 205.23a22.923 22.923 0 10-.001-45.845 22.923 22.923 0 000 45.846z" clip-path="url(#p0af5b5da1a)" opacity=".5" fill="#1f77b4" stroke="#1f77b4" stroke-linejoin="miter"/></g><g id="patch_19"><path id="path1044" d="M227.813 90.261a22.923 22.923 0 100-45.845 22.923 22.923 0 000 45.845z" clip-path="url(#p0af5b5da1a)" opacity=".5" fill="#1f77b4" stroke="#1f77b4" stroke-linejoin="miter"/></g><g id="patch_20"><path id="path1047" d="M227.813 236.094a22.923 22.923 0 100-45.845 22.923 22.923 0 000 45.845z" clip-path="url(#p0af5b5da1a)" opacity=".5" fill="#1f77b4" stroke="#1f77b4" stroke-linejoin="miter"/></g><g id="patch_21"><path id="path1050" d="M143.707 90.261a22.923 22.923 0 100-45.845 22.923 22.923 0 000 45.845z" clip-path="url(#p0af5b5da1a)" opacity=".5" fill="#1f77b4" stroke="#1f77b4" stroke-linejoin="miter"/></g><g id="patch_22"><path id="path1053" d="M143.707 236.094a22.923 22.923 0 10-.001-45.845 22.923 22.923 0 000 45.845z" clip-path="url(#p0af5b5da1a)" opacity=".5" fill="#1f77b4" stroke="#1f77b4" stroke-linejoin="miter"/></g><g id="patch_23"><path id="path1056" d="M282.867 102.297a18.111 18.111 0 10-.001-36.223 18.111 18.111 0 000 36.223z" clip-path="url(#p0af5b5da1a)" opacity=".5" fill="#1f77b4" stroke="#1f77b4" stroke-linejoin="miter"/></g><g id="patch_24"><path id="path1059" d="M282.867 214.436a18.111 18.111 0 10-.001-36.223 18.111 18.111 0 000 36.223z" clip-path="url(#p0af5b5da1a)" opacity=".5" fill="#1f77b4" stroke="#1f77b4" stroke-linejoin="miter"/></g><g id="patch_25"><path id="path1062" d="M88.653 102.297a18.111 18.111 0 100-36.223 18.111 18.111 0 000 36.223z" clip-path="url(#p0af5b5da1a)" opacity=".5" fill="#1f77b4" stroke="#1f77b4" stroke-linejoin="miter"/></g><g id="patch_26"><path id="path1065" d="M88.653 214.436a18.111 18.111 0 100-36.223 18.111 18.111 0 000 36.223z" clip-path="url(#p0af5b5da1a)" opacity=".5" fill="#1f77b4" stroke="#1f77b4" stroke-linejoin="miter"/></g><g id="patch_27"><path id="path1068" d="M241.83 61.26a18.111 18.111 0 10-.001-36.223 18.111 18.111 0 000 36.223z" clip-path="url(#p0af5b5da1a)" opacity=".5" fill="#1f77b4" stroke="#1f77b4" stroke-linejoin="miter"/></g><g id="patch_28"><path id="path1071" d="M241.83 255.473a18.111 18.111 0 10-.001-36.223 18.111 18.111 0 000 36.223z" clip-path="url(#p0af5b5da1a)" opacity=".5" fill="#1f77b4" stroke="#1f77b4" stroke-linejoin="miter"/></g><g id="patch_29"><path id="path1074" d="M129.69 61.26a18.111 18.111 0 100-36.223 18.111 18.111 0 000 36.223z" clip-path="url(#p0af5b5da1a)" opacity=".5" fill="#1f77b4" stroke="#1f77b4" stroke-linejoin="miter"/></g><g id="patch_30"><path id="path1077" d="M129.69 255.473a18.111 18.111 0 100-36.223 18.111 18.111 0 000 36.223z" clip-path="url(#p0af5b5da1a)" opacity=".5" fill="#1f77b4" stroke="#1f77b4" stroke-linejoin="miter"/></g><g id="patch_31"><path id="path1080" d="M214.018 134.18a22.183 22.183 0 100-44.366 22.183 22.183 0 000 44.366z" clip-path="url(#p0af5b5da1a)" opacity=".5" fill="#1f77b4" stroke="#1f77b4" stroke-linejoin="miter"/></g><g id="patch_32"><path id="path1083" d="M214.018 190.696a22.183 22.183 0 100-44.366 22.183 22.183 0 000 44.366z" clip-path="url(#p0af5b5da1a)" opacity=".5" fill="#1f77b4" stroke="#1f77b4" stroke-linejoin="miter"/></g><g id="patch_33"><path id="path1086" d="M157.502 134.18a22.183 22.183 0 10-.001-44.366 22.183 22.183 0 000 44.366z" clip-path="url(#p0af5b5da1a)" opacity=".5" fill="#1f77b4" stroke="#1f77b4" stroke-linejoin="miter"/></g><g id="patch_34"><path id="path1089" d="M157.502 190.696a22.183 22.183 0 10-.001-44.366 22.183 22.183 0 000 44.366z" clip-path="url(#p0af5b5da1a)" opacity=".5" fill="#1f77b4" stroke="#1f77b4" stroke-linejoin="miter"/></g><g id="line2d_1"><defs id="defs1093"><path id="mc96b80fed9" d="M0 1.5a1.5 1.5 0 100-3 1.5 1.5 0 000 3z" stroke="#1f77b4"/></defs><g id="g1097" clip-path="url(#p0af5b5da1a)"><use height="100%" width="100%" id="use1095" y="140.256" xlink:href="#mc96b80fed9" x="225.723" fill="#1f77b4" stroke="#1f77b4"/></g></g><g id="line2d_2"><g id="g1102" clip-path="url(#p0af5b5da1a)"><use height="100%" width="100%" id="use1100" y="140.256" xlink:href="#mc96b80fed9" x="145.797" fill="#1f77b4" stroke="#1f77b4"/></g></g><g id="line2d_3"><g id="g1107" clip-path="url(#p0af5b5da1a)"><use height="100%" width="100%" id="use1105" y="100.293" xlink:href="#mc96b80fed9" x="185.76" fill="#1f77b4" stroke="#1f77b4"/></g></g><g id="line2d_4"><g id="g1112" clip-path="url(#p0af5b5da1a)"><use height="100%" width="100%" id="use1110" y="180.219" xlink:href="#mc96b80fed9" x="185.76" fill="#1f77b4" stroke="#1f77b4"/></g></g><g id="line2d_5"><g id="g1117" clip-path="url(#p0af5b5da1a)"><use height="100%" width="100%" id="use1115" y="140.256" xlink:href="#mc96b80fed9" x="269.934" fill="#1f77b4" stroke="#1f77b4"/></g></g><g id="line2d_6"><g id="g1122" clip-path="url(#p0af5b5da1a)"><use height="100%" width="100%" id="use1120" y="140.256" xlink:href="#mc96b80fed9" x="101.586" fill="#1f77b4" stroke="#1f77b4"/></g></g><g id="line2d_7"><g id="g1127" clip-path="url(#p0af5b5da1a)"><use height="100%" width="100%" id="use1125" y="56.082" xlink:href="#mc96b80fed9" x="185.76" fill="#1f77b4" stroke="#1f77b4"/></g></g><g id="line2d_8"><g id="g1132" clip-path="url(#p0af5b5da1a)"><use height="100%" width="100%" id="use1130" y="224.43" xlink:href="#mc96b80fed9" x="185.76" fill="#1f77b4" stroke="#1f77b4"/></g></g><g id="line2d_9"><g id="g1137" clip-path="url(#p0af5b5da1a)"><use height="100%" width="100%" id="use1135" y="140.256" xlink:href="#mc96b80fed9" x="297.892" fill="#1f77b4" stroke="#1f77b4"/></g></g><g id="line2d_10"><g id="g1142" clip-path="url(#p0af5b5da1a)"><use height="100%" width="100%" id="use1140" y="140.256" xlink:href="#mc96b80fed9" x="73.628" fill="#1f77b4" stroke="#1f77b4"/></g></g><g id="line2d_11"><g id="g1147" clip-path="url(#p0af5b5da1a)"><use height="100%" width="100%" id="use1145" y="28.124" xlink:href="#mc96b80fed9" x="185.76" fill="#1f77b4" stroke="#1f77b4"/></g></g><g id="line2d_12"><g id="g1152" clip-path="url(#p0af5b5da1a)"><use height="100%" width="100%" id="use1150" y="252.388" xlink:href="#mc96b80fed9" x="185.76" fill="#1f77b4" stroke="#1f77b4"/></g></g><g id="line2d_13"><g id="g1157" clip-path="url(#p0af5b5da1a)"><use height="100%" width="100%" id="use1155" y="98.203" xlink:href="#mc96b80fed9" x="258.676" fill="#1f77b4" stroke="#1f77b4"/></g></g><g id="line2d_14"><g id="g1162" clip-path="url(#p0af5b5da1a)"><use height="100%" width="100%" id="use1160" y="182.309" xlink:href="#mc96b80fed9" x="258.676" fill="#1f77b4" stroke="#1f77b4"/></g></g><g id="line2d_15"><g id="g1167" clip-path="url(#p0af5b5da1a)"><use height="100%" width="100%" id="use1165" y="98.203" xlink:href="#mc96b80fed9" x="112.844" fill="#1f77b4" stroke="#1f77b4"/></g></g><g id="line2d_16"><g id="g1172" clip-path="url(#p0af5b5da1a)"><use height="100%" width="100%" id="use1170" y="182.309" xlink:href="#mc96b80fed9" x="112.844" fill="#1f77b4" stroke="#1f77b4"/></g></g><g id="line2d_17"><g id="g1177" clip-path="url(#p0af5b5da1a)"><use height="100%" width="100%" id="use1175" y="67.34" xlink:href="#mc96b80fed9" x="227.813" fill="#1f77b4" stroke="#1f77b4"/></g></g><g id="line2d_18"><g id="g1182" clip-path="url(#p0af5b5da1a)"><use height="100%" width="100%" id="use1180" y="213.172" xlink:href="#mc96b80fed9" x="227.813" fill="#1f77b4" stroke="#1f77b4"/></g></g><g id="line2d_19"><g id="g1187" clip-path="url(#p0af5b5da1a)"><use height="100%" width="100%" id="use1185" y="67.34" xlink:href="#mc96b80fed9" x="143.707" fill="#1f77b4" stroke="#1f77b4"/></g></g><g id="line2d_20"><g id="g1192" clip-path="url(#p0af5b5da1a)"><use height="100%" width="100%" id="use1190" y="213.172" xlink:href="#mc96b80fed9" x="143.707" fill="#1f77b4" stroke="#1f77b4"/></g></g><g id="line2d_21"><g id="g1197" clip-path="url(#p0af5b5da1a)"><use height="100%" width="100%" id="use1195" y="84.187" xlink:href="#mc96b80fed9" x="282.867" fill="#1f77b4" stroke="#1f77b4"/></g></g><g id="line2d_22"><g id="g1202" clip-path="url(#p0af5b5da1a)"><use height="100%" width="100%" id="use1200" y="196.325" xlink:href="#mc96b80fed9" x="282.867" fill="#1f77b4" stroke="#1f77b4"/></g></g><g id="line2d_23"><g id="g1207" clip-path="url(#p0af5b5da1a)"><use height="100%" width="100%" id="use1205" y="84.187" xlink:href="#mc96b80fed9" x="88.653" fill="#1f77b4" stroke="#1f77b4"/></g></g><g id="line2d_24"><g id="g1212" clip-path="url(#p0af5b5da1a)"><use height="100%" width="100%" id="use1210" y="196.325" xlink:href="#mc96b80fed9" x="88.653" fill="#1f77b4" stroke="#1f77b4"/></g></g><g id="line2d_25"><g id="g1217" clip-path="url(#p0af5b5da1a)"><use height="100%" width="100%" id="use1215" y="43.149" xlink:href="#mc96b80fed9" x="241.829" fill="#1f77b4" stroke="#1f77b4"/></g></g><g id="line2d_26"><g id="g1222" clip-path="url(#p0af5b5da1a)"><use height="100%" width="100%" id="use1220" y="237.363" xlink:href="#mc96b80fed9" x="241.829" fill="#1f77b4" stroke="#1f77b4"/></g></g><g id="line2d_27"><g id="g1227" clip-path="url(#p0af5b5da1a)"><use height="100%" width="100%" id="use1225" y="43.149" xlink:href="#mc96b80fed9" x="129.691" fill="#1f77b4" stroke="#1f77b4"/></g></g><g id="line2d_28"><g id="g1232" clip-path="url(#p0af5b5da1a)"><use height="100%" width="100%" id="use1230" y="237.363" xlink:href="#mc96b80fed9" x="129.691" fill="#1f77b4" stroke="#1f77b4"/></g></g><g id="line2d_29"><g id="g1237" clip-path="url(#p0af5b5da1a)"><use height="100%" width="100%" id="use1235" y="111.998" xlink:href="#mc96b80fed9" x="214.018" fill="#1f77b4" stroke="#1f77b4"/></g></g><g id="line2d_30"><g id="g1242" clip-path="url(#p0af5b5da1a)"><use height="100%" width="100%" id="use1240" y="168.514" xlink:href="#mc96b80fed9" x="214.018" fill="#1f77b4" stroke="#1f77b4"/></g></g><g id="line2d_31"><g id="g1247" clip-path="url(#p0af5b5da1a)"><use height="100%" width="100%" id="use1245" y="111.998" xlink:href="#mc96b80fed9" x="157.502" fill="#1f77b4" stroke="#1f77b4"/></g></g><g id="line2d_32"><g id="g1252" clip-path="url(#p0af5b5da1a)"><use height="100%" width="100%" id="use1250" y="168.514" xlink:href="#mc96b80fed9" x="157.502" fill="#1f77b4" stroke="#1f77b4"/></g></g></g></g><defs id="defs1260"><clipPath id="p0af5b5da1a"><path id="rect1257" d="M7.2 7.2h357.12v266.112H7.2z"/></clipPath></defs></svg>