<svg xmlns="http://www.w3.org/2000/svg" xmlns:xlink="http://www.w3.org/1999/xlink" id="svg1309" width="434.873" viewBox="0 0 326.155 34.366" version="1.1" height="45.822"><defs id="defs1270"><style id="style1268" type="text/css">*{stroke-linecap:butt;stroke-linejoin:round}</style></defs><g transform="translate(-22.683 -123.073)" id="figure_1"><g id="axes_1"><g id="patch_2"><path id="path1272" d="M42.942 156.94a16.684 16.684 0 100-33.369 16.684 16.684 0 000 33.368z" clip-path="url(#p178baa378d)" opacity=".5" fill="#1f77b4" stroke="#1f77b4" stroke-linejoin="miter"/></g><g id="patch_3"><path id="path1275" d="M131.086 146.79a6.535 6.535 0 100-13.07 6.535 6.535 0 000 13.07z" clip-path="url(#p178baa378d)" opacity=".5" fill="#1f77b4" stroke="#1f77b4" stroke-linejoin="miter"/></g><g id="patch_4"><path id="path1278" d="M318.573 140.5a.244.244 0 100-.488.244.244 0 000 .488z" clip-path="url(#p178baa378d)" opacity=".5" fill="#1f77b4" stroke="#1f77b4" stroke-linejoin="miter"/></g><g id="line2d_1"><path id="path1281" d="M23.433 140.256h324.654" clip-path="url(#p178baa378d)" fill="none" stroke="#000" stroke-width="1.5" stroke-linecap="square"/></g><g id="line2d_2"><defs id="defs1285"><path id="mcd24c92dde" d="M0 1.5a1.5 1.5 0 100-3 1.5 1.5 0 000 3z" stroke="#1f77b4"/></defs><g id="g1289" clip-path="url(#p178baa378d)"><use height="100%" width="100%" id="use1287" y="140.256" xlink:href="#mcd24c92dde" x="42.942" fill="#1f77b4" stroke="#1f77b4"/></g></g><g id="line2d_3"><g id="g1294" clip-path="url(#p178baa378d)"><use height="100%" width="100%" id="use1292" y="140.256" xlink:href="#mcd24c92dde" x="131.086" fill="#1f77b4" stroke="#1f77b4"/></g></g><g id="line2d_4"><g id="g1299" clip-path="url(#p178baa378d)"><use height="100%" width="100%" id="use1297" y="140.256" xlink:href="#mcd24c92dde" x="318.573" fill="#1f77b4" stroke="#1f77b4"/></g></g></g></g><defs id="defs1307"><clipPath id="p178baa378d"><path id="rect1304" d="M7.2 7.2h357.12v266.112H7.2z"/></clipPath></defs></svg>