<svg xmlns="http://www.w3.org/2000/svg" xmlns:xlink="http://www.w3.org/1999/xlink" id="svg625" width="434.873" viewBox="0 0 326.155 18.783" version="1.1" height="25.044"><defs id="defs546"><style id="style544" type="text/css">*{stroke-linecap:butt;stroke-linejoin:round}</style></defs><g transform="translate(-15.483 -123.665)" id="figure_1"><g id="axes_1"><g id="patch_2"><path id="path548" d="M30.99 133.059l.002-.001v-.002-.002h-.004l-.001.002v.002h.003z" clip-path="url(#p9f9d5d8dd4)" opacity=".5" fill="#1f77b4"/></g><g id="patch_3"><path id="path551" d="M78.775 133.299a.243.243 0 100-.486.243.243 0 000 .486z" clip-path="url(#p9f9d5d8dd4)" opacity=".5" fill="#1f77b4"/></g><g id="patch_4"><path id="path554" d="M120.29 136.008a2.952 2.952 0 100-5.904 2.952 2.952 0 000 5.904z" clip-path="url(#p9f9d5d8dd4)" opacity=".5" fill="#1f77b4"/></g><g id="patch_5"><path id="path557" d="M159.366 142.447a9.392 9.392 0 100-18.783 9.392 9.392 0 000 18.783z" clip-path="url(#p9f9d5d8dd4)" opacity=".5" fill="#1f77b4"/></g><g id="patch_6"><path id="path560" d="M197.754 142.447a9.392 9.392 0 100-18.783 9.392 9.392 0 000 18.783z" clip-path="url(#p9f9d5d8dd4)" opacity=".5" fill="#1f77b4"/></g><g id="patch_7"><path id="path563" d="M236.83 136.008a2.952 2.952 0 100-5.904 2.952 2.952 0 000 5.904z" clip-path="url(#p9f9d5d8dd4)" opacity=".5" fill="#1f77b4"/></g><g id="patch_8"><path id="path566" d="M278.345 133.299a.243.243 0 100-.486.243.243 0 000 .486z" clip-path="url(#p9f9d5d8dd4)" opacity=".5" fill="#1f77b4"/></g><g id="patch_9"><path id="path569" d="M326.13 133.059l.002-.001.001-.002v-.002h-.003-.002v.004h.002z" clip-path="url(#p9f9d5d8dd4)" opacity=".5" fill="#1f77b4"/></g><g id="line2d_1"><path id="path572" d="M16.233 133.056h324.654" clip-path="url(#p9f9d5d8dd4)" fill="none" stroke="#000" stroke-width="1.5" stroke-linecap="square"/></g><g id="line2d_2"><defs id="defs576"><path id="m013026ec2a" d="M0 1.5a1.5 1.5 0 100-3 1.5 1.5 0 000 3z" stroke="#1f77b4"/></defs><g id="g580" clip-path="url(#p9f9d5d8dd4)"><use height="100%" width="100%" id="use578" y="133.056" xlink:href="#m013026ec2a" x="30.99" fill="#1f77b4" stroke="#1f77b4"/></g></g><g id="line2d_3"><g id="g585" clip-path="url(#p9f9d5d8dd4)"><use height="100%" width="100%" id="use583" y="133.056" xlink:href="#m013026ec2a" x="78.775" fill="#1f77b4" stroke="#1f77b4"/></g></g><g id="line2d_4"><g id="g590" clip-path="url(#p9f9d5d8dd4)"><use height="100%" width="100%" id="use588" y="133.056" xlink:href="#m013026ec2a" x="120.29" fill="#1f77b4" stroke="#1f77b4"/></g></g><g id="line2d_5"><g id="g595" clip-path="url(#p9f9d5d8dd4)"><use height="100%" width="100%" id="use593" y="133.056" xlink:href="#m013026ec2a" x="159.366" fill="#1f77b4" stroke="#1f77b4"/></g></g><g id="line2d_6"><g id="g600" clip-path="url(#p9f9d5d8dd4)"><use height="100%" width="100%" id="use598" y="133.056" xlink:href="#m013026ec2a" x="197.754" fill="#1f77b4" stroke="#1f77b4"/></g></g><g id="line2d_7"><g id="g605" clip-path="url(#p9f9d5d8dd4)"><use height="100%" width="100%" id="use603" y="133.056" xlink:href="#m013026ec2a" x="236.83" fill="#1f77b4" stroke="#1f77b4"/></g></g><g id="line2d_8"><g id="g610" clip-path="url(#p9f9d5d8dd4)"><use height="100%" width="100%" id="use608" y="133.056" xlink:href="#m013026ec2a" x="278.345" fill="#1f77b4" stroke="#1f77b4"/></g></g><g id="line2d_9"><g id="g615" clip-path="url(#p9f9d5d8dd4)"><use height="100%" width="100%" id="use613" y="133.056" xlink:href="#m013026ec2a" x="326.13" fill="#1f77b4" stroke="#1f77b4"/></g></g></g></g><defs id="defs623"><clipPath id="p9f9d5d8dd4"><path id="rect620" d="M0 0h357.12v266.112H0z"/></clipPath></defs></svg>