<svg xmlns="http://www.w3.org/2000/svg" xmlns:xlink="http://www.w3.org/1999/xlink" id="svg83" width="434.873" viewBox="0 0 326.155 19.783" version="1.1" height="26.377"><defs id="defs4"><style id="style2" type="text/css">*{stroke-linecap:butt;stroke-linejoin:round}</style></defs><g transform="translate(-22.683 -130.365)" id="figure_1"><g id="axes_1"><g id="patch_2"><path id="path6" d="M38.19 140.259l.002-.001v-.002-.002h-.004l-.001.002v.002h.003z" clip-path="url(#pac309673b1)" opacity=".5" fill="#1f77b4" stroke="#1f77b4" stroke-linejoin="miter"/></g><g id="patch_3"><path id="path9" d="M85.975 140.499a.243.243 0 100-.486.243.243 0 000 .486z" clip-path="url(#pac309673b1)" opacity=".5" fill="#1f77b4" stroke="#1f77b4" stroke-linejoin="miter"/></g><g id="patch_4"><path id="path12" d="M127.49 143.208a2.952 2.952 0 100-5.904 2.952 2.952 0 000 5.904z" clip-path="url(#pac309673b1)" opacity=".5" fill="#1f77b4" stroke="#1f77b4" stroke-linejoin="miter"/></g><g id="patch_5"><path id="path15" d="M166.566 149.647a9.392 9.392 0 100-18.783 9.392 9.392 0 000 18.783z" clip-path="url(#pac309673b1)" opacity=".5" fill="#1f77b4" stroke="#1f77b4" stroke-linejoin="miter"/></g><g id="patch_6"><path id="path18" d="M204.954 149.647a9.392 9.392 0 100-18.783 9.392 9.392 0 000 18.783z" clip-path="url(#pac309673b1)" opacity=".5" fill="#1f77b4" stroke="#1f77b4" stroke-linejoin="miter"/></g><g id="patch_7"><path id="path21" d="M244.03 143.208a2.952 2.952 0 100-5.904 2.952 2.952 0 000 5.904z" clip-path="url(#pac309673b1)" opacity=".5" fill="#1f77b4" stroke="#1f77b4" stroke-linejoin="miter"/></g><g id="patch_8"><path id="path24" d="M285.545 140.499a.243.243 0 100-.486.243.243 0 000 .486z" clip-path="url(#pac309673b1)" opacity=".5" fill="#1f77b4" stroke="#1f77b4" stroke-linejoin="miter"/></g><g id="patch_9"><path id="path27" d="M333.33 140.259l.002-.001.001-.002v-.002h-.003-.002v.004h.002z" clip-path="url(#pac309673b1)" opacity=".5" fill="#1f77b4" stroke="#1f77b4" stroke-linejoin="miter"/></g><g id="line2d_1"><path id="path30" d="M23.433 140.256h324.654" clip-path="url(#pac309673b1)" fill="none" stroke="#000" stroke-width="1.5" stroke-linecap="square"/></g><g id="line2d_2"><defs id="defs34"><path id="m068a5ae980" d="M0 1.5a1.5 1.5 0 100-3 1.5 1.5 0 000 3z" stroke="#1f77b4"/></defs><g id="g38" clip-path="url(#pac309673b1)"><use height="100%" width="100%" id="use36" y="140.256" xlink:href="#m068a5ae980" x="38.19" fill="#1f77b4" stroke="#1f77b4"/></g></g><g id="line2d_3"><g id="g43" clip-path="url(#pac309673b1)"><use height="100%" width="100%" id="use41" y="140.256" xlink:href="#m068a5ae980" x="85.975" fill="#1f77b4" stroke="#1f77b4"/></g></g><g id="line2d_4"><g id="g48" clip-path="url(#pac309673b1)"><use height="100%" width="100%" id="use46" y="140.256" xlink:href="#m068a5ae980" x="127.49" fill="#1f77b4" stroke="#1f77b4"/></g></g><g id="line2d_5"><g id="g53" clip-path="url(#pac309673b1)"><use height="100%" width="100%" id="use51" y="140.256" xlink:href="#m068a5ae980" x="166.566" fill="#1f77b4" stroke="#1f77b4"/></g></g><g id="line2d_6"><g id="g58" clip-path="url(#pac309673b1)"><use height="100%" width="100%" id="use56" y="140.256" xlink:href="#m068a5ae980" x="204.954" fill="#1f77b4" stroke="#1f77b4"/></g></g><g id="line2d_7"><g id="g63" clip-path="url(#pac309673b1)"><use height="100%" width="100%" id="use61" y="140.256" xlink:href="#m068a5ae980" x="244.03" fill="#1f77b4" stroke="#1f77b4"/></g></g><g id="line2d_8"><g id="g68" clip-path="url(#pac309673b1)"><use height="100%" width="100%" id="use66" y="140.256" xlink:href="#m068a5ae980" x="285.545" fill="#1f77b4" stroke="#1f77b4"/></g></g><g id="line2d_9"><g id="g73" clip-path="url(#pac309673b1)"><use height="100%" width="100%" id="use71" y="140.256" xlink:href="#m068a5ae980" x="333.33" fill="#1f77b4" stroke="#1f77b4"/></g></g></g></g><defs id="defs81"><clipPath id="pac309673b1"><path id="rect78" d="M7.2 7.2h357.12v266.112H7.2z"/></clipPath></defs></svg>