<svg xmlns="http://www.w3.org/2000/svg" xmlns:xlink="http://www.w3.org/1999/xlink" id="svg1925" width="327.893" viewBox="0 0 245.92 245.92" version="1.1" height="327.893"><defs id="defs1561"><style id="style1559" type="text/css">*{stroke-linecap:butt;stroke-linejoin:round}</style></defs><g transform="translate(-62.8 -17.296)" id="figure_1"><g id="axes_1"><g id="patch_2"><path id="path1563" d="M306.72 140.257h.001v-.001-.001h-.001-.001v.002h.001z" clip-path="url(#p3b0053c489)" opacity=".5" fill="#1f77b4" stroke="#1f77b4" stroke-linejoin="miter"/></g><g id="patch_3"><path id="path1566" d="M64.8 140.257h.001v-.001-.001H64.8h-.001v.002h.001z" clip-path="url(#p3b0053c489)" opacity=".5" fill="#1f77b4" stroke="#1f77b4" stroke-linejoin="miter"/></g><g id="patch_4"><path id="path1569" d="M185.76 19.297h.001v-.001-.001h-.001-.001v.002h.001z" clip-path="url(#p3b0053c489)" opacity=".5" fill="#1f77b4" stroke="#1f77b4" stroke-linejoin="miter"/></g><g id="patch_5"><path id="path1572" d="M185.76 261.217h.001v-.001-.001h-.001-.001v.002h.001z" clip-path="url(#p3b0053c489)" opacity=".5" fill="#1f77b4" stroke="#1f77b4" stroke-linejoin="miter"/></g><g id="patch_6"><path id="path1575" d="M255.569 140.316a.06.06 0 100-.12.06.06 0 000 .12z" clip-path="url(#p3b0053c489)" opacity=".5" fill="#1f77b4" stroke="#1f77b4" stroke-linejoin="miter"/></g><g id="patch_7"><path id="path1578" d="M115.951 140.316a.06.06 0 100-.12.06.06 0 000 .12z" clip-path="url(#p3b0053c489)" opacity=".5" fill="#1f77b4" stroke="#1f77b4" stroke-linejoin="miter"/></g><g id="patch_8"><path id="path1581" d="M185.76 70.507a.06.06 0 100-.12.06.06 0 000 .12z" clip-path="url(#p3b0053c489)" opacity=".5" fill="#1f77b4" stroke="#1f77b4" stroke-linejoin="miter"/></g><g id="patch_9"><path id="path1584" d="M185.76 210.124a.06.06 0 100-.12.06.06 0 000 .12z" clip-path="url(#p3b0053c489)" opacity=".5" fill="#1f77b4" stroke="#1f77b4" stroke-linejoin="miter"/></g><g id="patch_10"><path id="path1587" d="M216.946 141.25a.994.994 0 100-1.988.994.994 0 000 1.988z" clip-path="url(#p3b0053c489)" opacity=".5" fill="#1f77b4" stroke="#1f77b4" stroke-linejoin="miter"/></g><g id="patch_11"><path id="path1590" d="M154.574 141.25a.994.994 0 100-1.988.994.994 0 000 1.988z" clip-path="url(#p3b0053c489)" opacity=".5" fill="#1f77b4" stroke="#1f77b4" stroke-linejoin="miter"/></g><g id="patch_12"><path id="path1593" d="M185.76 110.064a.994.994 0 100-1.989.994.994 0 000 1.989z" clip-path="url(#p3b0053c489)" opacity=".5" fill="#1f77b4" stroke="#1f77b4" stroke-linejoin="miter"/></g><g id="patch_13"><path id="path1596" d="M185.76 172.436a.994.994 0 100-1.988.994.994 0 000 1.988z" clip-path="url(#p3b0053c489)" opacity=".5" fill="#1f77b4" stroke="#1f77b4" stroke-linejoin="miter"/></g><g id="patch_14"><path id="path1599" d="M195.513 144.203a3.947 3.947 0 100-7.894 3.947 3.947 0 000 7.894z" clip-path="url(#p3b0053c489)" opacity=".5" fill="#1f77b4" stroke="#1f77b4" stroke-linejoin="miter"/></g><g id="patch_15"><path id="path1602" d="M176.007 144.203a3.947 3.947 0 100-7.894 3.947 3.947 0 000 7.894z" clip-path="url(#p3b0053c489)" opacity=".5" fill="#1f77b4" stroke="#1f77b4" stroke-linejoin="miter"/></g><g id="patch_16"><path id="path1605" d="M185.76 134.45a3.947 3.947 0 100-7.894 3.947 3.947 0 000 7.893z" clip-path="url(#p3b0053c489)" opacity=".5" fill="#1f77b4" stroke="#1f77b4" stroke-linejoin="miter"/></g><g id="patch_17"><path id="path1608" d="M185.76 153.956a3.947 3.947 0 100-7.894 3.947 3.947 0 000 7.894z" clip-path="url(#p3b0053c489)" opacity=".5" fill="#1f77b4" stroke="#1f77b4" stroke-linejoin="miter"/></g><g id="patch_18"><path id="path1611" d="M263.96 62.059l.002-.001.001-.002v-.002l-.003-.001h-.002a.003.003 0 000 .005h.002z" clip-path="url(#p3b0053c489)" opacity=".5" fill="#1f77b4" stroke="#1f77b4" stroke-linejoin="miter"/></g><g id="patch_19"><path id="path1614" d="M107.56 62.059l.002-.001a.003.003 0 000-.004l-.002-.001h-.002l-.001.003v.002h.003z" clip-path="url(#p3b0053c489)" opacity=".5" fill="#1f77b4" stroke="#1f77b4" stroke-linejoin="miter"/></g><g id="patch_20"><path id="path1617" d="M263.96 218.46l.002-.002.001-.002v-.002h-.003-.002v.004l.002.001z" clip-path="url(#p3b0053c489)" opacity=".5" fill="#1f77b4" stroke="#1f77b4" stroke-linejoin="miter"/></g><g id="patch_21"><path id="path1620" d="M107.56 218.46l.002-.002v-.002-.002h-.002-.002l-.001.002v.002l.003.001z" clip-path="url(#p3b0053c489)" opacity=".5" fill="#1f77b4" stroke="#1f77b4" stroke-linejoin="miter"/></g><g id="patch_22"><path id="path1623" d="M231.767 94.33a.082.082 0 100-.163.082.082 0 000 .164z" clip-path="url(#p3b0053c489)" opacity=".5" fill="#1f77b4" stroke="#1f77b4" stroke-linejoin="miter"/></g><g id="patch_23"><path id="path1626" d="M139.753 94.33a.082.082 0 100-.163.082.082 0 000 .164z" clip-path="url(#p3b0053c489)" opacity=".5" fill="#1f77b4" stroke="#1f77b4" stroke-linejoin="miter"/></g><g id="patch_24"><path id="path1629" d="M231.767 186.345a.082.082 0 100-.164.082.082 0 000 .164z" clip-path="url(#p3b0053c489)" opacity=".5" fill="#1f77b4" stroke="#1f77b4" stroke-linejoin="miter"/></g><g id="patch_25"><path id="path1632" d="M139.753 186.345a.082.082 0 100-.164.082.082 0 000 .164z" clip-path="url(#p3b0053c489)" opacity=".5" fill="#1f77b4" stroke="#1f77b4" stroke-linejoin="miter"/></g><g id="patch_26"><path id="path1635" d="M205.593 121.72a1.296 1.296 0 100-2.593 1.296 1.296 0 000 2.593z" clip-path="url(#p3b0053c489)" opacity=".5" fill="#1f77b4" stroke="#1f77b4" stroke-linejoin="miter"/></g><g id="patch_27"><path id="path1638" d="M165.927 121.72a1.296 1.296 0 100-2.593 1.296 1.296 0 000 2.593z" clip-path="url(#p3b0053c489)" opacity=".5" fill="#1f77b4" stroke="#1f77b4" stroke-linejoin="miter"/></g><g id="patch_28"><path id="path1641" d="M205.593 161.385a1.296 1.296 0 100-2.593 1.296 1.296 0 000 2.593z" clip-path="url(#p3b0053c489)" opacity=".5" fill="#1f77b4" stroke="#1f77b4" stroke-linejoin="miter"/></g><g id="patch_29"><path id="path1644" d="M165.927 161.385a1.296 1.296 0 100-2.593 1.296 1.296 0 000 2.593z" clip-path="url(#p3b0053c489)" opacity=".5" fill="#1f77b4" stroke="#1f77b4" stroke-linejoin="miter"/></g><g id="patch_30"><path id="path1647" d="M276.37 102.732c.002 0 .004 0 .006-.002a.01.01 0 00.002-.006l-.002-.006-.006-.002-.006.002a.01.01 0 00-.002.006c0 .002 0 .004.002.006a.01.01 0 00.006.002z" clip-path="url(#p3b0053c489)" opacity=".5" fill="#1f77b4" stroke="#1f77b4" stroke-linejoin="miter"/></g><g id="patch_31"><path id="path1650" d="M95.15 102.732a.01.01 0 00.006-.002l.002-.006a.01.01 0 00-.002-.006.01.01 0 00-.006-.002.01.01 0 00-.005.002c-.002.001-.003.004-.003.006l.003.006a.01.01 0 00.005.002z" clip-path="url(#p3b0053c489)" opacity=".5" fill="#1f77b4" stroke="#1f77b4" stroke-linejoin="miter"/></g><g id="patch_32"><path id="path1653" d="M276.37 177.796l.006-.002a.01.01 0 00.002-.006l-.002-.006-.006-.002c-.002 0-.004 0-.006.002a.01.01 0 00-.002.006c0 .002 0 .004.002.006a.01.01 0 00.006.002z" clip-path="url(#p3b0053c489)" opacity=".5" fill="#1f77b4" stroke="#1f77b4" stroke-linejoin="miter"/></g><g id="patch_33"><path id="path1656" d="M95.15 177.796a.01.01 0 00.006-.002l.002-.006a.01.01 0 00-.002-.006.01.01 0 00-.006-.002.01.01 0 00-.005.002c-.002 0-.003.004-.003.006l.003.006a.01.01 0 00.005.002z" clip-path="url(#p3b0053c489)" opacity=".5" fill="#1f77b4" stroke="#1f77b4" stroke-linejoin="miter"/></g><g id="patch_34"><path id="path1659" d="M223.292 49.654a.01.01 0 00.006-.002.01.01 0 00.002-.006.01.01 0 00-.002-.005c-.001-.002-.003-.003-.006-.003a.01.01 0 00-.006.003.01.01 0 00-.002.005c0 .002 0 .004.002.006l.006.002z" clip-path="url(#p3b0053c489)" opacity=".5" fill="#1f77b4" stroke="#1f77b4" stroke-linejoin="miter"/></g><g id="patch_35"><path id="path1662" d="M148.228 49.654a.01.01 0 00.006-.002.01.01 0 00.002-.006.01.01 0 00-.002-.005c0-.002-.004-.003-.006-.003a.01.01 0 00-.006.003.01.01 0 00-.002.005l.002.006.006.002z" clip-path="url(#p3b0053c489)" opacity=".5" fill="#1f77b4" stroke="#1f77b4" stroke-linejoin="miter"/></g><g id="patch_36"><path id="path1665" d="M223.292 230.874l.006-.002a.01.01 0 00.002-.006l-.002-.006-.006-.002c-.002 0-.004 0-.006.002a.01.01 0 00-.002.006c0 .002 0 .004.002.006a.01.01 0 00.006.002z" clip-path="url(#p3b0053c489)" opacity=".5" fill="#1f77b4" stroke="#1f77b4" stroke-linejoin="miter"/></g><g id="patch_37"><path id="path1668" d="M148.228 230.874l.006-.002a.01.01 0 00.002-.006c0-.002 0-.004-.002-.006a.01.01 0 00-.006-.002c-.002 0-.004 0-.006.002a.01.01 0 00-.002.006l.002.006a.01.01 0 00.006.002z" clip-path="url(#p3b0053c489)" opacity=".5" fill="#1f77b4" stroke="#1f77b4" stroke-linejoin="miter"/></g><g id="patch_38"><path id="path1671" d="M234.78 120.15a.198.198 0 100-.398.198.198 0 000 .397z" clip-path="url(#p3b0053c489)" opacity=".5" fill="#1f77b4" stroke="#1f77b4" stroke-linejoin="miter"/></g><g id="patch_39"><path id="path1674" d="M136.74 120.15a.198.198 0 100-.398.198.198 0 000 .397z" clip-path="url(#p3b0053c489)" opacity=".5" fill="#1f77b4" stroke="#1f77b4" stroke-linejoin="miter"/></g><g id="patch_40"><path id="path1677" d="M234.78 160.76a.198.198 0 100-.397.198.198 0 000 .396z" clip-path="url(#p3b0053c489)" opacity=".5" fill="#1f77b4" stroke="#1f77b4" stroke-linejoin="miter"/></g><g id="patch_41"><path id="path1680" d="M136.74 160.76a.198.198 0 100-.397.198.198 0 000 .396z" clip-path="url(#p3b0053c489)" opacity=".5" fill="#1f77b4" stroke="#1f77b4" stroke-linejoin="miter"/></g><g id="patch_42"><path id="path1683" d="M206.065 91.433a.198.198 0 100-.396.198.198 0 000 .396z" clip-path="url(#p3b0053c489)" opacity=".5" fill="#1f77b4" stroke="#1f77b4" stroke-linejoin="miter"/></g><g id="patch_43"><path id="path1686" d="M165.455 91.433a.198.198 0 100-.396.198.198 0 000 .396z" clip-path="url(#p3b0053c489)" opacity=".5" fill="#1f77b4" stroke="#1f77b4" stroke-linejoin="miter"/></g><g id="patch_44"><path id="path1689" d="M206.065 189.475a.198.198 0 100-.397.198.198 0 000 .397z" clip-path="url(#p3b0053c489)" opacity=".5" fill="#1f77b4" stroke="#1f77b4" stroke-linejoin="miter"/></g><g id="patch_45"><path id="path1692" d="M165.455 189.475a.198.198 0 100-.397.198.198 0 000 .397z" clip-path="url(#p3b0053c489)" opacity=".5" fill="#1f77b4" stroke="#1f77b4" stroke-linejoin="miter"/></g><g id="line2d_1"><defs id="defs1696"><path id="m051d3f4550" d="M0 1.5a1.5 1.5 0 100-3 1.5 1.5 0 000 3z" stroke="#1f77b4"/></defs><g id="g1700" clip-path="url(#p3b0053c489)"><use height="100%" width="100%" id="use1698" y="140.256" xlink:href="#m051d3f4550" x="306.72" fill="#1f77b4" stroke="#1f77b4"/></g></g><g id="line2d_2"><g id="g1705" clip-path="url(#p3b0053c489)"><use height="100%" width="100%" id="use1703" y="140.256" xlink:href="#m051d3f4550" x="64.8" fill="#1f77b4" stroke="#1f77b4"/></g></g><g id="line2d_3"><g id="g1710" clip-path="url(#p3b0053c489)"><use height="100%" width="100%" id="use1708" y="19.296" xlink:href="#m051d3f4550" x="185.76" fill="#1f77b4" stroke="#1f77b4"/></g></g><g id="line2d_4"><g id="g1715" clip-path="url(#p3b0053c489)"><use height="100%" width="100%" id="use1713" y="261.216" xlink:href="#m051d3f4550" x="185.76" fill="#1f77b4" stroke="#1f77b4"/></g></g><g id="line2d_5"><g id="g1720" clip-path="url(#p3b0053c489)"><use height="100%" width="100%" id="use1718" y="140.256" xlink:href="#m051d3f4550" x="255.569" fill="#1f77b4" stroke="#1f77b4"/></g></g><g id="line2d_6"><g id="g1725" clip-path="url(#p3b0053c489)"><use height="100%" width="100%" id="use1723" y="140.256" xlink:href="#m051d3f4550" x="115.951" fill="#1f77b4" stroke="#1f77b4"/></g></g><g id="line2d_7"><g id="g1730" clip-path="url(#p3b0053c489)"><use height="100%" width="100%" id="use1728" y="70.447" xlink:href="#m051d3f4550" x="185.76" fill="#1f77b4" stroke="#1f77b4"/></g></g><g id="line2d_8"><g id="g1735" clip-path="url(#p3b0053c489)"><use height="100%" width="100%" id="use1733" y="210.065" xlink:href="#m051d3f4550" x="185.76" fill="#1f77b4" stroke="#1f77b4"/></g></g><g id="line2d_9"><g id="g1740" clip-path="url(#p3b0053c489)"><use height="100%" width="100%" id="use1738" y="140.256" xlink:href="#m051d3f4550" x="216.946" fill="#1f77b4" stroke="#1f77b4"/></g></g><g id="line2d_10"><g id="g1745" clip-path="url(#p3b0053c489)"><use height="100%" width="100%" id="use1743" y="140.256" xlink:href="#m051d3f4550" x="154.574" fill="#1f77b4" stroke="#1f77b4"/></g></g><g id="line2d_11"><g id="g1750" clip-path="url(#p3b0053c489)"><use height="100%" width="100%" id="use1748" y="109.07" xlink:href="#m051d3f4550" x="185.76" fill="#1f77b4" stroke="#1f77b4"/></g></g><g id="line2d_12"><g id="g1755" clip-path="url(#p3b0053c489)"><use height="100%" width="100%" id="use1753" y="171.442" xlink:href="#m051d3f4550" x="185.76" fill="#1f77b4" stroke="#1f77b4"/></g></g><g id="line2d_13"><g id="g1760" clip-path="url(#p3b0053c489)"><use height="100%" width="100%" id="use1758" y="140.256" xlink:href="#m051d3f4550" x="195.513" fill="#1f77b4" stroke="#1f77b4"/></g></g><g id="line2d_14"><g id="g1765" clip-path="url(#p3b0053c489)"><use height="100%" width="100%" id="use1763" y="140.256" xlink:href="#m051d3f4550" x="176.007" fill="#1f77b4" stroke="#1f77b4"/></g></g><g id="line2d_15"><g id="g1770" clip-path="url(#p3b0053c489)"><use height="100%" width="100%" id="use1768" y="130.503" xlink:href="#m051d3f4550" x="185.76" fill="#1f77b4" stroke="#1f77b4"/></g></g><g id="line2d_16"><g id="g1775" clip-path="url(#p3b0053c489)"><use height="100%" width="100%" id="use1773" y="150.009" xlink:href="#m051d3f4550" x="185.76" fill="#1f77b4" stroke="#1f77b4"/></g></g><g id="line2d_17"><g id="g1780" clip-path="url(#p3b0053c489)"><use height="100%" width="100%" id="use1778" y="62.056" xlink:href="#m051d3f4550" x="263.96" fill="#1f77b4" stroke="#1f77b4"/></g></g><g id="line2d_18"><g id="g1785" clip-path="url(#p3b0053c489)"><use height="100%" width="100%" id="use1783" y="62.056" xlink:href="#m051d3f4550" x="107.56" fill="#1f77b4" stroke="#1f77b4"/></g></g><g id="line2d_19"><g id="g1790" clip-path="url(#p3b0053c489)"><use height="100%" width="100%" id="use1788" y="218.456" xlink:href="#m051d3f4550" x="263.96" fill="#1f77b4" stroke="#1f77b4"/></g></g><g id="line2d_20"><g id="g1795" clip-path="url(#p3b0053c489)"><use height="100%" width="100%" id="use1793" y="218.456" xlink:href="#m051d3f4550" x="107.56" fill="#1f77b4" stroke="#1f77b4"/></g></g><g id="line2d_21"><g id="g1800" clip-path="url(#p3b0053c489)"><use height="100%" width="100%" id="use1798" y="94.249" xlink:href="#m051d3f4550" x="231.767" fill="#1f77b4" stroke="#1f77b4"/></g></g><g id="line2d_22"><g id="g1805" clip-path="url(#p3b0053c489)"><use height="100%" width="100%" id="use1803" y="94.249" xlink:href="#m051d3f4550" x="139.753" fill="#1f77b4" stroke="#1f77b4"/></g></g><g id="line2d_23"><g id="g1810" clip-path="url(#p3b0053c489)"><use height="100%" width="100%" id="use1808" y="186.263" xlink:href="#m051d3f4550" x="231.767" fill="#1f77b4" stroke="#1f77b4"/></g></g><g id="line2d_24"><g id="g1815" clip-path="url(#p3b0053c489)"><use height="100%" width="100%" id="use1813" y="186.263" xlink:href="#m051d3f4550" x="139.753" fill="#1f77b4" stroke="#1f77b4"/></g></g><g id="line2d_25"><g id="g1820" clip-path="url(#p3b0053c489)"><use height="100%" width="100%" id="use1818" y="120.423" xlink:href="#m051d3f4550" x="205.593" fill="#1f77b4" stroke="#1f77b4"/></g></g><g id="line2d_26"><g id="g1825" clip-path="url(#p3b0053c489)"><use height="100%" width="100%" id="use1823" y="120.423" xlink:href="#m051d3f4550" x="165.927" fill="#1f77b4" stroke="#1f77b4"/></g></g><g id="line2d_27"><g id="g1830" clip-path="url(#p3b0053c489)"><use height="100%" width="100%" id="use1828" y="160.089" xlink:href="#m051d3f4550" x="205.593" fill="#1f77b4" stroke="#1f77b4"/></g></g><g id="line2d_28"><g id="g1835" clip-path="url(#p3b0053c489)"><use height="100%" width="100%" id="use1833" y="160.089" xlink:href="#m051d3f4550" x="165.927" fill="#1f77b4" stroke="#1f77b4"/></g></g><g id="line2d_29"><g id="g1840" clip-path="url(#p3b0053c489)"><use height="100%" width="100%" id="use1838" y="102.724" xlink:href="#m051d3f4550" x="276.37" fill="#1f77b4" stroke="#1f77b4"/></g></g><g id="line2d_30"><g id="g1845" clip-path="url(#p3b0053c489)"><use height="100%" width="100%" id="use1843" y="102.724" xlink:href="#m051d3f4550" x="95.15" fill="#1f77b4" stroke="#1f77b4"/></g></g><g id="line2d_31"><g id="g1850" clip-path="url(#p3b0053c489)"><use height="100%" width="100%" id="use1848" y="177.788" xlink:href="#m051d3f4550" x="276.37" fill="#1f77b4" stroke="#1f77b4"/></g></g><g id="line2d_32"><g id="g1855" clip-path="url(#p3b0053c489)"><use height="100%" width="100%" id="use1853" y="177.788" xlink:href="#m051d3f4550" x="95.15" fill="#1f77b4" stroke="#1f77b4"/></g></g><g id="line2d_33"><g id="g1860" clip-path="url(#p3b0053c489)"><use height="100%" width="100%" id="use1858" y="49.646" xlink:href="#m051d3f4550" x="223.292" fill="#1f77b4" stroke="#1f77b4"/></g></g><g id="line2d_34"><g id="g1865" clip-path="url(#p3b0053c489)"><use height="100%" width="100%" id="use1863" y="49.646" xlink:href="#m051d3f4550" x="148.228" fill="#1f77b4" stroke="#1f77b4"/></g></g><g id="line2d_35"><g id="g1870" clip-path="url(#p3b0053c489)"><use height="100%" width="100%" id="use1868" y="230.866" xlink:href="#m051d3f4550" x="223.292" fill="#1f77b4" stroke="#1f77b4"/></g></g><g id="line2d_36"><g id="g1875" clip-path="url(#p3b0053c489)"><use height="100%" width="100%" id="use1873" y="230.866" xlink:href="#m051d3f4550" x="148.228" fill="#1f77b4" stroke="#1f77b4"/></g></g><g id="line2d_37"><g id="g1880" clip-path="url(#p3b0053c489)"><use height="100%" width="100%" id="use1878" y="119.951" xlink:href="#m051d3f4550" x="234.781" fill="#1f77b4" stroke="#1f77b4"/></g></g><g id="line2d_38"><g id="g1885" clip-path="url(#p3b0053c489)"><use height="100%" width="100%" id="use1883" y="119.951" xlink:href="#m051d3f4550" x="136.739" fill="#1f77b4" stroke="#1f77b4"/></g></g><g id="line2d_39"><g id="g1890" clip-path="url(#p3b0053c489)"><use height="100%" width="100%" id="use1888" y="160.561" xlink:href="#m051d3f4550" x="234.781" fill="#1f77b4" stroke="#1f77b4"/></g></g><g id="line2d_40"><g id="g1895" clip-path="url(#p3b0053c489)"><use height="100%" width="100%" id="use1893" y="160.561" xlink:href="#m051d3f4550" x="136.739" fill="#1f77b4" stroke="#1f77b4"/></g></g><g id="line2d_41"><g id="g1900" clip-path="url(#p3b0053c489)"><use height="100%" width="100%" id="use1898" y="91.235" xlink:href="#m051d3f4550" x="206.065" fill="#1f77b4" stroke="#1f77b4"/></g></g><g id="line2d_42"><g id="g1905" clip-path="url(#p3b0053c489)"><use height="100%" width="100%" id="use1903" y="91.235" xlink:href="#m051d3f4550" x="165.455" fill="#1f77b4" stroke="#1f77b4"/></g></g><g id="line2d_43"><g id="g1910" clip-path="url(#p3b0053c489)"><use height="100%" width="100%" id="use1908" y="189.277" xlink:href="#m051d3f4550" x="206.065" fill="#1f77b4" stroke="#1f77b4"/></g></g><g id="line2d_44"><g id="g1915" clip-path="url(#p3b0053c489)"><use height="100%" width="100%" id="use1913" y="189.277" xlink:href="#m051d3f4550" x="165.455" fill="#1f77b4" stroke="#1f77b4"/></g></g></g></g><defs id="defs1923"><clipPath id="p3b0053c489"><path id="rect1920" d="M7.2 7.2h357.12v266.112H7.2z"/></clipPath></defs></svg>