<svg xmlns="http://www.w3.org/2000/svg" xmlns:xlink="http://www.w3.org/1999/xlink" id="svg916" width="327.893" viewBox="0 0 245.92 245.92" version="1.1" height="327.893"><defs id="defs680"><style id="style678" type="text/css">*{stroke-linecap:butt;stroke-linejoin:round}</style></defs><g transform="translate(-55.6 -10.096)" id="figure_1"><g id="axes_1"><g id="patch_2"><path id="path682" d="M299.52 133.729a.673.673 0 1 0 0-1.346.673.673 0 0 0 0 1.346z" clip-path="url(#p280c1dfb83)" opacity=".5" fill="#1f77b4"/></g><g id="patch_3"><path id="path685" d="M57.6 133.729a.673.673 0 1 0 0-1.346.673.673 0 0 0 0 1.346z" clip-path="url(#p280c1dfb83)" opacity=".5" fill="#1f77b4"/></g><g id="patch_4"><path id="path688" d="M178.56 12.769a.673.673 0 1 0 0-1.346.673.673 0 0 0 0 1.346z" clip-path="url(#p280c1dfb83)" opacity=".5" fill="#1f77b4"/></g><g id="patch_5"><path id="path691" d="M178.56 254.689a.673.673 0 1 0 0-1.346.673.673 0 0 0 0 1.346z" clip-path="url(#p280c1dfb83)" opacity=".5" fill="#1f77b4"/></g><g id="patch_6"><path id="path694" d="M242.142 143.051a9.995 9.995 0 1 0 0-19.991 9.995 9.995 0 0 0 0 19.991z" clip-path="url(#p280c1dfb83)" opacity=".5" fill="#1f77b4"/></g><g id="patch_7"><path id="path697" d="M114.978 143.051a9.995 9.995 0 1 0 0-19.991 9.995 9.995 0 0 0 0 19.991z" clip-path="url(#p280c1dfb83)" opacity=".5" fill="#1f77b4"/></g><g id="patch_8"><path id="path700" d="M178.56 79.47a9.995 9.995 0 1 0 0-19.992 9.995 9.995 0 0 0 0 19.991z" clip-path="url(#p280c1dfb83)" opacity=".5" fill="#1f77b4"/></g><g id="patch_9"><path id="path703" d="M178.56 206.633a9.995 9.995 0 1 0 0-19.991 9.995 9.995 0 0 0 0 19.99z" clip-path="url(#p280c1dfb83)" opacity=".5" fill="#1f77b4"/></g><g id="patch_10"><path id="path706" d="M204.267 157.147a24.093 24.093 0 1 0-.001-48.185 24.093 24.093 0 0 0 0 48.185z" clip-path="url(#p280c1dfb83)" opacity=".5" fill="#1f77b4"/></g><g id="patch_11"><path id="path709" d="M152.853 157.147a24.093 24.093 0 1 0 0-48.185 24.093 24.093 0 0 0 0 48.185z" clip-path="url(#p280c1dfb83)" opacity=".5" fill="#1f77b4"/></g><g id="patch_12"><path id="path712" d="M178.56 131.44a24.093 24.093 0 1 0 0-48.184 24.093 24.093 0 0 0 0 48.185z" clip-path="url(#p280c1dfb83)" opacity=".5" fill="#1f77b4"/></g><g id="patch_13"><path id="path715" d="M178.56 182.854a24.093 24.093 0 1 0 0-48.185 24.093 24.093 0 0 0 0 48.185z" clip-path="url(#p280c1dfb83)" opacity=".5" fill="#1f77b4"/></g><g id="patch_14"><path id="path718" d="M257.782 54.867a1.033 1.033 0 1 0 0-2.066 1.033 1.033 0 0 0 0 2.066z" clip-path="url(#p280c1dfb83)" opacity=".5" fill="#1f77b4"/></g><g id="patch_15"><path id="path721" d="M99.338 54.867a1.033 1.033 0 1 0 0-2.066 1.033 1.033 0 0 0 0 2.066z" clip-path="url(#p280c1dfb83)" opacity=".5" fill="#1f77b4"/></g><g id="patch_16"><path id="path724" d="M257.782 213.31a1.033 1.033 0 1 0 0-2.065 1.033 1.033 0 0 0 0 2.066z" clip-path="url(#p280c1dfb83)" opacity=".5" fill="#1f77b4"/></g><g id="patch_17"><path id="path727" d="M99.338 213.31a1.033 1.033 0 1 0 0-2.065 1.033 1.033 0 0 0 0 2.066z" clip-path="url(#p280c1dfb83)" opacity=".5" fill="#1f77b4"/></g><g id="patch_18"><path id="path730" d="M219.017 105.523a12.925 12.925 0 1 0 0-25.85 12.925 12.925 0 0 0 0 25.85z" clip-path="url(#p280c1dfb83)" opacity=".5" fill="#1f77b4"/></g><g id="patch_19"><path id="path733" d="M138.103 105.523a12.925 12.925 0 1 0 0-25.85 12.925 12.925 0 0 0 0 25.85z" clip-path="url(#p280c1dfb83)" opacity=".5" fill="#1f77b4"/></g><g id="patch_20"><path id="path736" d="M219.017 186.437a12.925 12.925 0 1 0 0-25.85 12.925 12.925 0 0 0 0 25.85z" clip-path="url(#p280c1dfb83)" opacity=".5" fill="#1f77b4"/></g><g id="patch_21"><path id="path739" d="M138.103 186.437a12.925 12.925 0 1 0 0-25.85 12.925 12.925 0 0 0 0 25.85z" clip-path="url(#p280c1dfb83)" opacity=".5" fill="#1f77b4"/></g><g id="patch_22"><path id="path742" d="M264.33 99.908a2.883 2.883 0 1 0 0-5.766 2.883 2.883 0 0 0 0 5.766z" clip-path="url(#p280c1dfb83)" opacity=".5" fill="#1f77b4"/></g><g id="patch_23"><path id="path745" d="M92.79 99.908a2.883 2.883 0 1 0 0-5.766 2.883 2.883 0 0 0 0 5.766z" clip-path="url(#p280c1dfb83)" opacity=".5" fill="#1f77b4"/></g><g id="patch_24"><path id="path748" d="M264.33 171.97a2.883 2.883 0 1 0 0-5.767 2.883 2.883 0 0 0 0 5.767z" clip-path="url(#p280c1dfb83)" opacity=".5" fill="#1f77b4"/></g><g id="patch_25"><path id="path751" d="M92.79 171.97a2.883 2.883 0 1 0 0-5.767 2.883 2.883 0 0 0 0 5.767z" clip-path="url(#p280c1dfb83)" opacity=".5" fill="#1f77b4"/></g><g id="patch_26"><path id="path754" d="M214.59 50.169a2.883 2.883 0 1 0 0-5.767 2.883 2.883 0 0 0 0 5.767z" clip-path="url(#p280c1dfb83)" opacity=".5" fill="#1f77b4"/></g><g id="patch_27"><path id="path757" d="M142.53 50.169a2.883 2.883 0 1 0 0-5.767 2.883 2.883 0 0 0 0 5.767z" clip-path="url(#p280c1dfb83)" opacity=".5" fill="#1f77b4"/></g><g id="patch_28"><path id="path760" d="M214.59 221.71a2.883 2.883 0 1 0 0-5.767 2.883 2.883 0 0 0 0 5.766z" clip-path="url(#p280c1dfb83)" opacity=".5" fill="#1f77b4"/></g><g id="patch_29"><path id="path763" d="M142.53 221.71a2.883 2.883 0 1 0 0-5.767 2.883 2.883 0 0 0 0 5.766z" clip-path="url(#p280c1dfb83)" opacity=".5" fill="#1f77b4"/></g><g id="line2d_1"><defs id="defs767"><path id="m6574bf803a" d="M0 1.5a1.5 1.5 0 1 0 0-3 1.5 1.5 0 0 0 0 3z" stroke="#1f77b4"/></defs><g id="g771" clip-path="url(#p280c1dfb83)"><use height="100%" width="100%" id="use769" y="133.056" xlink:href="#m6574bf803a" x="299.52" fill="#1f77b4" stroke="#1f77b4"/></g></g><g id="line2d_2"><g id="g776" clip-path="url(#p280c1dfb83)"><use height="100%" width="100%" id="use774" y="133.056" xlink:href="#m6574bf803a" x="57.6" fill="#1f77b4" stroke="#1f77b4"/></g></g><g id="line2d_3"><g id="g781" clip-path="url(#p280c1dfb83)"><use height="100%" width="100%" id="use779" y="12.096" xlink:href="#m6574bf803a" x="178.56" fill="#1f77b4" stroke="#1f77b4"/></g></g><g id="line2d_4"><g id="g786" clip-path="url(#p280c1dfb83)"><use height="100%" width="100%" id="use784" y="254.016" xlink:href="#m6574bf803a" x="178.56" fill="#1f77b4" stroke="#1f77b4"/></g></g><g id="line2d_5"><g id="g791" clip-path="url(#p280c1dfb83)"><use height="100%" width="100%" id="use789" y="133.056" xlink:href="#m6574bf803a" x="242.142" fill="#1f77b4" stroke="#1f77b4"/></g></g><g id="line2d_6"><g id="g796" clip-path="url(#p280c1dfb83)"><use height="100%" width="100%" id="use794" y="133.056" xlink:href="#m6574bf803a" x="114.978" fill="#1f77b4" stroke="#1f77b4"/></g></g><g id="line2d_7"><g id="g801" clip-path="url(#p280c1dfb83)"><use height="100%" width="100%" id="use799" y="69.474" xlink:href="#m6574bf803a" x="178.56" fill="#1f77b4" stroke="#1f77b4"/></g></g><g id="line2d_8"><g id="g806" clip-path="url(#p280c1dfb83)"><use height="100%" width="100%" id="use804" y="196.638" xlink:href="#m6574bf803a" x="178.56" fill="#1f77b4" stroke="#1f77b4"/></g></g><g id="line2d_9"><g id="g811" clip-path="url(#p280c1dfb83)"><use height="100%" width="100%" id="use809" y="133.056" xlink:href="#m6574bf803a" x="204.267" fill="#1f77b4" stroke="#1f77b4"/></g></g><g id="line2d_10"><g id="g816" clip-path="url(#p280c1dfb83)"><use height="100%" width="100%" id="use814" y="133.056" xlink:href="#m6574bf803a" x="152.853" fill="#1f77b4" stroke="#1f77b4"/></g></g><g id="line2d_11"><g id="g821" clip-path="url(#p280c1dfb83)"><use height="100%" width="100%" id="use819" y="107.349" xlink:href="#m6574bf803a" x="178.56" fill="#1f77b4" stroke="#1f77b4"/></g></g><g id="line2d_12"><g id="g826" clip-path="url(#p280c1dfb83)"><use height="100%" width="100%" id="use824" y="158.763" xlink:href="#m6574bf803a" x="178.56" fill="#1f77b4" stroke="#1f77b4"/></g></g><g id="line2d_13"><g id="g831" clip-path="url(#p280c1dfb83)"><use height="100%" width="100%" id="use829" y="53.834" xlink:href="#m6574bf803a" x="257.782" fill="#1f77b4" stroke="#1f77b4"/></g></g><g id="line2d_14"><g id="g836" clip-path="url(#p280c1dfb83)"><use height="100%" width="100%" id="use834" y="53.834" xlink:href="#m6574bf803a" x="99.338" fill="#1f77b4" stroke="#1f77b4"/></g></g><g id="line2d_15"><g id="g841" clip-path="url(#p280c1dfb83)"><use height="100%" width="100%" id="use839" y="212.278" xlink:href="#m6574bf803a" x="257.782" fill="#1f77b4" stroke="#1f77b4"/></g></g><g id="line2d_16"><g id="g846" clip-path="url(#p280c1dfb83)"><use height="100%" width="100%" id="use844" y="212.278" xlink:href="#m6574bf803a" x="99.338" fill="#1f77b4" stroke="#1f77b4"/></g></g><g id="line2d_17"><g id="g851" clip-path="url(#p280c1dfb83)"><use height="100%" width="100%" id="use849" y="92.599" xlink:href="#m6574bf803a" x="219.017" fill="#1f77b4" stroke="#1f77b4"/></g></g><g id="line2d_18"><g id="g856" clip-path="url(#p280c1dfb83)"><use height="100%" width="100%" id="use854" y="92.599" xlink:href="#m6574bf803a" x="138.103" fill="#1f77b4" stroke="#1f77b4"/></g></g><g id="line2d_19"><g id="g861" clip-path="url(#p280c1dfb83)"><use height="100%" width="100%" id="use859" y="173.513" xlink:href="#m6574bf803a" x="219.017" fill="#1f77b4" stroke="#1f77b4"/></g></g><g id="line2d_20"><g id="g866" clip-path="url(#p280c1dfb83)"><use height="100%" width="100%" id="use864" y="173.513" xlink:href="#m6574bf803a" x="138.103" fill="#1f77b4" stroke="#1f77b4"/></g></g><g id="line2d_21"><g id="g871" clip-path="url(#p280c1dfb83)"><use height="100%" width="100%" id="use869" y="97.025" xlink:href="#m6574bf803a" x="264.33" fill="#1f77b4" stroke="#1f77b4"/></g></g><g id="line2d_22"><g id="g876" clip-path="url(#p280c1dfb83)"><use height="100%" width="100%" id="use874" y="97.025" xlink:href="#m6574bf803a" x="92.79" fill="#1f77b4" stroke="#1f77b4"/></g></g><g id="line2d_23"><g id="g881" clip-path="url(#p280c1dfb83)"><use height="100%" width="100%" id="use879" y="169.087" xlink:href="#m6574bf803a" x="264.33" fill="#1f77b4" stroke="#1f77b4"/></g></g><g id="line2d_24"><g id="g886" clip-path="url(#p280c1dfb83)"><use height="100%" width="100%" id="use884" y="169.087" xlink:href="#m6574bf803a" x="92.79" fill="#1f77b4" stroke="#1f77b4"/></g></g><g id="line2d_25"><g id="g891" clip-path="url(#p280c1dfb83)"><use height="100%" width="100%" id="use889" y="47.286" xlink:href="#m6574bf803a" x="214.591" fill="#1f77b4" stroke="#1f77b4"/></g></g><g id="line2d_26"><g id="g896" clip-path="url(#p280c1dfb83)"><use height="100%" width="100%" id="use894" y="47.286" xlink:href="#m6574bf803a" x="142.529" fill="#1f77b4" stroke="#1f77b4"/></g></g><g id="line2d_27"><g id="g901" clip-path="url(#p280c1dfb83)"><use height="100%" width="100%" id="use899" y="218.826" xlink:href="#m6574bf803a" x="214.591" fill="#1f77b4" stroke="#1f77b4"/></g></g><g id="line2d_28"><g id="g906" clip-path="url(#p280c1dfb83)"><use height="100%" width="100%" id="use904" y="218.826" xlink:href="#m6574bf803a" x="142.529" fill="#1f77b4" stroke="#1f77b4"/></g></g></g></g><defs id="defs914"><clipPath id="p280c1dfb83"><path id="rect911" d="M0 0h357.12v266.112H0z"/></clipPath></defs></svg>