<svg xmlns="http://www.w3.org/2000/svg" xmlns:xlink="http://www.w3.org/1999/xlink" id="svg1553" width="327.893" viewBox="0 0 245.92 245.92" version="1.1" height="327.893"><defs id="defs1317"><style id="style1315" type="text/css">*{stroke-linecap:butt;stroke-linejoin:round}</style></defs><g transform="translate(-62.8 -17.296)" id="figure_1"><g id="axes_1"><g id="patch_2"><path id="path1319" d="M306.72 140.929a.673.673 0 100-1.346.673.673 0 000 1.346z" clip-path="url(#pf179273236)" opacity=".5" fill="#1f77b4" stroke="#1f77b4" stroke-linejoin="miter"/></g><g id="patch_3"><path id="path1322" d="M64.8 140.929a.673.673 0 100-1.346.673.673 0 000 1.346z" clip-path="url(#pf179273236)" opacity=".5" fill="#1f77b4" stroke="#1f77b4" stroke-linejoin="miter"/></g><g id="patch_4"><path id="path1325" d="M185.76 19.969a.673.673 0 100-1.346.673.673 0 000 1.346z" clip-path="url(#pf179273236)" opacity=".5" fill="#1f77b4" stroke="#1f77b4" stroke-linejoin="miter"/></g><g id="patch_5"><path id="path1328" d="M185.76 261.889a.673.673 0 100-1.346.673.673 0 000 1.346z" clip-path="url(#pf179273236)" opacity=".5" fill="#1f77b4" stroke="#1f77b4" stroke-linejoin="miter"/></g><g id="patch_6"><path id="path1331" d="M249.342 150.251a9.995 9.995 0 100-19.991 9.995 9.995 0 000 19.991z" clip-path="url(#pf179273236)" opacity=".5" fill="#1f77b4" stroke="#1f77b4" stroke-linejoin="miter"/></g><g id="patch_7"><path id="path1334" d="M122.178 150.251a9.995 9.995 0 100-19.991 9.995 9.995 0 000 19.991z" clip-path="url(#pf179273236)" opacity=".5" fill="#1f77b4" stroke="#1f77b4" stroke-linejoin="miter"/></g><g id="patch_8"><path id="path1337" d="M185.76 86.67a9.995 9.995 0 100-19.992 9.995 9.995 0 000 19.991z" clip-path="url(#pf179273236)" opacity=".5" fill="#1f77b4" stroke="#1f77b4" stroke-linejoin="miter"/></g><g id="patch_9"><path id="path1340" d="M185.76 213.833a9.995 9.995 0 100-19.991 9.995 9.995 0 000 19.99z" clip-path="url(#pf179273236)" opacity=".5" fill="#1f77b4" stroke="#1f77b4" stroke-linejoin="miter"/></g><g id="patch_10"><path id="path1343" d="M211.467 164.347a24.093 24.093 0 10-.001-48.185 24.093 24.093 0 000 48.185z" clip-path="url(#pf179273236)" opacity=".5" fill="#1f77b4" stroke="#1f77b4" stroke-linejoin="miter"/></g><g id="patch_11"><path id="path1346" d="M160.053 164.347a24.093 24.093 0 100-48.185 24.093 24.093 0 000 48.185z" clip-path="url(#pf179273236)" opacity=".5" fill="#1f77b4" stroke="#1f77b4" stroke-linejoin="miter"/></g><g id="patch_12"><path id="path1349" d="M185.76 138.64a24.093 24.093 0 100-48.184 24.093 24.093 0 000 48.185z" clip-path="url(#pf179273236)" opacity=".5" fill="#1f77b4" stroke="#1f77b4" stroke-linejoin="miter"/></g><g id="patch_13"><path id="path1352" d="M185.76 190.054a24.093 24.093 0 100-48.185 24.093 24.093 0 000 48.185z" clip-path="url(#pf179273236)" opacity=".5" fill="#1f77b4" stroke="#1f77b4" stroke-linejoin="miter"/></g><g id="patch_14"><path id="path1355" d="M264.982 62.067a1.033 1.033 0 100-2.066 1.033 1.033 0 000 2.066z" clip-path="url(#pf179273236)" opacity=".5" fill="#1f77b4" stroke="#1f77b4" stroke-linejoin="miter"/></g><g id="patch_15"><path id="path1358" d="M106.538 62.067a1.033 1.033 0 100-2.066 1.033 1.033 0 000 2.066z" clip-path="url(#pf179273236)" opacity=".5" fill="#1f77b4" stroke="#1f77b4" stroke-linejoin="miter"/></g><g id="patch_16"><path id="path1361" d="M264.982 220.511a1.033 1.033 0 100-2.066 1.033 1.033 0 000 2.066z" clip-path="url(#pf179273236)" opacity=".5" fill="#1f77b4" stroke="#1f77b4" stroke-linejoin="miter"/></g><g id="patch_17"><path id="path1364" d="M106.538 220.511a1.033 1.033 0 100-2.066 1.033 1.033 0 000 2.066z" clip-path="url(#pf179273236)" opacity=".5" fill="#1f77b4" stroke="#1f77b4" stroke-linejoin="miter"/></g><g id="patch_18"><path id="path1367" d="M226.217 112.723a12.925 12.925 0 100-25.85 12.925 12.925 0 000 25.85z" clip-path="url(#pf179273236)" opacity=".5" fill="#1f77b4" stroke="#1f77b4" stroke-linejoin="miter"/></g><g id="patch_19"><path id="path1370" d="M145.303 112.723a12.925 12.925 0 100-25.85 12.925 12.925 0 000 25.85z" clip-path="url(#pf179273236)" opacity=".5" fill="#1f77b4" stroke="#1f77b4" stroke-linejoin="miter"/></g><g id="patch_20"><path id="path1373" d="M226.217 193.637a12.925 12.925 0 100-25.85 12.925 12.925 0 000 25.85z" clip-path="url(#pf179273236)" opacity=".5" fill="#1f77b4" stroke="#1f77b4" stroke-linejoin="miter"/></g><g id="patch_21"><path id="path1376" d="M145.303 193.637a12.925 12.925 0 100-25.85 12.925 12.925 0 000 25.85z" clip-path="url(#pf179273236)" opacity=".5" fill="#1f77b4" stroke="#1f77b4" stroke-linejoin="miter"/></g><g id="patch_22"><path id="path1379" d="M271.53 107.108a2.883 2.883 0 100-5.766 2.883 2.883 0 000 5.766z" clip-path="url(#pf179273236)" opacity=".5" fill="#1f77b4" stroke="#1f77b4" stroke-linejoin="miter"/></g><g id="patch_23"><path id="path1382" d="M99.99 107.108a2.883 2.883 0 100-5.766 2.883 2.883 0 000 5.766z" clip-path="url(#pf179273236)" opacity=".5" fill="#1f77b4" stroke="#1f77b4" stroke-linejoin="miter"/></g><g id="patch_24"><path id="path1385" d="M271.53 179.17a2.883 2.883 0 100-5.767 2.883 2.883 0 000 5.767z" clip-path="url(#pf179273236)" opacity=".5" fill="#1f77b4" stroke="#1f77b4" stroke-linejoin="miter"/></g><g id="patch_25"><path id="path1388" d="M99.99 179.17a2.883 2.883 0 100-5.767 2.883 2.883 0 000 5.767z" clip-path="url(#pf179273236)" opacity=".5" fill="#1f77b4" stroke="#1f77b4" stroke-linejoin="miter"/></g><g id="patch_26"><path id="path1391" d="M221.79 57.369a2.883 2.883 0 100-5.767 2.883 2.883 0 000 5.767z" clip-path="url(#pf179273236)" opacity=".5" fill="#1f77b4" stroke="#1f77b4" stroke-linejoin="miter"/></g><g id="patch_27"><path id="path1394" d="M149.73 57.369a2.883 2.883 0 100-5.767 2.883 2.883 0 000 5.767z" clip-path="url(#pf179273236)" opacity=".5" fill="#1f77b4" stroke="#1f77b4" stroke-linejoin="miter"/></g><g id="patch_28"><path id="path1397" d="M221.79 228.91a2.883 2.883 0 100-5.767 2.883 2.883 0 000 5.766z" clip-path="url(#pf179273236)" opacity=".5" fill="#1f77b4" stroke="#1f77b4" stroke-linejoin="miter"/></g><g id="patch_29"><path id="path1400" d="M149.73 228.91a2.883 2.883 0 100-5.767 2.883 2.883 0 000 5.766z" clip-path="url(#pf179273236)" opacity=".5" fill="#1f77b4" stroke="#1f77b4" stroke-linejoin="miter"/></g><g id="line2d_1"><defs id="defs1404"><path id="ma4975acec4" d="M0 1.5a1.5 1.5 0 100-3 1.5 1.5 0 000 3z" stroke="#1f77b4"/></defs><g id="g1408" clip-path="url(#pf179273236)"><use height="100%" width="100%" id="use1406" y="140.256" xlink:href="#ma4975acec4" x="306.72" fill="#1f77b4" stroke="#1f77b4"/></g></g><g id="line2d_2"><g id="g1413" clip-path="url(#pf179273236)"><use height="100%" width="100%" id="use1411" y="140.256" xlink:href="#ma4975acec4" x="64.8" fill="#1f77b4" stroke="#1f77b4"/></g></g><g id="line2d_3"><g id="g1418" clip-path="url(#pf179273236)"><use height="100%" width="100%" id="use1416" y="19.296" xlink:href="#ma4975acec4" x="185.76" fill="#1f77b4" stroke="#1f77b4"/></g></g><g id="line2d_4"><g id="g1423" clip-path="url(#pf179273236)"><use height="100%" width="100%" id="use1421" y="261.216" xlink:href="#ma4975acec4" x="185.76" fill="#1f77b4" stroke="#1f77b4"/></g></g><g id="line2d_5"><g id="g1428" clip-path="url(#pf179273236)"><use height="100%" width="100%" id="use1426" y="140.256" xlink:href="#ma4975acec4" x="249.342" fill="#1f77b4" stroke="#1f77b4"/></g></g><g id="line2d_6"><g id="g1433" clip-path="url(#pf179273236)"><use height="100%" width="100%" id="use1431" y="140.256" xlink:href="#ma4975acec4" x="122.178" fill="#1f77b4" stroke="#1f77b4"/></g></g><g id="line2d_7"><g id="g1438" clip-path="url(#pf179273236)"><use height="100%" width="100%" id="use1436" y="76.674" xlink:href="#ma4975acec4" x="185.76" fill="#1f77b4" stroke="#1f77b4"/></g></g><g id="line2d_8"><g id="g1443" clip-path="url(#pf179273236)"><use height="100%" width="100%" id="use1441" y="203.838" xlink:href="#ma4975acec4" x="185.76" fill="#1f77b4" stroke="#1f77b4"/></g></g><g id="line2d_9"><g id="g1448" clip-path="url(#pf179273236)"><use height="100%" width="100%" id="use1446" y="140.256" xlink:href="#ma4975acec4" x="211.467" fill="#1f77b4" stroke="#1f77b4"/></g></g><g id="line2d_10"><g id="g1453" clip-path="url(#pf179273236)"><use height="100%" width="100%" id="use1451" y="140.256" xlink:href="#ma4975acec4" x="160.053" fill="#1f77b4" stroke="#1f77b4"/></g></g><g id="line2d_11"><g id="g1458" clip-path="url(#pf179273236)"><use height="100%" width="100%" id="use1456" y="114.549" xlink:href="#ma4975acec4" x="185.76" fill="#1f77b4" stroke="#1f77b4"/></g></g><g id="line2d_12"><g id="g1463" clip-path="url(#pf179273236)"><use height="100%" width="100%" id="use1461" y="165.963" xlink:href="#ma4975acec4" x="185.76" fill="#1f77b4" stroke="#1f77b4"/></g></g><g id="line2d_13"><g id="g1468" clip-path="url(#pf179273236)"><use height="100%" width="100%" id="use1466" y="61.034" xlink:href="#ma4975acec4" x="264.982" fill="#1f77b4" stroke="#1f77b4"/></g></g><g id="line2d_14"><g id="g1473" clip-path="url(#pf179273236)"><use height="100%" width="100%" id="use1471" y="61.034" xlink:href="#ma4975acec4" x="106.538" fill="#1f77b4" stroke="#1f77b4"/></g></g><g id="line2d_15"><g id="g1478" clip-path="url(#pf179273236)"><use height="100%" width="100%" id="use1476" y="219.478" xlink:href="#ma4975acec4" x="264.982" fill="#1f77b4" stroke="#1f77b4"/></g></g><g id="line2d_16"><g id="g1483" clip-path="url(#pf179273236)"><use height="100%" width="100%" id="use1481" y="219.478" xlink:href="#ma4975acec4" x="106.538" fill="#1f77b4" stroke="#1f77b4"/></g></g><g id="line2d_17"><g id="g1488" clip-path="url(#pf179273236)"><use height="100%" width="100%" id="use1486" y="99.799" xlink:href="#ma4975acec4" x="226.217" fill="#1f77b4" stroke="#1f77b4"/></g></g><g id="line2d_18"><g id="g1493" clip-path="url(#pf179273236)"><use height="100%" width="100%" id="use1491" y="99.799" xlink:href="#ma4975acec4" x="145.303" fill="#1f77b4" stroke="#1f77b4"/></g></g><g id="line2d_19"><g id="g1498" clip-path="url(#pf179273236)"><use height="100%" width="100%" id="use1496" y="180.713" xlink:href="#ma4975acec4" x="226.217" fill="#1f77b4" stroke="#1f77b4"/></g></g><g id="line2d_20"><g id="g1503" clip-path="url(#pf179273236)"><use height="100%" width="100%" id="use1501" y="180.713" xlink:href="#ma4975acec4" x="145.303" fill="#1f77b4" stroke="#1f77b4"/></g></g><g id="line2d_21"><g id="g1508" clip-path="url(#pf179273236)"><use height="100%" width="100%" id="use1506" y="104.225" xlink:href="#ma4975acec4" x="271.53" fill="#1f77b4" stroke="#1f77b4"/></g></g><g id="line2d_22"><g id="g1513" clip-path="url(#pf179273236)"><use height="100%" width="100%" id="use1511" y="104.225" xlink:href="#ma4975acec4" x="99.99" fill="#1f77b4" stroke="#1f77b4"/></g></g><g id="line2d_23"><g id="g1518" clip-path="url(#pf179273236)"><use height="100%" width="100%" id="use1516" y="176.287" xlink:href="#ma4975acec4" x="271.53" fill="#1f77b4" stroke="#1f77b4"/></g></g><g id="line2d_24"><g id="g1523" clip-path="url(#pf179273236)"><use height="100%" width="100%" id="use1521" y="176.287" xlink:href="#ma4975acec4" x="99.99" fill="#1f77b4" stroke="#1f77b4"/></g></g><g id="line2d_25"><g id="g1528" clip-path="url(#pf179273236)"><use height="100%" width="100%" id="use1526" y="54.486" xlink:href="#ma4975acec4" x="221.791" fill="#1f77b4" stroke="#1f77b4"/></g></g><g id="line2d_26"><g id="g1533" clip-path="url(#pf179273236)"><use height="100%" width="100%" id="use1531" y="54.486" xlink:href="#ma4975acec4" x="149.729" fill="#1f77b4" stroke="#1f77b4"/></g></g><g id="line2d_27"><g id="g1538" clip-path="url(#pf179273236)"><use height="100%" width="100%" id="use1536" y="226.026" xlink:href="#ma4975acec4" x="221.791" fill="#1f77b4" stroke="#1f77b4"/></g></g><g id="line2d_28"><g id="g1543" clip-path="url(#pf179273236)"><use height="100%" width="100%" id="use1541" y="226.026" xlink:href="#ma4975acec4" x="149.729" fill="#1f77b4" stroke="#1f77b4"/></g></g></g></g><defs id="defs1551"><clipPath id="pf179273236"><path id="rect1548" d="M7.2 7.2h357.12v266.112H7.2z"/></clipPath></defs></svg>