<svg xmlns="http://www.w3.org/2000/svg" xmlns:xlink="http://www.w3.org/1999/xlink" id="svg2108" width="435.232" viewBox="0 0 326.424 25.796" version="1.1" height="34.395"><defs id="defs1933"><style id="style1931" type="text/css">*{stroke-linecap:butt;stroke-linejoin:round}</style></defs><g transform="translate(-22.548 -127.358)" id="figure_1"><g id="axes_1"><g id="patch_2"><path id="path1935" d="M24.548 141.686a1.43 1.43 0 100-2.86 1.43 1.43 0 000 2.86z" clip-path="url(#p191699df28)" opacity=".5" fill="#1f77b4" stroke="#1f77b4" stroke-linejoin="miter"/></g><g id="patch_3"><path id="path1938" d="M29.281 143.551a3.296 3.296 0 100-6.59 3.296 3.296 0 000 6.59z" clip-path="url(#p191699df28)" opacity=".5" fill="#1f77b4" stroke="#1f77b4" stroke-linejoin="miter"/></g><g id="patch_4"><path id="path1941" d="M37.68 145.343a5.087 5.087 0 100-10.174 5.087 5.087 0 000 10.174z" clip-path="url(#p191699df28)" opacity=".5" fill="#1f77b4" stroke="#1f77b4" stroke-linejoin="miter"/></g><g id="patch_5"><path id="path1944" d="M49.548 147.015a6.76 6.76 0 100-13.519 6.76 6.76 0 000 13.519z" clip-path="url(#p191699df28)" opacity=".5" fill="#1f77b4" stroke="#1f77b4" stroke-linejoin="miter"/></g><g id="patch_6"><path id="path1947" d="M64.61 148.529a8.273 8.273 0 100-16.547 8.273 8.273 0 000 16.547z" clip-path="url(#p191699df28)" opacity=".5" fill="#1f77b4" stroke="#1f77b4" stroke-linejoin="miter"/></g><g id="patch_7"><path id="path1950" d="M82.511 149.85a9.594 9.594 0 100-19.188 9.594 9.594 0 000 19.187z" clip-path="url(#p191699df28)" opacity=".5" fill="#1f77b4" stroke="#1f77b4" stroke-linejoin="miter"/></g><g id="patch_8"><path id="path1953" d="M102.832 150.944a10.689 10.689 0 100-21.377 10.689 10.689 0 000 21.377z" clip-path="url(#p191699df28)" opacity=".5" fill="#1f77b4" stroke="#1f77b4" stroke-linejoin="miter"/></g><g id="patch_9"><path id="path1956" d="M125.097 151.789a11.534 11.534 0 100-23.067 11.534 11.534 0 000 23.067z" clip-path="url(#p191699df28)" opacity=".5" fill="#1f77b4" stroke="#1f77b4" stroke-linejoin="miter"/></g><g id="patch_10"><path id="path1959" d="M148.784 152.363a12.108 12.108 0 100-24.215 12.108 12.108 0 000 24.215z" clip-path="url(#p191699df28)" opacity=".5" fill="#1f77b4" stroke="#1f77b4" stroke-linejoin="miter"/></g><g id="patch_11"><path id="path1962" d="M173.338 152.654a12.399 12.399 0 100-24.797 12.399 12.399 0 000 24.797z" clip-path="url(#p191699df28)" opacity=".5" fill="#1f77b4" stroke="#1f77b4" stroke-linejoin="miter"/></g><g id="patch_12"><path id="path1965" d="M198.182 152.654a12.399 12.399 0 100-24.797 12.399 12.399 0 000 24.797z" clip-path="url(#p191699df28)" opacity=".5" fill="#1f77b4" stroke="#1f77b4" stroke-linejoin="miter"/></g><g id="patch_13"><path id="path1968" d="M222.736 152.363a12.108 12.108 0 100-24.216 12.108 12.108 0 000 24.216z" clip-path="url(#p191699df28)" opacity=".5" fill="#1f77b4" stroke="#1f77b4" stroke-linejoin="miter"/></g><g id="patch_14"><path id="path1971" d="M246.423 151.789a11.534 11.534 0 100-23.067 11.534 11.534 0 000 23.067z" clip-path="url(#p191699df28)" opacity=".5" fill="#1f77b4" stroke="#1f77b4" stroke-linejoin="miter"/></g><g id="patch_15"><path id="path1974" d="M268.688 150.944a10.689 10.689 0 100-21.377 10.689 10.689 0 000 21.377z" clip-path="url(#p191699df28)" opacity=".5" fill="#1f77b4" stroke="#1f77b4" stroke-linejoin="miter"/></g><g id="patch_16"><path id="path1977" d="M289.009 149.85a9.594 9.594 0 100-19.188 9.594 9.594 0 000 19.187z" clip-path="url(#p191699df28)" opacity=".5" fill="#1f77b4" stroke="#1f77b4" stroke-linejoin="miter"/></g><g id="patch_17"><path id="path1980" d="M306.91 148.529a8.273 8.273 0 100-16.547 8.273 8.273 0 000 16.547z" clip-path="url(#p191699df28)" opacity=".5" fill="#1f77b4" stroke="#1f77b4" stroke-linejoin="miter"/></g><g id="patch_18"><path id="path1983" d="M321.972 147.015a6.76 6.76 0 100-13.519 6.76 6.76 0 000 13.519z" clip-path="url(#p191699df28)" opacity=".5" fill="#1f77b4" stroke="#1f77b4" stroke-linejoin="miter"/></g><g id="patch_19"><path id="path1986" d="M333.84 145.343a5.087 5.087 0 100-10.174 5.087 5.087 0 000 10.174z" clip-path="url(#p191699df28)" opacity=".5" fill="#1f77b4" stroke="#1f77b4" stroke-linejoin="miter"/></g><g id="patch_20"><path id="path1989" d="M342.239 143.551a3.295 3.295 0 100-6.59 3.295 3.295 0 000 6.59z" clip-path="url(#p191699df28)" opacity=".5" fill="#1f77b4" stroke="#1f77b4" stroke-linejoin="miter"/></g><g id="patch_21"><path id="path1992" d="M346.972 141.686a1.43 1.43 0 100-2.86 1.43 1.43 0 000 2.86z" clip-path="url(#p191699df28)" opacity=".5" fill="#1f77b4" stroke="#1f77b4" stroke-linejoin="miter"/></g><g id="line2d_1"><path id="path1995" d="M23.433 140.256h324.654" clip-path="url(#p191699df28)" fill="none" stroke="#000" stroke-width="1.5" stroke-linecap="square"/></g><g id="line2d_2"><defs id="defs1999"><path id="m170fcf41c8" d="M0 1.5a1.5 1.5 0 100-3 1.5 1.5 0 000 3z" stroke="#1f77b4"/></defs><g id="g2003" clip-path="url(#p191699df28)"><use height="100%" width="100%" id="use2001" y="140.256" xlink:href="#m170fcf41c8" x="24.548" fill="#1f77b4" stroke="#1f77b4"/></g></g><g id="line2d_3"><g id="g2008" clip-path="url(#p191699df28)"><use height="100%" width="100%" id="use2006" y="140.256" xlink:href="#m170fcf41c8" x="29.281" fill="#1f77b4" stroke="#1f77b4"/></g></g><g id="line2d_4"><g id="g2013" clip-path="url(#p191699df28)"><use height="100%" width="100%" id="use2011" y="140.256" xlink:href="#m170fcf41c8" x="37.679" fill="#1f77b4" stroke="#1f77b4"/></g></g><g id="line2d_5"><g id="g2018" clip-path="url(#p191699df28)"><use height="100%" width="100%" id="use2016" y="140.256" xlink:href="#m170fcf41c8" x="49.548" fill="#1f77b4" stroke="#1f77b4"/></g></g><g id="line2d_6"><g id="g2023" clip-path="url(#p191699df28)"><use height="100%" width="100%" id="use2021" y="140.256" xlink:href="#m170fcf41c8" x="64.61" fill="#1f77b4" stroke="#1f77b4"/></g></g><g id="line2d_7"><g id="g2028" clip-path="url(#p191699df28)"><use height="100%" width="100%" id="use2026" y="140.256" xlink:href="#m170fcf41c8" x="82.511" fill="#1f77b4" stroke="#1f77b4"/></g></g><g id="line2d_8"><g id="g2033" clip-path="url(#p191699df28)"><use height="100%" width="100%" id="use2031" y="140.256" xlink:href="#m170fcf41c8" x="102.832" fill="#1f77b4" stroke="#1f77b4"/></g></g><g id="line2d_9"><g id="g2038" clip-path="url(#p191699df28)"><use height="100%" width="100%" id="use2036" y="140.256" xlink:href="#m170fcf41c8" x="125.097" fill="#1f77b4" stroke="#1f77b4"/></g></g><g id="line2d_10"><g id="g2043" clip-path="url(#p191699df28)"><use height="100%" width="100%" id="use2041" y="140.256" xlink:href="#m170fcf41c8" x="148.784" fill="#1f77b4" stroke="#1f77b4"/></g></g><g id="line2d_11"><g id="g2048" clip-path="url(#p191699df28)"><use height="100%" width="100%" id="use2046" y="140.256" xlink:href="#m170fcf41c8" x="173.338" fill="#1f77b4" stroke="#1f77b4"/></g></g><g id="line2d_12"><g id="g2053" clip-path="url(#p191699df28)"><use height="100%" width="100%" id="use2051" y="140.256" xlink:href="#m170fcf41c8" x="198.182" fill="#1f77b4" stroke="#1f77b4"/></g></g><g id="line2d_13"><g id="g2058" clip-path="url(#p191699df28)"><use height="100%" width="100%" id="use2056" y="140.256" xlink:href="#m170fcf41c8" x="222.736" fill="#1f77b4" stroke="#1f77b4"/></g></g><g id="line2d_14"><g id="g2063" clip-path="url(#p191699df28)"><use height="100%" width="100%" id="use2061" y="140.256" xlink:href="#m170fcf41c8" x="246.423" fill="#1f77b4" stroke="#1f77b4"/></g></g><g id="line2d_15"><g id="g2068" clip-path="url(#p191699df28)"><use height="100%" width="100%" id="use2066" y="140.256" xlink:href="#m170fcf41c8" x="268.688" fill="#1f77b4" stroke="#1f77b4"/></g></g><g id="line2d_16"><g id="g2073" clip-path="url(#p191699df28)"><use height="100%" width="100%" id="use2071" y="140.256" xlink:href="#m170fcf41c8" x="289.009" fill="#1f77b4" stroke="#1f77b4"/></g></g><g id="line2d_17"><g id="g2078" clip-path="url(#p191699df28)"><use height="100%" width="100%" id="use2076" y="140.256" xlink:href="#m170fcf41c8" x="306.91" fill="#1f77b4" stroke="#1f77b4"/></g></g><g id="line2d_18"><g id="g2083" clip-path="url(#p191699df28)"><use height="100%" width="100%" id="use2081" y="140.256" xlink:href="#m170fcf41c8" x="321.972" fill="#1f77b4" stroke="#1f77b4"/></g></g><g id="line2d_19"><g id="g2088" clip-path="url(#p191699df28)"><use height="100%" width="100%" id="use2086" y="140.256" xlink:href="#m170fcf41c8" x="333.841" fill="#1f77b4" stroke="#1f77b4"/></g></g><g id="line2d_20"><g id="g2093" clip-path="url(#p191699df28)"><use height="100%" width="100%" id="use2091" y="140.256" xlink:href="#m170fcf41c8" x="342.239" fill="#1f77b4" stroke="#1f77b4"/></g></g><g id="line2d_21"><g id="g2098" clip-path="url(#p191699df28)"><use height="100%" width="100%" id="use2096" y="140.256" xlink:href="#m170fcf41c8" x="346.972" fill="#1f77b4" stroke="#1f77b4"/></g></g></g></g><defs id="defs2106"><clipPath id="p191699df28"><path id="rect2103" d="M7.2 7.2h357.12v266.112H7.2z"/></clipPath></defs></svg>