<svg xmlns="http://www.w3.org/2000/svg" xmlns:xlink="http://www.w3.org/1999/xlink" id="svg1471" width="435.232" viewBox="0 0 326.424 24.796" version="1.1" height="33.061"><defs id="defs1296"><style id="style1294" type="text/css">*{stroke-linecap:butt;stroke-linejoin:round}</style></defs><g transform="translate(-15.348 -120.658)" id="figure_1"><g id="axes_1"><g id="patch_2"><path id="path1298" d="M17.348 134.486a1.43 1.43 0 1 0 0-2.86 1.43 1.43 0 0 0 0 2.86z" clip-path="url(#pa327e70cd8)" opacity=".5" fill="#1f77b4"/></g><g id="patch_3"><path id="path1301" d="M22.081 136.351a3.296 3.296 0 1 0 0-6.59 3.296 3.296 0 0 0 0 6.59z" clip-path="url(#pa327e70cd8)" opacity=".5" fill="#1f77b4"/></g><g id="patch_4"><path id="path1304" d="M30.48 138.143a5.087 5.087 0 1 0 0-10.174 5.087 5.087 0 0 0 0 10.174z" clip-path="url(#pa327e70cd8)" opacity=".5" fill="#1f77b4"/></g><g id="patch_5"><path id="path1307" d="M42.348 139.815a6.76 6.76 0 1 0 0-13.519 6.76 6.76 0 0 0 0 13.519z" clip-path="url(#pa327e70cd8)" opacity=".5" fill="#1f77b4"/></g><g id="patch_6"><path id="path1310" d="M57.41 141.329a8.273 8.273 0 1 0 0-16.547 8.273 8.273 0 0 0 0 16.547z" clip-path="url(#pa327e70cd8)" opacity=".5" fill="#1f77b4"/></g><g id="patch_7"><path id="path1313" d="M75.311 142.65a9.594 9.594 0 1 0 0-19.188 9.594 9.594 0 0 0 0 19.187z" clip-path="url(#pa327e70cd8)" opacity=".5" fill="#1f77b4"/></g><g id="patch_8"><path id="path1316" d="M95.632 143.744a10.689 10.689 0 1 0 0-21.377 10.689 10.689 0 0 0 0 21.377z" clip-path="url(#pa327e70cd8)" opacity=".5" fill="#1f77b4"/></g><g id="patch_9"><path id="path1319" d="M117.897 144.589a11.534 11.534 0 1 0 0-23.067 11.534 11.534 0 0 0 0 23.067z" clip-path="url(#pa327e70cd8)" opacity=".5" fill="#1f77b4"/></g><g id="patch_10"><path id="path1322" d="M141.584 145.163a12.108 12.108 0 1 0 0-24.215 12.108 12.108 0 0 0 0 24.215z" clip-path="url(#pa327e70cd8)" opacity=".5" fill="#1f77b4"/></g><g id="patch_11"><path id="path1325" d="M166.138 145.454a12.399 12.399 0 1 0 0-24.797 12.399 12.399 0 0 0 0 24.797z" clip-path="url(#pa327e70cd8)" opacity=".5" fill="#1f77b4"/></g><g id="patch_12"><path id="path1328" d="M190.982 145.454a12.399 12.399 0 1 0 0-24.797 12.399 12.399 0 0 0 0 24.797z" clip-path="url(#pa327e70cd8)" opacity=".5" fill="#1f77b4"/></g><g id="patch_13"><path id="path1331" d="M215.536 145.163a12.108 12.108 0 1 0 0-24.216 12.108 12.108 0 0 0 0 24.216z" clip-path="url(#pa327e70cd8)" opacity=".5" fill="#1f77b4"/></g><g id="patch_14"><path id="path1334" d="M239.223 144.589a11.534 11.534 0 1 0 0-23.067 11.534 11.534 0 0 0 0 23.067z" clip-path="url(#pa327e70cd8)" opacity=".5" fill="#1f77b4"/></g><g id="patch_15"><path id="path1337" d="M261.488 143.744a10.689 10.689 0 1 0 0-21.377 10.689 10.689 0 0 0 0 21.377z" clip-path="url(#pa327e70cd8)" opacity=".5" fill="#1f77b4"/></g><g id="patch_16"><path id="path1340" d="M281.809 142.65a9.594 9.594 0 1 0 0-19.188 9.594 9.594 0 0 0 0 19.187z" clip-path="url(#pa327e70cd8)" opacity=".5" fill="#1f77b4"/></g><g id="patch_17"><path id="path1343" d="M299.71 141.329a8.273 8.273 0 1 0 0-16.547 8.273 8.273 0 0 0 0 16.547z" clip-path="url(#pa327e70cd8)" opacity=".5" fill="#1f77b4"/></g><g id="patch_18"><path id="path1346" d="M314.772 139.815a6.76 6.76 0 1 0 0-13.519 6.76 6.76 0 0 0 0 13.519z" clip-path="url(#pa327e70cd8)" opacity=".5" fill="#1f77b4"/></g><g id="patch_19"><path id="path1349" d="M326.64 138.143a5.087 5.087 0 1 0 0-10.174 5.087 5.087 0 0 0 0 10.174z" clip-path="url(#pa327e70cd8)" opacity=".5" fill="#1f77b4"/></g><g id="patch_20"><path id="path1352" d="M335.039 136.351a3.295 3.295 0 1 0 0-6.59 3.295 3.295 0 0 0 0 6.59z" clip-path="url(#pa327e70cd8)" opacity=".5" fill="#1f77b4"/></g><g id="patch_21"><path id="path1355" d="M339.772 134.486a1.43 1.43 0 1 0 0-2.86 1.43 1.43 0 0 0 0 2.86z" clip-path="url(#pa327e70cd8)" opacity=".5" fill="#1f77b4"/></g><g id="line2d_1"><path id="path1358" d="M16.233 133.056h324.654" clip-path="url(#pa327e70cd8)" fill="none" stroke="#000" stroke-width="1.5" stroke-linecap="square"/></g><g id="line2d_2"><defs id="defs1362"><path id="ma714a5bd34" d="M0 1.5a1.5 1.5 0 1 0 0-3 1.5 1.5 0 0 0 0 3z" stroke="#1f77b4"/></defs><g id="g1366" clip-path="url(#pa327e70cd8)"><use height="100%" width="100%" id="use1364" y="133.056" xlink:href="#ma714a5bd34" x="17.348" fill="#1f77b4" stroke="#1f77b4"/></g></g><g id="line2d_3"><g id="g1371" clip-path="url(#pa327e70cd8)"><use height="100%" width="100%" id="use1369" y="133.056" xlink:href="#ma714a5bd34" x="22.081" fill="#1f77b4" stroke="#1f77b4"/></g></g><g id="line2d_4"><g id="g1376" clip-path="url(#pa327e70cd8)"><use height="100%" width="100%" id="use1374" y="133.056" xlink:href="#ma714a5bd34" x="30.479" fill="#1f77b4" stroke="#1f77b4"/></g></g><g id="line2d_5"><g id="g1381" clip-path="url(#pa327e70cd8)"><use height="100%" width="100%" id="use1379" y="133.056" xlink:href="#ma714a5bd34" x="42.348" fill="#1f77b4" stroke="#1f77b4"/></g></g><g id="line2d_6"><g id="g1386" clip-path="url(#pa327e70cd8)"><use height="100%" width="100%" id="use1384" y="133.056" xlink:href="#ma714a5bd34" x="57.41" fill="#1f77b4" stroke="#1f77b4"/></g></g><g id="line2d_7"><g id="g1391" clip-path="url(#pa327e70cd8)"><use height="100%" width="100%" id="use1389" y="133.056" xlink:href="#ma714a5bd34" x="75.311" fill="#1f77b4" stroke="#1f77b4"/></g></g><g id="line2d_8"><g id="g1396" clip-path="url(#pa327e70cd8)"><use height="100%" width="100%" id="use1394" y="133.056" xlink:href="#ma714a5bd34" x="95.632" fill="#1f77b4" stroke="#1f77b4"/></g></g><g id="line2d_9"><g id="g1401" clip-path="url(#pa327e70cd8)"><use height="100%" width="100%" id="use1399" y="133.056" xlink:href="#ma714a5bd34" x="117.897" fill="#1f77b4" stroke="#1f77b4"/></g></g><g id="line2d_10"><g id="g1406" clip-path="url(#pa327e70cd8)"><use height="100%" width="100%" id="use1404" y="133.056" xlink:href="#ma714a5bd34" x="141.584" fill="#1f77b4" stroke="#1f77b4"/></g></g><g id="line2d_11"><g id="g1411" clip-path="url(#pa327e70cd8)"><use height="100%" width="100%" id="use1409" y="133.056" xlink:href="#ma714a5bd34" x="166.138" fill="#1f77b4" stroke="#1f77b4"/></g></g><g id="line2d_12"><g id="g1416" clip-path="url(#pa327e70cd8)"><use height="100%" width="100%" id="use1414" y="133.056" xlink:href="#ma714a5bd34" x="190.982" fill="#1f77b4" stroke="#1f77b4"/></g></g><g id="line2d_13"><g id="g1421" clip-path="url(#pa327e70cd8)"><use height="100%" width="100%" id="use1419" y="133.056" xlink:href="#ma714a5bd34" x="215.536" fill="#1f77b4" stroke="#1f77b4"/></g></g><g id="line2d_14"><g id="g1426" clip-path="url(#pa327e70cd8)"><use height="100%" width="100%" id="use1424" y="133.056" xlink:href="#ma714a5bd34" x="239.223" fill="#1f77b4" stroke="#1f77b4"/></g></g><g id="line2d_15"><g id="g1431" clip-path="url(#pa327e70cd8)"><use height="100%" width="100%" id="use1429" y="133.056" xlink:href="#ma714a5bd34" x="261.488" fill="#1f77b4" stroke="#1f77b4"/></g></g><g id="line2d_16"><g id="g1436" clip-path="url(#pa327e70cd8)"><use height="100%" width="100%" id="use1434" y="133.056" xlink:href="#ma714a5bd34" x="281.809" fill="#1f77b4" stroke="#1f77b4"/></g></g><g id="line2d_17"><g id="g1441" clip-path="url(#pa327e70cd8)"><use height="100%" width="100%" id="use1439" y="133.056" xlink:href="#ma714a5bd34" x="299.71" fill="#1f77b4" stroke="#1f77b4"/></g></g><g id="line2d_18"><g id="g1446" clip-path="url(#pa327e70cd8)"><use height="100%" width="100%" id="use1444" y="133.056" xlink:href="#ma714a5bd34" x="314.772" fill="#1f77b4" stroke="#1f77b4"/></g></g><g id="line2d_19"><g id="g1451" clip-path="url(#pa327e70cd8)"><use height="100%" width="100%" id="use1449" y="133.056" xlink:href="#ma714a5bd34" x="326.641" fill="#1f77b4" stroke="#1f77b4"/></g></g><g id="line2d_20"><g id="g1456" clip-path="url(#pa327e70cd8)"><use height="100%" width="100%" id="use1454" y="133.056" xlink:href="#ma714a5bd34" x="335.039" fill="#1f77b4" stroke="#1f77b4"/></g></g><g id="line2d_21"><g id="g1461" clip-path="url(#pa327e70cd8)"><use height="100%" width="100%" id="use1459" y="133.056" xlink:href="#ma714a5bd34" x="339.772" fill="#1f77b4" stroke="#1f77b4"/></g></g></g></g><defs id="defs1469"><clipPath id="pa327e70cd8"><path id="rect1466" d="M0 0h357.12v266.112H0z"/></clipPath></defs></svg>