<svg xmlns="http://www.w3.org/2000/svg" xmlns:xlink="http://www.w3.org/1999/xlink" height="56.983" viewBox="0 0 676.052 42.737" width="901.403" id="svg2"><defs id="defs4" stroke-linejoin="round" stroke-miterlimit="100000"><style id="style6">*{stroke-linecap:butt;stroke-linejoin:round;stroke-miterlimit:100000}</style></defs><g id="figure_1" stroke-linejoin="round" stroke-miterlimit="100000"><g id="axes_1"><g id="patch_2"><path clip-path="url(#pfedd7501e1)" d="M261.638 330.514a8.765 8.765 0 1 0 0-17.53 8.765 8.765 0 0 0 0 17.53z" id="path14" opacity=".5" fill="#00f" stroke="#00f" stroke-linejoin="miter" transform="translate(-252.374 -300.381)"/></g><g id="patch_3"><path clip-path="url(#pfedd7501e1)" d="M272.696 332.56a10.811 10.811 0 1 0 0-21.622 10.811 10.811 0 0 0 0 21.623z" id="path17" opacity=".5" fill="#00f" stroke="#00f" stroke-linejoin="miter" transform="translate(-252.374 -300.381)"/></g><g id="patch_4"><path clip-path="url(#pfedd7501e1)" d="M290.85 335.95a14.2 14.2 0 1 0 0-28.4 14.2 14.2 0 0 0 0 28.4z" id="path20" opacity=".5" fill="#00f" stroke="#00f" stroke-linejoin="miter" transform="translate(-252.374 -300.381)"/></g><g id="patch_5"><path clip-path="url(#pfedd7501e1)" d="M315.696 337.104a15.355 15.355 0 1 0 0-30.71 15.355 15.355 0 0 0 0 30.71z" id="path23" opacity=".5" fill="#00f" stroke="#00f" stroke-linejoin="miter" transform="translate(-252.374 -300.381)"/></g><g id="patch_6"><path clip-path="url(#pfedd7501e1)" d="M346.679 339.282a17.532 17.532 0 1 0-.001-35.065 17.532 17.532 0 0 0 0 35.065z" id="path26" opacity=".5" fill="#00f" stroke="#00f" stroke-linejoin="miter" transform="translate(-252.374 -300.381)"/></g><g id="patch_7"><path clip-path="url(#pfedd7501e1)" d="M383.105 340.026a18.277 18.277 0 1 0 0-36.554 18.277 18.277 0 0 0 0 36.554z" id="path29" opacity=".5" fill="#00f" stroke="#00f" stroke-linejoin="miter" transform="translate(-252.374 -300.381)"/></g><g id="patch_8"><path clip-path="url(#pfedd7501e1)" d="M424.163 341.388a19.64 19.64 0 1 0-.001-39.278 19.64 19.64 0 0 0 0 39.278z" id="path32" opacity=".5" fill="#00f" stroke="#00f" stroke-linejoin="miter" transform="translate(-252.374 -300.381)"/></g><g id="patch_9"><path clip-path="url(#pfedd7501e1)" d="M468.933 341.816a20.067 20.067 0 1 0 0-40.134 20.067 20.067 0 0 0 0 40.134z" id="path35" opacity=".5" fill="#00f" stroke="#00f" stroke-linejoin="miter" transform="translate(-252.374 -300.381)"/></g><g id="patch_10"><path clip-path="url(#pfedd7501e1)" d="M516.417 342.479a20.73 20.73 0 1 0 0-41.46 20.73 20.73 0 0 0 0 41.46z" id="path38" opacity=".5" fill="#00f" stroke="#00f" stroke-linejoin="miter" transform="translate(-252.374 -300.381)"/></g><g id="patch_11"><path clip-path="url(#pfedd7501e1)" d="M565.554 342.619a20.87 20.87 0 1 0 0-41.74 20.87 20.87 0 0 0 0 41.74z" id="path41" opacity=".5" fill="#00f" stroke="#00f" stroke-linejoin="miter" transform="translate(-252.374 -300.381)"/></g><g id="patch_12"><path clip-path="url(#pfedd7501e1)" d="M615.246 342.619a20.87 20.87 0 1 0 0-41.74 20.87 20.87 0 0 0 0 41.74z" id="path44" opacity=".5" fill="#00f" stroke="#00f" stroke-linejoin="miter" transform="translate(-252.374 -300.381)"/></g><g id="patch_13"><path clip-path="url(#pfedd7501e1)" d="M664.383 342.479a20.73 20.73 0 1 0-.001-41.46 20.73 20.73 0 0 0 0 41.46z" id="path47" opacity=".5" fill="#00f" stroke="#00f" stroke-linejoin="miter" transform="translate(-252.374 -300.381)"/></g><g id="patch_14"><path clip-path="url(#pfedd7501e1)" d="M711.867 341.816a20.067 20.067 0 1 0-.001-40.134 20.067 20.067 0 0 0 0 40.134z" id="path50" opacity=".5" fill="#00f" stroke="#00f" stroke-linejoin="miter" transform="translate(-252.374 -300.381)"/></g><g id="patch_15"><path clip-path="url(#pfedd7501e1)" d="M756.638 341.388a19.64 19.64 0 1 0-.001-39.278 19.64 19.64 0 0 0 0 39.278z" id="path53" opacity=".5" fill="#00f" stroke="#00f" stroke-linejoin="miter" transform="translate(-252.374 -300.381)"/></g><g id="patch_16"><path clip-path="url(#pfedd7501e1)" d="M797.695 340.026a18.277 18.277 0 1 0 0-36.553 18.277 18.277 0 0 0 0 36.553z" id="path56" opacity=".5" fill="#00f" stroke="#00f" stroke-linejoin="miter" transform="translate(-252.374 -300.381)"/></g><g id="patch_17"><path clip-path="url(#pfedd7501e1)" d="M834.121 339.282a17.532 17.532 0 1 0 0-35.065 17.532 17.532 0 0 0 0 35.065z" id="path59" opacity=".5" fill="#00f" stroke="#00f" stroke-linejoin="miter" transform="translate(-252.374 -300.381)"/></g><g id="patch_18"><path clip-path="url(#pfedd7501e1)" d="M865.104 337.104a15.355 15.355 0 1 0 0-30.71 15.355 15.355 0 0 0 0 30.71z" id="path62" opacity=".5" fill="#00f" stroke="#00f" stroke-linejoin="miter" transform="translate(-252.374 -300.381)"/></g><g id="patch_19"><path clip-path="url(#pfedd7501e1)" d="M889.95 335.95a14.2 14.2 0 1 0 0-28.4 14.2 14.2 0 0 0 0 28.4z" id="path65" opacity=".5" fill="#00f" stroke="#00f" stroke-linejoin="miter" transform="translate(-252.374 -300.381)"/></g><g id="patch_20"><path clip-path="url(#pfedd7501e1)" d="M908.104 332.56a10.811 10.811 0 1 0 0-21.622 10.811 10.811 0 0 0 0 21.623z" id="path68" opacity=".5" fill="#00f" stroke="#00f" stroke-linejoin="miter" transform="translate(-252.374 -300.381)"/></g><g id="patch_21"><path clip-path="url(#pfedd7501e1)" d="M919.162 330.514a8.765 8.765 0 1 0 0-17.53 8.765 8.765 0 0 0 0 17.53z" id="path71" opacity=".5" fill="#00f" stroke="#00f" stroke-linejoin="miter" transform="translate(-252.374 -300.381)"/></g><g id="line2d_1"><path clip-path="url(#pfedd7501e1)" d="M257.925 321.75h664.95" id="path74" fill="none" stroke="#000" stroke-linecap="square" transform="translate(-252.374 -300.381)"/></g><g id="line2d_2" transform="translate(-252.374 -300.381)"><defs id="defs77"><path d="M0 1.5a1.5 1.5 0 1 0 0-3 1.5 1.5 0 0 0 0 3z" id="mc86f0cf8c2" stroke="#00f" stroke-width=".5"/></defs><g clip-path="url(#pfedd7501e1)" id="g80"><use x="261.638" xlink:href="#mc86f0cf8c2" y="321.75" id="use82" width="100%" height="100%" fill="#00f" stroke="#00f" stroke-width=".5"/></g></g><g id="line2d_3"><g clip-path="url(#pfedd7501e1)" id="g85" transform="translate(-252.374 -300.381)"><use x="272.696" xlink:href="#mc86f0cf8c2" y="321.75" id="use87" width="100%" height="100%" fill="#00f" stroke="#00f" stroke-width=".5"/></g></g><g id="line2d_4"><g clip-path="url(#pfedd7501e1)" id="g90" transform="translate(-252.374 -300.381)"><use x="290.85" xlink:href="#mc86f0cf8c2" y="321.75" id="use92" width="100%" height="100%" fill="#00f" stroke="#00f" stroke-width=".5"/></g></g><g id="line2d_5"><g clip-path="url(#pfedd7501e1)" id="g95" transform="translate(-252.374 -300.381)"><use x="315.696" xlink:href="#mc86f0cf8c2" y="321.75" id="use97" width="100%" height="100%" fill="#00f" stroke="#00f" stroke-width=".5"/></g></g><g id="line2d_6"><g clip-path="url(#pfedd7501e1)" id="g100" transform="translate(-252.374 -300.381)"><use x="346.679" xlink:href="#mc86f0cf8c2" y="321.75" id="use102" width="100%" height="100%" fill="#00f" stroke="#00f" stroke-width=".5"/></g></g><g id="line2d_7"><g clip-path="url(#pfedd7501e1)" id="g105" transform="translate(-252.374 -300.381)"><use x="383.105" xlink:href="#mc86f0cf8c2" y="321.75" id="use107" width="100%" height="100%" fill="#00f" stroke="#00f" stroke-width=".5"/></g></g><g id="line2d_8"><g clip-path="url(#pfedd7501e1)" id="g110" transform="translate(-252.374 -300.381)"><use x="424.163" xlink:href="#mc86f0cf8c2" y="321.75" id="use112" width="100%" height="100%" fill="#00f" stroke="#00f" stroke-width=".5"/></g></g><g id="line2d_9"><g clip-path="url(#pfedd7501e1)" id="g115" transform="translate(-252.374 -300.381)"><use x="468.933" xlink:href="#mc86f0cf8c2" y="321.75" id="use117" width="100%" height="100%" fill="#00f" stroke="#00f" stroke-width=".5"/></g></g><g id="line2d_10"><g clip-path="url(#pfedd7501e1)" id="g120" transform="translate(-252.374 -300.381)"><use x="516.417" xlink:href="#mc86f0cf8c2" y="321.75" id="use122" width="100%" height="100%" fill="#00f" stroke="#00f" stroke-width=".5"/></g></g><g id="line2d_11"><g clip-path="url(#pfedd7501e1)" id="g125" transform="translate(-252.374 -300.381)"><use x="565.554" xlink:href="#mc86f0cf8c2" y="321.75" id="use127" width="100%" height="100%" fill="#00f" stroke="#00f" stroke-width=".5"/></g></g><g id="line2d_12"><g clip-path="url(#pfedd7501e1)" id="g130" transform="translate(-252.374 -300.381)"><use x="615.246" xlink:href="#mc86f0cf8c2" y="321.75" id="use132" width="100%" height="100%" fill="#00f" stroke="#00f" stroke-width=".5"/></g></g><g id="line2d_13"><g clip-path="url(#pfedd7501e1)" id="g135" transform="translate(-252.374 -300.381)"><use x="664.383" xlink:href="#mc86f0cf8c2" y="321.75" id="use137" width="100%" height="100%" fill="#00f" stroke="#00f" stroke-width=".5"/></g></g><g id="line2d_14"><g clip-path="url(#pfedd7501e1)" id="g140" transform="translate(-252.374 -300.381)"><use x="711.867" xlink:href="#mc86f0cf8c2" y="321.75" id="use142" width="100%" height="100%" fill="#00f" stroke="#00f" stroke-width=".5"/></g></g><g id="line2d_15"><g clip-path="url(#pfedd7501e1)" id="g145" transform="translate(-252.374 -300.381)"><use x="756.638" xlink:href="#mc86f0cf8c2" y="321.75" id="use147" width="100%" height="100%" fill="#00f" stroke="#00f" stroke-width=".5"/></g></g><g id="line2d_16"><g clip-path="url(#pfedd7501e1)" id="g150" transform="translate(-252.374 -300.381)"><use x="797.695" xlink:href="#mc86f0cf8c2" y="321.75" id="use152" width="100%" height="100%" fill="#00f" stroke="#00f" stroke-width=".5"/></g></g><g id="line2d_17"><g clip-path="url(#pfedd7501e1)" id="g155" transform="translate(-252.374 -300.381)"><use x="834.121" xlink:href="#mc86f0cf8c2" y="321.75" id="use157" width="100%" height="100%" fill="#00f" stroke="#00f" stroke-width=".5"/></g></g><g id="line2d_18"><g clip-path="url(#pfedd7501e1)" id="g160" transform="translate(-252.374 -300.381)"><use x="865.104" xlink:href="#mc86f0cf8c2" y="321.75" id="use162" width="100%" height="100%" fill="#00f" stroke="#00f" stroke-width=".5"/></g></g><g id="line2d_19"><g clip-path="url(#pfedd7501e1)" id="g165" transform="translate(-252.374 -300.381)"><use x="889.95" xlink:href="#mc86f0cf8c2" y="321.75" id="use167" width="100%" height="100%" fill="#00f" stroke="#00f" stroke-width=".5"/></g></g><g id="line2d_20"><g clip-path="url(#pfedd7501e1)" id="g170" transform="translate(-252.374 -300.381)"><use x="908.104" xlink:href="#mc86f0cf8c2" y="321.75" id="use172" width="100%" height="100%" fill="#00f" stroke="#00f" stroke-width=".5"/></g></g><g id="line2d_21"><g clip-path="url(#pfedd7501e1)" id="g175" transform="translate(-252.374 -300.381)"><use x="919.162" xlink:href="#mc86f0cf8c2" y="321.75" id="use177" width="100%" height="100%" fill="#00f" stroke="#00f" stroke-width=".5"/></g></g></g></g><defs id="defs179"><clipPath id="pfedd7501e1" stroke-linejoin="round" stroke-miterlimit="100000"><path id="rect182" d="M144 64.35h892.8v514.8H144z"/></clipPath></defs></svg>