<svg xmlns="http://www.w3.org/2000/svg" height="347.808" viewBox="0 0 813.387 260.856" width="1084.516" id="svg135"><defs id="defs4" stroke-linejoin="round"><style id="style2">*{stroke-linecap:butt;stroke-linejoin:round}</style></defs><g id="figure_1" transform="translate(-55.332 -9.828)" stroke-linejoin="round"><g id="patch_1"><path d="M0 280.512h371.52V0H0z" id="path6" fill="none"/></g><g id="axes_1"><g id="patch_2"><path clip-path="url(#p34d53cf4c1)" d="M185.76 154.158a13.902 13.902 0 100-27.805 13.902 13.902 0 000 27.805z" id="path9" fill="#61ded4" stroke-linejoin="miter" stroke-opacity="0"/></g><g id="patch_3"><path clip-path="url(#p34d53cf4c1)" d="M250.685 188.912a48.658 48.658 0 0048.655-48.656A48.658 48.658 0 00250.685 91.6a48.658 48.658 0 00-48.656 48.656 48.658 48.658 0 0048.656 48.656z" id="path12" fill="#61ded4" stroke-linejoin="miter" stroke-opacity="0"/></g><g id="patch_4"><path clip-path="url(#p34d53cf4c1)" d="M120.835 188.912a48.658 48.658 0 0048.656-48.656A48.658 48.658 0 00120.835 91.6a48.658 48.658 0 00-48.655 48.656 48.658 48.658 0 0048.655 48.656z" id="path15" fill="#61ded4" stroke-linejoin="miter" stroke-opacity="0"/></g><g id="patch_5"><path clip-path="url(#p34d53cf4c1)" d="M185.76 123.987a48.658 48.658 0 0048.656-48.656 48.658 48.658 0 00-48.656-48.655 48.658 48.658 0 00-48.656 48.655 48.658 48.658 0 0048.656 48.656z" id="path18" fill="#61ded4" stroke-linejoin="miter" stroke-opacity="0"/></g><g id="patch_6"><path clip-path="url(#p34d53cf4c1)" d="M185.76 253.836a48.658 48.658 0 0048.656-48.655 48.658 48.658 0 00-48.656-48.656 48.658 48.658 0 00-48.656 48.656 48.658 48.658 0 0048.656 48.655z" id="path21" fill="#61ded4" stroke-linejoin="miter" stroke-opacity="0"/></g><g id="patch_7"><path clip-path="url(#p34d53cf4c1)" d="M288.823 103.346a27.367 27.367 0 0019.35-46.716 27.367 27.367 0 00-46.716 19.35 27.367 27.367 0 0027.366 27.366z" id="path24" fill="#61ded4" stroke-linejoin="miter" stroke-opacity="0"/></g><g id="patch_8"><path clip-path="url(#p34d53cf4c1)" d="M82.697 103.346a27.367 27.367 0 0019.35-46.716 27.367 27.367 0 00-46.715 19.35 27.367 27.367 0 0027.365 27.366z" id="path27" fill="#61ded4" stroke-linejoin="miter" stroke-opacity="0"/></g><g id="patch_9"><path clip-path="url(#p34d53cf4c1)" d="M288.823 231.897a27.367 27.367 0 0019.35-46.716 27.367 27.367 0 00-46.716 19.35 27.367 27.367 0 0027.366 27.366z" id="path30" fill="#61ded4" stroke-linejoin="miter" stroke-opacity="0"/></g><g id="patch_10"><path clip-path="url(#p34d53cf4c1)" d="M82.697 231.897a27.367 27.367 0 0019.35-46.716 27.367 27.367 0 00-46.715 19.35 27.367 27.367 0 0027.365 27.366z" id="path33" fill="#61ded4" stroke-linejoin="miter" stroke-opacity="0"/></g><g id="patch_11"><path clip-path="url(#p34d53cf4c1)" d="M250.036 64.559a27.367 27.367 0 0019.35-46.716 27.367 27.367 0 00-46.716 19.35 27.367 27.367 0 0027.366 27.366z" id="path36" fill="#61ded4" stroke-linejoin="miter" stroke-opacity="0"/></g><g id="patch_12"><path clip-path="url(#p34d53cf4c1)" d="M121.484 64.559a27.367 27.367 0 0019.35-46.716 27.367 27.367 0 00-46.715 19.35 27.367 27.367 0 0027.365 27.366z" id="path39" fill="#61ded4" stroke-linejoin="miter" stroke-opacity="0"/></g><g id="patch_13"><path clip-path="url(#p34d53cf4c1)" d="M250.036 270.684a27.367 27.367 0 0019.35-46.716 27.367 27.367 0 00-46.716 19.35 27.367 27.367 0 0027.366 27.366z" id="path42" fill="#61ded4" stroke-linejoin="miter" stroke-opacity="0"/></g><g id="patch_14"><path clip-path="url(#p34d53cf4c1)" d="M121.484 270.684a27.367 27.367 0 0019.35-46.716 27.367 27.367 0 00-46.715 19.35 27.367 27.367 0 0027.365 27.366z" id="path45" fill="#61ded4" stroke-linejoin="miter" stroke-opacity="0"/></g><g id="line2d_5"><defs id="defs61"><path d="M0 1.5a1.5 1.5 0 100-3 1.5 1.5 0 000 3z" id="ma7fa0c4b3c" stroke="#1f77b4"/></defs></g></g><g aria-label="quadpy" transform="matrix(.75 0 0 .75 -18.285 82.812)" style="line-height:0%;-inkscape-font-specification:'Commando Bold'" id="flowRoot4907" font-weight="700" font-size="197.333" font-family="Futura LT" letter-spacing="0" word-spacing="0" fill="#666" stroke-linejoin="round"><path d="M505.865 25.806v151.75H469.95v-60.187q-11.05 13.024-31.376 13.024-22.101 0-36.507-15.59-14.208-15.786-14.208-38.085 0-22.101 14.406-38.085 14.602-16.182 36.704-16.182 9.472 0 17.76 3.75 8.288 3.749 12.826 11.05h.395V25.806zm-41.046 34.533q-6.117-6.71-16.773-6.71-10.656 0-16.97 6.71-6.118 6.512-6.118 16.182 0 9.866 6.117 16.378 6.315 6.315 16.971 6.315 10.656 0 16.773-6.315 6.315-6.512 6.315-16.378 0-9.67-6.315-16.182z" style="-inkscape-font-specification:'Futura LT Bold'" id="path4928"/><path d="M527.698 25.806h35.915v54.07q0 10.655 3.749 16.378 3.947 5.525 14.208 5.525t14.01-5.525q3.947-5.723 3.947-16.379v-54.07h35.915v60.977q0 43.61-53.872 43.61t-53.872-43.61z" style="-inkscape-font-specification:'Futura LT Bold'" id="path4930"/><path d="M727.834 60.34q-6.117-6.71-16.773-6.71-10.656 0-16.971 6.71-6.117 6.511-6.117 16.18 0 9.867 6.117 16.38 6.315 6.314 16.97 6.314 10.657 0 16.774-6.315 6.315-6.512 6.315-16.378 0-9.67-6.315-16.182zm41.045-34.534v101.232h-35.914V115.79h-.395q-4.539 7.301-12.827 11.05-8.288 3.553-17.76 3.553-22.101 0-36.704-15.787-14.405-15.984-14.405-38.283 0-22.298 14.208-38.085 14.405-15.787 36.507-15.787 20.128 0 31.376 13.222v-9.867z" style="-inkscape-font-specification:'Futura LT Bold'" id="path4932"/><path d="M868.856 127.038V115.79h-.394q-4.539 7.301-12.827 11.05-8.288 3.553-17.76 3.553-22.101 0-36.704-15.787-14.405-15.984-14.405-38.283 0-22.298 14.208-38.085Q815.379 22.45 837.48 22.45q20.128 0 31.376 13.222V-36.75h35.915v163.787zm-5.13-66.699q-6.118-6.71-16.774-6.71t-16.97 6.71q-6.118 6.512-6.118 16.182 0 9.866 6.118 16.378 6.314 6.315 16.97 6.315 10.656 0 16.774-6.315 6.314-6.512 6.314-16.378 0-9.67-6.314-16.182z" style="-inkscape-font-specification:'Futura LT Bold'" id="path4934"/><path d="M961.927 25.806V37.25h.394q4.736-7.301 13.024-11.05 8.288-3.75 17.563-3.75 22.101 0 36.507 15.984 14.602 15.984 14.602 38.283t-14.405 38.085q-14.208 15.59-36.31 15.59-20.127 0-31.375-13.024v60.186h-35.915V25.805zm38.677 34.533q-6.117-6.71-16.773-6.71-10.656 0-16.97 6.71-6.118 6.512-6.118 16.182 0 9.866 6.117 16.378 6.315 6.315 16.97 6.315 10.657 0 16.774-6.315 6.315-6.512 6.315-16.378 0-9.67-6.315-16.182z" style="-inkscape-font-specification:'Futura LT Bold'" id="path4936"/><path d="M1095.845 113.225l-48.939-87.42h41.44l27.035 51.9 26.443-51.9h40.848l-81.104 151.75h-40.256z" style="-inkscape-font-specification:'Futura LT Bold'" id="path4938" fill="#61ded4"/></g></g><defs id="defs133"><clipPath id="p34d53cf4c1" stroke-linejoin="round"><path id="rect130" d="M7.2 7.2h357.12v266.112H7.2z"/></clipPath></defs></svg>