<svg xmlns="http://www.w3.org/2000/svg" xmlns:xlink="http://www.w3.org/1999/xlink" id="svg2244" width="349.141" viewBox="0 0 261.856 261.856" version="1.1" height="349.141"><defs id="defs2116"><style id="style2114" type="text/css">*{stroke-linecap:butt;stroke-linejoin:round}</style></defs><g transform="translate(-54.832 -9.328)" id="figure_1"><g id="axes_1"><g id="patch_2"><path id="path2118" d="M185.76 154.158a13.902 13.902 0 100-27.805 13.902 13.902 0 000 27.805z" clip-path="url(#pfb8cef3823)" opacity=".5" fill="#1f77b4" stroke="#1f77b4" stroke-linejoin="miter"/></g><g id="patch_3"><path id="path2121" d="M250.685 188.912a48.658 48.658 0 0048.655-48.656A48.658 48.658 0 00250.685 91.6a48.658 48.658 0 00-48.656 48.656 48.658 48.658 0 0048.656 48.656z" clip-path="url(#pfb8cef3823)" opacity=".5" fill="#1f77b4" stroke="#1f77b4" stroke-linejoin="miter"/></g><g id="patch_4"><path id="path2124" d="M120.835 188.912a48.658 48.658 0 0048.656-48.656A48.658 48.658 0 00120.835 91.6a48.658 48.658 0 00-48.655 48.656 48.658 48.658 0 0048.655 48.656z" clip-path="url(#pfb8cef3823)" opacity=".5" fill="#1f77b4" stroke="#1f77b4" stroke-linejoin="miter"/></g><g id="patch_5"><path id="path2127" d="M185.76 123.987a48.658 48.658 0 0048.656-48.656 48.658 48.658 0 00-48.656-48.655 48.658 48.658 0 00-48.656 48.655 48.658 48.658 0 0048.656 48.656z" clip-path="url(#pfb8cef3823)" opacity=".5" fill="#1f77b4" stroke="#1f77b4" stroke-linejoin="miter"/></g><g id="patch_6"><path id="path2130" d="M185.76 253.836a48.658 48.658 0 0048.656-48.655 48.658 48.658 0 00-48.656-48.656 48.658 48.658 0 00-48.656 48.656 48.658 48.658 0 0048.656 48.655z" clip-path="url(#pfb8cef3823)" opacity=".5" fill="#1f77b4" stroke="#1f77b4" stroke-linejoin="miter"/></g><g id="patch_7"><path id="path2133" d="M288.823 103.346a27.367 27.367 0 0019.35-46.716 27.367 27.367 0 00-46.716 19.35 27.367 27.367 0 0027.366 27.366z" clip-path="url(#pfb8cef3823)" opacity=".5" fill="#1f77b4" stroke="#1f77b4" stroke-linejoin="miter"/></g><g id="patch_8"><path id="path2136" d="M82.697 103.346a27.367 27.367 0 0019.35-46.716 27.367 27.367 0 00-46.715 19.35 27.367 27.367 0 0027.365 27.366z" clip-path="url(#pfb8cef3823)" opacity=".5" fill="#1f77b4" stroke="#1f77b4" stroke-linejoin="miter"/></g><g id="patch_9"><path id="path2139" d="M288.823 231.897a27.367 27.367 0 0019.35-46.716 27.367 27.367 0 00-46.716 19.35 27.367 27.367 0 0027.366 27.366z" clip-path="url(#pfb8cef3823)" opacity=".5" fill="#1f77b4" stroke="#1f77b4" stroke-linejoin="miter"/></g><g id="patch_10"><path id="path2142" d="M82.697 231.897a27.367 27.367 0 0019.35-46.716 27.367 27.367 0 00-46.715 19.35 27.367 27.367 0 0027.365 27.366z" clip-path="url(#pfb8cef3823)" opacity=".5" fill="#1f77b4" stroke="#1f77b4" stroke-linejoin="miter"/></g><g id="patch_11"><path id="path2145" d="M250.036 64.559a27.367 27.367 0 0019.35-46.716 27.367 27.367 0 00-46.716 19.35 27.367 27.367 0 0027.366 27.366z" clip-path="url(#pfb8cef3823)" opacity=".5" fill="#1f77b4" stroke="#1f77b4" stroke-linejoin="miter"/></g><g id="patch_12"><path id="path2148" d="M121.484 64.559a27.367 27.367 0 0019.35-46.716 27.367 27.367 0 00-46.715 19.35 27.367 27.367 0 0027.365 27.366z" clip-path="url(#pfb8cef3823)" opacity=".5" fill="#1f77b4" stroke="#1f77b4" stroke-linejoin="miter"/></g><g id="patch_13"><path id="path2151" d="M250.036 270.684a27.367 27.367 0 0019.35-46.716 27.367 27.367 0 00-46.716 19.35 27.367 27.367 0 0027.366 27.366z" clip-path="url(#pfb8cef3823)" opacity=".5" fill="#1f77b4" stroke="#1f77b4" stroke-linejoin="miter"/></g><g id="patch_14"><path id="path2154" d="M121.484 270.684a27.367 27.367 0 0019.35-46.716 27.367 27.367 0 00-46.715 19.35 27.367 27.367 0 0027.365 27.366z" clip-path="url(#pfb8cef3823)" opacity=".5" fill="#1f77b4" stroke="#1f77b4" stroke-linejoin="miter"/></g><g id="line2d_1"><path id="path2157" d="M74.88 251.136h221.76" clip-path="url(#pfb8cef3823)" fill="none" stroke="#000" stroke-width="1.5" stroke-linecap="square"/></g><g id="line2d_2"><path id="path2160" d="M296.64 251.136V29.376" clip-path="url(#pfb8cef3823)" fill="none" stroke="#000" stroke-width="1.5" stroke-linecap="square"/></g><g id="line2d_3"><path id="path2163" d="M296.64 29.376H74.88" clip-path="url(#pfb8cef3823)" fill="none" stroke="#000" stroke-width="1.5" stroke-linecap="square"/></g><g id="line2d_4"><path id="path2166" d="M74.88 29.376v221.76" clip-path="url(#pfb8cef3823)" fill="none" stroke="#000" stroke-width="1.5" stroke-linecap="square"/></g><g id="line2d_5"><defs id="defs2170"><path id="m1d79feb1cc" d="M0 1.5a1.5 1.5 0 100-3 1.5 1.5 0 000 3z" stroke="#1f77b4"/></defs><g id="g2174" clip-path="url(#pfb8cef3823)"><use height="100%" width="100%" id="use2172" y="140.256" xlink:href="#m1d79feb1cc" x="185.76" fill="#1f77b4" stroke="#1f77b4"/></g></g><g id="line2d_6"><g id="g2179" clip-path="url(#pfb8cef3823)"><use height="100%" width="100%" id="use2177" y="140.256" xlink:href="#m1d79feb1cc" x="250.685" fill="#1f77b4" stroke="#1f77b4"/></g></g><g id="line2d_7"><g id="g2184" clip-path="url(#pfb8cef3823)"><use height="100%" width="100%" id="use2182" y="140.256" xlink:href="#m1d79feb1cc" x="120.835" fill="#1f77b4" stroke="#1f77b4"/></g></g><g id="line2d_8"><g id="g2189" clip-path="url(#pfb8cef3823)"><use height="100%" width="100%" id="use2187" y="75.331" xlink:href="#m1d79feb1cc" x="185.76" fill="#1f77b4" stroke="#1f77b4"/></g></g><g id="line2d_9"><g id="g2194" clip-path="url(#pfb8cef3823)"><use height="100%" width="100%" id="use2192" y="205.181" xlink:href="#m1d79feb1cc" x="185.76" fill="#1f77b4" stroke="#1f77b4"/></g></g><g id="line2d_10"><g id="g2199" clip-path="url(#pfb8cef3823)"><use height="100%" width="100%" id="use2197" y="75.98" xlink:href="#m1d79feb1cc" x="288.823" fill="#1f77b4" stroke="#1f77b4"/></g></g><g id="line2d_11"><g id="g2204" clip-path="url(#pfb8cef3823)"><use height="100%" width="100%" id="use2202" y="75.98" xlink:href="#m1d79feb1cc" x="82.697" fill="#1f77b4" stroke="#1f77b4"/></g></g><g id="line2d_12"><g id="g2209" clip-path="url(#pfb8cef3823)"><use height="100%" width="100%" id="use2207" y="204.532" xlink:href="#m1d79feb1cc" x="288.823" fill="#1f77b4" stroke="#1f77b4"/></g></g><g id="line2d_13"><g id="g2214" clip-path="url(#pfb8cef3823)"><use height="100%" width="100%" id="use2212" y="204.532" xlink:href="#m1d79feb1cc" x="82.697" fill="#1f77b4" stroke="#1f77b4"/></g></g><g id="line2d_14"><g id="g2219" clip-path="url(#pfb8cef3823)"><use height="100%" width="100%" id="use2217" y="37.193" xlink:href="#m1d79feb1cc" x="250.036" fill="#1f77b4" stroke="#1f77b4"/></g></g><g id="line2d_15"><g id="g2224" clip-path="url(#pfb8cef3823)"><use height="100%" width="100%" id="use2222" y="37.193" xlink:href="#m1d79feb1cc" x="121.484" fill="#1f77b4" stroke="#1f77b4"/></g></g><g id="line2d_16"><g id="g2229" clip-path="url(#pfb8cef3823)"><use height="100%" width="100%" id="use2227" y="243.319" xlink:href="#m1d79feb1cc" x="250.036" fill="#1f77b4" stroke="#1f77b4"/></g></g><g id="line2d_17"><g id="g2234" clip-path="url(#pfb8cef3823)"><use height="100%" width="100%" id="use2232" y="243.319" xlink:href="#m1d79feb1cc" x="121.484" fill="#1f77b4" stroke="#1f77b4"/></g></g></g></g><defs id="defs2242"><clipPath id="pfb8cef3823"><path id="rect2239" d="M7.2 7.2h357.12v266.112H7.2z"/></clipPath></defs></svg>