<svg xmlns="http://www.w3.org/2000/svg" xmlns:xlink="http://www.w3.org/1999/xlink" height="380.038" viewBox="0 0 285.028 285.028" width="380.038" id="svg2"><defs id="defs4" stroke-linejoin="round" stroke-miterlimit="100000"><style id="style6">*{stroke-linecap:butt;stroke-linejoin:round;stroke-miterlimit:100000}</style></defs><g id="figure_1" stroke-linejoin="round" stroke-miterlimit="100000"><g id="axes_1"><g id="patch_2"><path clip-path="url(#p0236b41b68)" d="M167.555 351.236a7.592 7.592 0 100-15.184 7.592 7.592 0 000 15.184z" id="path14" opacity=".5" fill="#00f" stroke="#00f" stroke-linejoin="miter" transform="translate(-152.686 -73.486)"/></g><g id="patch_3"><path clip-path="url(#p0236b41b68)" d="M189.305 354.897a11.252 11.252 0 100-22.505 11.252 11.252 0 000 22.505z" id="path17" opacity=".5" fill="#00f" stroke="#00f" stroke-linejoin="miter" transform="translate(-152.686 -73.486)"/></g><g id="patch_4"><path clip-path="url(#p0236b41b68)" d="M225.345 357.009a13.365 13.365 0 100-26.73 13.365 13.365 0 000 26.73z" id="path20" opacity=".5" fill="#00f" stroke="#00f" stroke-linejoin="miter" transform="translate(-152.686 -73.486)"/></g><g id="patch_5"><path clip-path="url(#p0236b41b68)" d="M270.817 358.014a14.37 14.37 0 100-28.74 14.37 14.37 0 000 28.74z" id="path23" opacity=".5" fill="#00f" stroke="#00f" stroke-linejoin="miter" transform="translate(-152.686 -73.486)"/></g><g id="patch_6"><path clip-path="url(#p0236b41b68)" d="M319.583 358.014a14.37 14.37 0 100-28.74 14.37 14.37 0 000 28.74z" id="path26" opacity=".5" fill="#00f" stroke="#00f" stroke-linejoin="miter" transform="translate(-152.686 -73.486)"/></g><g id="patch_7"><path clip-path="url(#p0236b41b68)" d="M365.055 357.009a13.365 13.365 0 100-26.73 13.365 13.365 0 000 26.73z" id="path29" opacity=".5" fill="#00f" stroke="#00f" stroke-linejoin="miter" transform="translate(-152.686 -73.486)"/></g><g id="patch_8"><path clip-path="url(#p0236b41b68)" d="M401.095 354.897a11.252 11.252 0 100-22.505 11.252 11.252 0 000 22.505z" id="path32" opacity=".5" fill="#00f" stroke="#00f" stroke-linejoin="miter" transform="translate(-152.686 -73.486)"/></g><g id="patch_9"><path clip-path="url(#p0236b41b68)" d="M422.845 351.236a7.592 7.592 0 100-15.183 7.592 7.592 0 000 15.183z" id="path35" opacity=".5" fill="#00f" stroke="#00f" stroke-linejoin="miter" transform="translate(-152.686 -73.486)"/></g><g id="patch_10"><path clip-path="url(#p0236b41b68)" d="M167.555 333.147a11.252 11.252 0 100-22.505 11.252 11.252 0 000 22.505z" id="path38" opacity=".5" fill="#00f" stroke="#00f" stroke-linejoin="miter" transform="translate(-152.686 -73.486)"/></g><g id="patch_11"><path clip-path="url(#p0236b41b68)" d="M189.305 338.573a16.678 16.678 0 10-.001-33.356 16.678 16.678 0 000 33.356z" id="path41" opacity=".5" fill="#00f" stroke="#00f" stroke-linejoin="miter" transform="translate(-152.686 -73.486)"/></g><g id="patch_12"><path clip-path="url(#p0236b41b68)" d="M225.345 341.703a19.809 19.809 0 10-.001-39.617 19.809 19.809 0 000 39.617z" id="path44" opacity=".5" fill="#00f" stroke="#00f" stroke-linejoin="miter" transform="translate(-152.686 -73.486)"/></g><g id="patch_13"><path clip-path="url(#p0236b41b68)" d="M270.817 343.193a21.299 21.299 0 100-42.598 21.299 21.299 0 000 42.598z" id="path47" opacity=".5" fill="#00f" stroke="#00f" stroke-linejoin="miter" transform="translate(-152.686 -73.486)"/></g><g id="patch_14"><path clip-path="url(#p0236b41b68)" d="M319.583 343.193a21.299 21.299 0 10-.001-42.598 21.299 21.299 0 000 42.598z" id="path50" opacity=".5" fill="#00f" stroke="#00f" stroke-linejoin="miter" transform="translate(-152.686 -73.486)"/></g><g id="patch_15"><path clip-path="url(#p0236b41b68)" d="M365.055 341.703a19.809 19.809 0 100-39.617 19.809 19.809 0 000 39.617z" id="path53" opacity=".5" fill="#00f" stroke="#00f" stroke-linejoin="miter" transform="translate(-152.686 -73.486)"/></g><g id="patch_16"><path clip-path="url(#p0236b41b68)" d="M401.095 338.573a16.678 16.678 0 100-33.356 16.678 16.678 0 000 33.356z" id="path56" opacity=".5" fill="#00f" stroke="#00f" stroke-linejoin="miter" transform="translate(-152.686 -73.486)"/></g><g id="patch_17"><path clip-path="url(#p0236b41b68)" d="M422.845 333.147a11.252 11.252 0 100-22.505 11.252 11.252 0 000 22.505z" id="path59" opacity=".5" fill="#00f" stroke="#00f" stroke-linejoin="miter" transform="translate(-152.686 -73.486)"/></g><g id="patch_18"><path clip-path="url(#p0236b41b68)" d="M167.555 299.22a13.365 13.365 0 100-26.73 13.365 13.365 0 000 26.73z" id="path62" opacity=".5" fill="#00f" stroke="#00f" stroke-linejoin="miter" transform="translate(-152.686 -73.486)"/></g><g id="patch_19"><path clip-path="url(#p0236b41b68)" d="M189.305 305.663a19.809 19.809 0 10-.001-39.617 19.809 19.809 0 000 39.617z" id="path65" opacity=".5" fill="#00f" stroke="#00f" stroke-linejoin="miter" transform="translate(-152.686 -73.486)"/></g><g id="patch_20"><path clip-path="url(#p0236b41b68)" d="M225.345 309.381a23.527 23.527 0 10-.001-47.054 23.527 23.527 0 000 47.054z" id="path68" opacity=".5" fill="#00f" stroke="#00f" stroke-linejoin="miter" transform="translate(-152.686 -73.486)"/></g><g id="patch_21"><path clip-path="url(#p0236b41b68)" d="M270.817 311.151a25.297 25.297 0 000-50.592 25.297 25.297 0 000 50.592z" id="path71" opacity=".5" fill="#00f" stroke="#00f" stroke-linejoin="miter" transform="translate(-152.686 -73.486)"/></g><g id="patch_22"><path clip-path="url(#p0236b41b68)" d="M319.583 311.151a25.297 25.297 0 000-50.592 25.297 25.297 0 000 50.592z" id="path74" opacity=".5" fill="#00f" stroke="#00f" stroke-linejoin="miter" transform="translate(-152.686 -73.486)"/></g><g id="patch_23"><path clip-path="url(#p0236b41b68)" d="M365.055 309.381a23.527 23.527 0 100-47.054 23.527 23.527 0 000 47.054z" id="path77" opacity=".5" fill="#00f" stroke="#00f" stroke-linejoin="miter" transform="translate(-152.686 -73.486)"/></g><g id="patch_24"><path clip-path="url(#p0236b41b68)" d="M401.095 305.663a19.809 19.809 0 100-39.617 19.809 19.809 0 000 39.617z" id="path80" opacity=".5" fill="#00f" stroke="#00f" stroke-linejoin="miter" transform="translate(-152.686 -73.486)"/></g><g id="patch_25"><path clip-path="url(#p0236b41b68)" d="M422.845 299.22a13.365 13.365 0 100-26.73 13.365 13.365 0 000 26.73z" id="path83" opacity=".5" fill="#00f" stroke="#00f" stroke-linejoin="miter" transform="translate(-152.686 -73.486)"/></g><g id="patch_26"><path clip-path="url(#p0236b41b68)" d="M167.555 254.752a14.37 14.37 0 100-28.74 14.37 14.37 0 000 28.74z" id="path86" opacity=".5" fill="#00f" stroke="#00f" stroke-linejoin="miter" transform="translate(-152.686 -73.486)"/></g><g id="patch_27"><path clip-path="url(#p0236b41b68)" d="M189.305 261.68a21.299 21.299 0 10-.001-42.597 21.299 21.299 0 000 42.598z" id="path89" opacity=".5" fill="#00f" stroke="#00f" stroke-linejoin="miter" transform="translate(-152.686 -73.486)"/></g><g id="patch_28"><path clip-path="url(#p0236b41b68)" d="M225.345 265.679a25.297 25.297 0 000-50.592 25.297 25.297 0 000 50.592z" id="path92" opacity=".5" fill="#00f" stroke="#00f" stroke-linejoin="miter" transform="translate(-152.686 -73.486)"/></g><g id="patch_29"><path clip-path="url(#p0236b41b68)" d="M270.817 267.582a27.2 27.2 0 0019.233-46.432 27.2 27.2 0 00-46.432 19.233 27.2 27.2 0 0027.2 27.199z" id="path95" opacity=".5" fill="#00f" stroke="#00f" stroke-linejoin="miter" transform="translate(-152.686 -73.486)"/></g><g id="patch_30"><path clip-path="url(#p0236b41b68)" d="M319.583 267.582a27.2 27.2 0 0019.232-46.432 27.2 27.2 0 00-46.431 19.233 27.2 27.2 0 0027.199 27.199z" id="path98" opacity=".5" fill="#00f" stroke="#00f" stroke-linejoin="miter" transform="translate(-152.686 -73.486)"/></g><g id="patch_31"><path clip-path="url(#p0236b41b68)" d="M365.055 265.679a25.297 25.297 0 000-50.592 25.297 25.297 0 000 50.592z" id="path101" opacity=".5" fill="#00f" stroke="#00f" stroke-linejoin="miter" transform="translate(-152.686 -73.486)"/></g><g id="patch_32"><path clip-path="url(#p0236b41b68)" d="M401.095 261.68a21.299 21.299 0 100-42.597 21.299 21.299 0 000 42.598z" id="path104" opacity=".5" fill="#00f" stroke="#00f" stroke-linejoin="miter" transform="translate(-152.686 -73.486)"/></g><g id="patch_33"><path clip-path="url(#p0236b41b68)" d="M422.845 254.752a14.37 14.37 0 100-28.74 14.37 14.37 0 000 28.74z" id="path107" opacity=".5" fill="#00f" stroke="#00f" stroke-linejoin="miter" transform="translate(-152.686 -73.486)"/></g><g id="patch_34"><path clip-path="url(#p0236b41b68)" d="M167.555 205.987a14.37 14.37 0 100-28.74 14.37 14.37 0 000 28.74z" id="path110" opacity=".5" fill="#00f" stroke="#00f" stroke-linejoin="miter" transform="translate(-152.686 -73.486)"/></g><g id="patch_35"><path clip-path="url(#p0236b41b68)" d="M189.305 212.915a21.299 21.299 0 10-.001-42.598 21.299 21.299 0 000 42.598z" id="path113" opacity=".5" fill="#00f" stroke="#00f" stroke-linejoin="miter" transform="translate(-152.686 -73.486)"/></g><g id="patch_36"><path clip-path="url(#p0236b41b68)" d="M225.345 216.913a25.297 25.297 0 000-50.592 25.297 25.297 0 000 50.592z" id="path116" opacity=".5" fill="#00f" stroke="#00f" stroke-linejoin="miter" transform="translate(-152.686 -73.486)"/></g><g id="patch_37"><path clip-path="url(#p0236b41b68)" d="M270.817 218.816a27.2 27.2 0 0019.233-46.431 27.2 27.2 0 00-38.465 38.465 27.2 27.2 0 0019.232 7.966z" id="path119" opacity=".5" fill="#00f" stroke="#00f" stroke-linejoin="miter" transform="translate(-152.686 -73.486)"/></g><g id="patch_38"><path clip-path="url(#p0236b41b68)" d="M319.583 218.816a27.2 27.2 0 0019.232-46.431 27.2 27.2 0 00-38.465 38.465 27.2 27.2 0 0019.233 7.966z" id="path122" opacity=".5" fill="#00f" stroke="#00f" stroke-linejoin="miter" transform="translate(-152.686 -73.486)"/></g><g id="patch_39"><path clip-path="url(#p0236b41b68)" d="M365.055 216.913a25.297 25.297 0 000-50.592 25.297 25.297 0 000 50.592z" id="path125" opacity=".5" fill="#00f" stroke="#00f" stroke-linejoin="miter" transform="translate(-152.686 -73.486)"/></g><g id="patch_40"><path clip-path="url(#p0236b41b68)" d="M401.095 212.915a21.299 21.299 0 100-42.598 21.299 21.299 0 000 42.598z" id="path128" opacity=".5" fill="#00f" stroke="#00f" stroke-linejoin="miter" transform="translate(-152.686 -73.486)"/></g><g id="patch_41"><path clip-path="url(#p0236b41b68)" d="M422.845 205.987a14.37 14.37 0 100-28.74 14.37 14.37 0 000 28.74z" id="path131" opacity=".5" fill="#00f" stroke="#00f" stroke-linejoin="miter" transform="translate(-152.686 -73.486)"/></g><g id="patch_42"><path clip-path="url(#p0236b41b68)" d="M167.555 159.509a13.365 13.365 0 100-26.73 13.365 13.365 0 000 26.73z" id="path134" opacity=".5" fill="#00f" stroke="#00f" stroke-linejoin="miter" transform="translate(-152.686 -73.486)"/></g><g id="patch_43"><path clip-path="url(#p0236b41b68)" d="M189.305 165.952a19.809 19.809 0 10-.001-39.617 19.809 19.809 0 000 39.617z" id="path137" opacity=".5" fill="#00f" stroke="#00f" stroke-linejoin="miter" transform="translate(-152.686 -73.486)"/></g><g id="patch_44"><path clip-path="url(#p0236b41b68)" d="M225.345 169.67a23.527 23.527 0 10-.001-47.054 23.527 23.527 0 000 47.055z" id="path140" opacity=".5" fill="#00f" stroke="#00f" stroke-linejoin="miter" transform="translate(-152.686 -73.486)"/></g><g id="patch_45"><path clip-path="url(#p0236b41b68)" d="M270.817 171.44a25.297 25.297 0 000-50.591 25.297 25.297 0 000 50.592z" id="path143" opacity=".5" fill="#00f" stroke="#00f" stroke-linejoin="miter" transform="translate(-152.686 -73.486)"/></g><g id="patch_46"><path clip-path="url(#p0236b41b68)" d="M319.583 171.44a25.297 25.297 0 000-50.591 25.297 25.297 0 000 50.592z" id="path146" opacity=".5" fill="#00f" stroke="#00f" stroke-linejoin="miter" transform="translate(-152.686 -73.486)"/></g><g id="patch_47"><path clip-path="url(#p0236b41b68)" d="M365.055 169.67a23.527 23.527 0 100-47.054 23.527 23.527 0 000 47.055z" id="path149" opacity=".5" fill="#00f" stroke="#00f" stroke-linejoin="miter" transform="translate(-152.686 -73.486)"/></g><g id="patch_48"><path clip-path="url(#p0236b41b68)" d="M401.095 165.952a19.809 19.809 0 100-39.617 19.809 19.809 0 000 39.617z" id="path152" opacity=".5" fill="#00f" stroke="#00f" stroke-linejoin="miter" transform="translate(-152.686 -73.486)"/></g><g id="patch_49"><path clip-path="url(#p0236b41b68)" d="M422.845 159.509a13.365 13.365 0 100-26.73 13.365 13.365 0 000 26.73z" id="path155" opacity=".5" fill="#00f" stroke="#00f" stroke-linejoin="miter" transform="translate(-152.686 -73.486)"/></g><g id="patch_50"><path clip-path="url(#p0236b41b68)" d="M167.555 121.357a11.252 11.252 0 100-22.505 11.252 11.252 0 000 22.505z" id="path158" opacity=".5" fill="#00f" stroke="#00f" stroke-linejoin="miter" transform="translate(-152.686 -73.486)"/></g><g id="patch_51"><path clip-path="url(#p0236b41b68)" d="M189.305 126.782a16.678 16.678 0 10-.001-33.356 16.678 16.678 0 000 33.356z" id="path161" opacity=".5" fill="#00f" stroke="#00f" stroke-linejoin="miter" transform="translate(-152.686 -73.486)"/></g><g id="patch_52"><path clip-path="url(#p0236b41b68)" d="M225.345 129.912a19.809 19.809 0 10-.001-39.617 19.809 19.809 0 000 39.617z" id="path164" opacity=".5" fill="#00f" stroke="#00f" stroke-linejoin="miter" transform="translate(-152.686 -73.486)"/></g><g id="patch_53"><path clip-path="url(#p0236b41b68)" d="M270.817 131.403a21.299 21.299 0 100-42.598 21.299 21.299 0 000 42.598z" id="path167" opacity=".5" fill="#00f" stroke="#00f" stroke-linejoin="miter" transform="translate(-152.686 -73.486)"/></g><g id="patch_54"><path clip-path="url(#p0236b41b68)" d="M319.583 131.403a21.299 21.299 0 10-.001-42.598 21.299 21.299 0 000 42.598z" id="path170" opacity=".5" fill="#00f" stroke="#00f" stroke-linejoin="miter" transform="translate(-152.686 -73.486)"/></g><g id="patch_55"><path clip-path="url(#p0236b41b68)" d="M365.055 129.912a19.809 19.809 0 100-39.617 19.809 19.809 0 000 39.617z" id="path173" opacity=".5" fill="#00f" stroke="#00f" stroke-linejoin="miter" transform="translate(-152.686 -73.486)"/></g><g id="patch_56"><path clip-path="url(#p0236b41b68)" d="M401.095 126.782a16.678 16.678 0 100-33.356 16.678 16.678 0 000 33.356z" id="path176" opacity=".5" fill="#00f" stroke="#00f" stroke-linejoin="miter" transform="translate(-152.686 -73.486)"/></g><g id="patch_57"><path clip-path="url(#p0236b41b68)" d="M422.845 121.357a11.252 11.252 0 100-22.505 11.252 11.252 0 000 22.505z" id="path179" opacity=".5" fill="#00f" stroke="#00f" stroke-linejoin="miter" transform="translate(-152.686 -73.486)"/></g><g id="patch_58"><path clip-path="url(#p0236b41b68)" d="M167.555 95.947a7.592 7.592 0 100-15.184 7.592 7.592 0 000 15.184z" id="path182" opacity=".5" fill="#00f" stroke="#00f" stroke-linejoin="miter" transform="translate(-152.686 -73.486)"/></g><g id="patch_59"><path clip-path="url(#p0236b41b68)" d="M189.305 99.607a11.252 11.252 0 100-22.505 11.252 11.252 0 000 22.505z" id="path185" opacity=".5" fill="#00f" stroke="#00f" stroke-linejoin="miter" transform="translate(-152.686 -73.486)"/></g><g id="patch_60"><path clip-path="url(#p0236b41b68)" d="M225.345 101.72a13.365 13.365 0 100-26.73 13.365 13.365 0 000 26.73z" id="path188" opacity=".5" fill="#00f" stroke="#00f" stroke-linejoin="miter" transform="translate(-152.686 -73.486)"/></g><g id="patch_61"><path clip-path="url(#p0236b41b68)" d="M270.817 102.725a14.37 14.37 0 100-28.74 14.37 14.37 0 000 28.74z" id="path191" opacity=".5" fill="#00f" stroke="#00f" stroke-linejoin="miter" transform="translate(-152.686 -73.486)"/></g><g id="patch_62"><path clip-path="url(#p0236b41b68)" d="M319.583 102.725a14.37 14.37 0 100-28.74 14.37 14.37 0 000 28.74z" id="path194" opacity=".5" fill="#00f" stroke="#00f" stroke-linejoin="miter" transform="translate(-152.686 -73.486)"/></g><g id="patch_63"><path clip-path="url(#p0236b41b68)" d="M365.055 101.72a13.365 13.365 0 100-26.73 13.365 13.365 0 000 26.73z" id="path197" opacity=".5" fill="#00f" stroke="#00f" stroke-linejoin="miter" transform="translate(-152.686 -73.486)"/></g><g id="patch_64"><path clip-path="url(#p0236b41b68)" d="M401.095 99.607a11.252 11.252 0 100-22.505 11.252 11.252 0 000 22.505z" id="path200" opacity=".5" fill="#00f" stroke="#00f" stroke-linejoin="miter" transform="translate(-152.686 -73.486)"/></g><g id="patch_65"><path clip-path="url(#p0236b41b68)" d="M422.845 95.947a7.592 7.592 0 100-15.184 7.592 7.592 0 000 15.184z" id="path203" opacity=".5" fill="#00f" stroke="#00f" stroke-linejoin="miter" transform="translate(-152.686 -73.486)"/></g><g id="line2d_1"><path clip-path="url(#p0236b41b68)" d="M162.277 348.923h265.846V83.077H162.277" id="path206" fill="none" stroke="#000" stroke-linecap="square" transform="translate(-152.686 -73.486)"/></g><g id="line2d_2"><path clip-path="url(#p0236b41b68)" d="M162.277 83.077v265.846" id="path209" fill="none" stroke="#000" stroke-linecap="square" transform="translate(-152.686 -73.486)"/></g><g id="line2d_3" transform="translate(-152.686 -73.486)"><defs id="defs212"><path d="M0 1.5a1.5 1.5 0 100-3 1.5 1.5 0 000 3z" id="m62993241de" stroke="#00f" stroke-width=".5"/></defs><g clip-path="url(#p0236b41b68)" id="g215"><use x="167.555" xlink:href="#m62993241de" y="343.645" id="use217" width="100%" height="100%" fill="#00f" stroke="#00f" stroke-width=".5"/></g></g><g id="line2d_4"><g clip-path="url(#p0236b41b68)" id="g220" transform="translate(-152.686 -73.486)"><use x="189.305" xlink:href="#m62993241de" y="343.645" id="use222" width="100%" height="100%" fill="#00f" stroke="#00f" stroke-width=".5"/></g></g><g id="line2d_5"><g clip-path="url(#p0236b41b68)" id="g225" transform="translate(-152.686 -73.486)"><use x="225.345" xlink:href="#m62993241de" y="343.645" id="use227" width="100%" height="100%" fill="#00f" stroke="#00f" stroke-width=".5"/></g></g><g id="line2d_6"><g clip-path="url(#p0236b41b68)" id="g230" transform="translate(-152.686 -73.486)"><use x="270.817" xlink:href="#m62993241de" y="343.645" id="use232" width="100%" height="100%" fill="#00f" stroke="#00f" stroke-width=".5"/></g></g><g id="line2d_7"><g clip-path="url(#p0236b41b68)" id="g235" transform="translate(-152.686 -73.486)"><use x="319.583" xlink:href="#m62993241de" y="343.645" id="use237" width="100%" height="100%" fill="#00f" stroke="#00f" stroke-width=".5"/></g></g><g id="line2d_8"><g clip-path="url(#p0236b41b68)" id="g240" transform="translate(-152.686 -73.486)"><use x="365.055" xlink:href="#m62993241de" y="343.645" id="use242" width="100%" height="100%" fill="#00f" stroke="#00f" stroke-width=".5"/></g></g><g id="line2d_9"><g clip-path="url(#p0236b41b68)" id="g245" transform="translate(-152.686 -73.486)"><use x="401.095" xlink:href="#m62993241de" y="343.645" id="use247" width="100%" height="100%" fill="#00f" stroke="#00f" stroke-width=".5"/></g></g><g id="line2d_10"><g clip-path="url(#p0236b41b68)" id="g250" transform="translate(-152.686 -73.486)"><use x="422.845" xlink:href="#m62993241de" y="343.645" id="use252" width="100%" height="100%" fill="#00f" stroke="#00f" stroke-width=".5"/></g></g><g id="line2d_11"><g clip-path="url(#p0236b41b68)" id="g255" transform="translate(-152.686 -73.486)"><use x="167.555" xlink:href="#m62993241de" y="321.895" id="use257" width="100%" height="100%" fill="#00f" stroke="#00f" stroke-width=".5"/></g></g><g id="line2d_12"><g clip-path="url(#p0236b41b68)" id="g260" transform="translate(-152.686 -73.486)"><use x="189.305" xlink:href="#m62993241de" y="321.895" id="use262" width="100%" height="100%" fill="#00f" stroke="#00f" stroke-width=".5"/></g></g><g id="line2d_13"><g clip-path="url(#p0236b41b68)" id="g265" transform="translate(-152.686 -73.486)"><use x="225.345" xlink:href="#m62993241de" y="321.895" id="use267" width="100%" height="100%" fill="#00f" stroke="#00f" stroke-width=".5"/></g></g><g id="line2d_14"><g clip-path="url(#p0236b41b68)" id="g270" transform="translate(-152.686 -73.486)"><use x="270.817" xlink:href="#m62993241de" y="321.895" id="use272" width="100%" height="100%" fill="#00f" stroke="#00f" stroke-width=".5"/></g></g><g id="line2d_15"><g clip-path="url(#p0236b41b68)" id="g275" transform="translate(-152.686 -73.486)"><use x="319.583" xlink:href="#m62993241de" y="321.895" id="use277" width="100%" height="100%" fill="#00f" stroke="#00f" stroke-width=".5"/></g></g><g id="line2d_16"><g clip-path="url(#p0236b41b68)" id="g280" transform="translate(-152.686 -73.486)"><use x="365.055" xlink:href="#m62993241de" y="321.895" id="use282" width="100%" height="100%" fill="#00f" stroke="#00f" stroke-width=".5"/></g></g><g id="line2d_17"><g clip-path="url(#p0236b41b68)" id="g285" transform="translate(-152.686 -73.486)"><use x="401.095" xlink:href="#m62993241de" y="321.895" id="use287" width="100%" height="100%" fill="#00f" stroke="#00f" stroke-width=".5"/></g></g><g id="line2d_18"><g clip-path="url(#p0236b41b68)" id="g290" transform="translate(-152.686 -73.486)"><use x="422.845" xlink:href="#m62993241de" y="321.895" id="use292" width="100%" height="100%" fill="#00f" stroke="#00f" stroke-width=".5"/></g></g><g id="line2d_19"><g clip-path="url(#p0236b41b68)" id="g295" transform="translate(-152.686 -73.486)"><use x="167.555" xlink:href="#m62993241de" y="285.855" id="use297" width="100%" height="100%" fill="#00f" stroke="#00f" stroke-width=".5"/></g></g><g id="line2d_20"><g clip-path="url(#p0236b41b68)" id="g300" transform="translate(-152.686 -73.486)"><use x="189.305" xlink:href="#m62993241de" y="285.855" id="use302" width="100%" height="100%" fill="#00f" stroke="#00f" stroke-width=".5"/></g></g><g id="line2d_21"><g clip-path="url(#p0236b41b68)" id="g305" transform="translate(-152.686 -73.486)"><use x="225.345" xlink:href="#m62993241de" y="285.855" id="use307" width="100%" height="100%" fill="#00f" stroke="#00f" stroke-width=".5"/></g></g><g id="line2d_22"><g clip-path="url(#p0236b41b68)" id="g310" transform="translate(-152.686 -73.486)"><use x="270.817" xlink:href="#m62993241de" y="285.855" id="use312" width="100%" height="100%" fill="#00f" stroke="#00f" stroke-width=".5"/></g></g><g id="line2d_23"><g clip-path="url(#p0236b41b68)" id="g315" transform="translate(-152.686 -73.486)"><use x="319.583" xlink:href="#m62993241de" y="285.855" id="use317" width="100%" height="100%" fill="#00f" stroke="#00f" stroke-width=".5"/></g></g><g id="line2d_24"><g clip-path="url(#p0236b41b68)" id="g320" transform="translate(-152.686 -73.486)"><use x="365.055" xlink:href="#m62993241de" y="285.855" id="use322" width="100%" height="100%" fill="#00f" stroke="#00f" stroke-width=".5"/></g></g><g id="line2d_25"><g clip-path="url(#p0236b41b68)" id="g325" transform="translate(-152.686 -73.486)"><use x="401.095" xlink:href="#m62993241de" y="285.855" id="use327" width="100%" height="100%" fill="#00f" stroke="#00f" stroke-width=".5"/></g></g><g id="line2d_26"><g clip-path="url(#p0236b41b68)" id="g330" transform="translate(-152.686 -73.486)"><use x="422.845" xlink:href="#m62993241de" y="285.855" id="use332" width="100%" height="100%" fill="#00f" stroke="#00f" stroke-width=".5"/></g></g><g id="line2d_27"><g clip-path="url(#p0236b41b68)" id="g335" transform="translate(-152.686 -73.486)"><use x="167.555" xlink:href="#m62993241de" y="240.383" id="use337" width="100%" height="100%" fill="#00f" stroke="#00f" stroke-width=".5"/></g></g><g id="line2d_28"><g clip-path="url(#p0236b41b68)" id="g340" transform="translate(-152.686 -73.486)"><use x="189.305" xlink:href="#m62993241de" y="240.383" id="use342" width="100%" height="100%" fill="#00f" stroke="#00f" stroke-width=".5"/></g></g><g id="line2d_29"><g clip-path="url(#p0236b41b68)" id="g345" transform="translate(-152.686 -73.486)"><use x="225.345" xlink:href="#m62993241de" y="240.383" id="use347" width="100%" height="100%" fill="#00f" stroke="#00f" stroke-width=".5"/></g></g><g id="line2d_30"><g clip-path="url(#p0236b41b68)" id="g350" transform="translate(-152.686 -73.486)"><use x="270.817" xlink:href="#m62993241de" y="240.383" id="use352" width="100%" height="100%" fill="#00f" stroke="#00f" stroke-width=".5"/></g></g><g id="line2d_31"><g clip-path="url(#p0236b41b68)" id="g355" transform="translate(-152.686 -73.486)"><use x="319.583" xlink:href="#m62993241de" y="240.383" id="use357" width="100%" height="100%" fill="#00f" stroke="#00f" stroke-width=".5"/></g></g><g id="line2d_32"><g clip-path="url(#p0236b41b68)" id="g360" transform="translate(-152.686 -73.486)"><use x="365.055" xlink:href="#m62993241de" y="240.383" id="use362" width="100%" height="100%" fill="#00f" stroke="#00f" stroke-width=".5"/></g></g><g id="line2d_33"><g clip-path="url(#p0236b41b68)" id="g365" transform="translate(-152.686 -73.486)"><use x="401.095" xlink:href="#m62993241de" y="240.383" id="use367" width="100%" height="100%" fill="#00f" stroke="#00f" stroke-width=".5"/></g></g><g id="line2d_34"><g clip-path="url(#p0236b41b68)" id="g370" transform="translate(-152.686 -73.486)"><use x="422.845" xlink:href="#m62993241de" y="240.383" id="use372" width="100%" height="100%" fill="#00f" stroke="#00f" stroke-width=".5"/></g></g><g id="line2d_35"><g clip-path="url(#p0236b41b68)" id="g375" transform="translate(-152.686 -73.486)"><use x="167.555" xlink:href="#m62993241de" y="191.617" id="use377" width="100%" height="100%" fill="#00f" stroke="#00f" stroke-width=".5"/></g></g><g id="line2d_36"><g clip-path="url(#p0236b41b68)" id="g380" transform="translate(-152.686 -73.486)"><use x="189.305" xlink:href="#m62993241de" y="191.617" id="use382" width="100%" height="100%" fill="#00f" stroke="#00f" stroke-width=".5"/></g></g><g id="line2d_37"><g clip-path="url(#p0236b41b68)" id="g385" transform="translate(-152.686 -73.486)"><use x="225.345" xlink:href="#m62993241de" y="191.617" id="use387" width="100%" height="100%" fill="#00f" stroke="#00f" stroke-width=".5"/></g></g><g id="line2d_38"><g clip-path="url(#p0236b41b68)" id="g390" transform="translate(-152.686 -73.486)"><use x="270.817" xlink:href="#m62993241de" y="191.617" id="use392" width="100%" height="100%" fill="#00f" stroke="#00f" stroke-width=".5"/></g></g><g id="line2d_39"><g clip-path="url(#p0236b41b68)" id="g395" transform="translate(-152.686 -73.486)"><use x="319.583" xlink:href="#m62993241de" y="191.617" id="use397" width="100%" height="100%" fill="#00f" stroke="#00f" stroke-width=".5"/></g></g><g id="line2d_40"><g clip-path="url(#p0236b41b68)" id="g400" transform="translate(-152.686 -73.486)"><use x="365.055" xlink:href="#m62993241de" y="191.617" id="use402" width="100%" height="100%" fill="#00f" stroke="#00f" stroke-width=".5"/></g></g><g id="line2d_41"><g clip-path="url(#p0236b41b68)" id="g405" transform="translate(-152.686 -73.486)"><use x="401.095" xlink:href="#m62993241de" y="191.617" id="use407" width="100%" height="100%" fill="#00f" stroke="#00f" stroke-width=".5"/></g></g><g id="line2d_42"><g clip-path="url(#p0236b41b68)" id="g410" transform="translate(-152.686 -73.486)"><use x="422.845" xlink:href="#m62993241de" y="191.617" id="use412" width="100%" height="100%" fill="#00f" stroke="#00f" stroke-width=".5"/></g></g><g id="line2d_43"><g clip-path="url(#p0236b41b68)" id="g415" transform="translate(-152.686 -73.486)"><use x="167.555" xlink:href="#m62993241de" y="146.145" id="use417" width="100%" height="100%" fill="#00f" stroke="#00f" stroke-width=".5"/></g></g><g id="line2d_44"><g clip-path="url(#p0236b41b68)" id="g420" transform="translate(-152.686 -73.486)"><use x="189.305" xlink:href="#m62993241de" y="146.145" id="use422" width="100%" height="100%" fill="#00f" stroke="#00f" stroke-width=".5"/></g></g><g id="line2d_45"><g clip-path="url(#p0236b41b68)" id="g425" transform="translate(-152.686 -73.486)"><use x="225.345" xlink:href="#m62993241de" y="146.145" id="use427" width="100%" height="100%" fill="#00f" stroke="#00f" stroke-width=".5"/></g></g><g id="line2d_46"><g clip-path="url(#p0236b41b68)" id="g430" transform="translate(-152.686 -73.486)"><use x="270.817" xlink:href="#m62993241de" y="146.145" id="use432" width="100%" height="100%" fill="#00f" stroke="#00f" stroke-width=".5"/></g></g><g id="line2d_47"><g clip-path="url(#p0236b41b68)" id="g435" transform="translate(-152.686 -73.486)"><use x="319.583" xlink:href="#m62993241de" y="146.145" id="use437" width="100%" height="100%" fill="#00f" stroke="#00f" stroke-width=".5"/></g></g><g id="line2d_48"><g clip-path="url(#p0236b41b68)" id="g440" transform="translate(-152.686 -73.486)"><use x="365.055" xlink:href="#m62993241de" y="146.145" id="use442" width="100%" height="100%" fill="#00f" stroke="#00f" stroke-width=".5"/></g></g><g id="line2d_49"><g clip-path="url(#p0236b41b68)" id="g445" transform="translate(-152.686 -73.486)"><use x="401.095" xlink:href="#m62993241de" y="146.145" id="use447" width="100%" height="100%" fill="#00f" stroke="#00f" stroke-width=".5"/></g></g><g id="line2d_50"><g clip-path="url(#p0236b41b68)" id="g450" transform="translate(-152.686 -73.486)"><use x="422.845" xlink:href="#m62993241de" y="146.145" id="use452" width="100%" height="100%" fill="#00f" stroke="#00f" stroke-width=".5"/></g></g><g id="line2d_51"><g clip-path="url(#p0236b41b68)" id="g455" transform="translate(-152.686 -73.486)"><use x="167.555" xlink:href="#m62993241de" y="110.105" id="use457" width="100%" height="100%" fill="#00f" stroke="#00f" stroke-width=".5"/></g></g><g id="line2d_52"><g clip-path="url(#p0236b41b68)" id="g460" transform="translate(-152.686 -73.486)"><use x="189.305" xlink:href="#m62993241de" y="110.105" id="use462" width="100%" height="100%" fill="#00f" stroke="#00f" stroke-width=".5"/></g></g><g id="line2d_53"><g clip-path="url(#p0236b41b68)" id="g465" transform="translate(-152.686 -73.486)"><use x="225.345" xlink:href="#m62993241de" y="110.105" id="use467" width="100%" height="100%" fill="#00f" stroke="#00f" stroke-width=".5"/></g></g><g id="line2d_54"><g clip-path="url(#p0236b41b68)" id="g470" transform="translate(-152.686 -73.486)"><use x="270.817" xlink:href="#m62993241de" y="110.105" id="use472" width="100%" height="100%" fill="#00f" stroke="#00f" stroke-width=".5"/></g></g><g id="line2d_55"><g clip-path="url(#p0236b41b68)" id="g475" transform="translate(-152.686 -73.486)"><use x="319.583" xlink:href="#m62993241de" y="110.105" id="use477" width="100%" height="100%" fill="#00f" stroke="#00f" stroke-width=".5"/></g></g><g id="line2d_56"><g clip-path="url(#p0236b41b68)" id="g480" transform="translate(-152.686 -73.486)"><use x="365.055" xlink:href="#m62993241de" y="110.105" id="use482" width="100%" height="100%" fill="#00f" stroke="#00f" stroke-width=".5"/></g></g><g id="line2d_57"><g clip-path="url(#p0236b41b68)" id="g485" transform="translate(-152.686 -73.486)"><use x="401.095" xlink:href="#m62993241de" y="110.105" id="use487" width="100%" height="100%" fill="#00f" stroke="#00f" stroke-width=".5"/></g></g><g id="line2d_58"><g clip-path="url(#p0236b41b68)" id="g490" transform="translate(-152.686 -73.486)"><use x="422.845" xlink:href="#m62993241de" y="110.105" id="use492" width="100%" height="100%" fill="#00f" stroke="#00f" stroke-width=".5"/></g></g><g id="line2d_59"><g clip-path="url(#p0236b41b68)" id="g495" transform="translate(-152.686 -73.486)"><use x="167.555" xlink:href="#m62993241de" y="88.355" id="use497" width="100%" height="100%" fill="#00f" stroke="#00f" stroke-width=".5"/></g></g><g id="line2d_60"><g clip-path="url(#p0236b41b68)" id="g500" transform="translate(-152.686 -73.486)"><use x="189.305" xlink:href="#m62993241de" y="88.355" id="use502" width="100%" height="100%" fill="#00f" stroke="#00f" stroke-width=".5"/></g></g><g id="line2d_61"><g clip-path="url(#p0236b41b68)" id="g505" transform="translate(-152.686 -73.486)"><use x="225.345" xlink:href="#m62993241de" y="88.355" id="use507" width="100%" height="100%" fill="#00f" stroke="#00f" stroke-width=".5"/></g></g><g id="line2d_62"><g clip-path="url(#p0236b41b68)" id="g510" transform="translate(-152.686 -73.486)"><use x="270.817" xlink:href="#m62993241de" y="88.355" id="use512" width="100%" height="100%" fill="#00f" stroke="#00f" stroke-width=".5"/></g></g><g id="line2d_63"><g clip-path="url(#p0236b41b68)" id="g515" transform="translate(-152.686 -73.486)"><use x="319.583" xlink:href="#m62993241de" y="88.355" id="use517" width="100%" height="100%" fill="#00f" stroke="#00f" stroke-width=".5"/></g></g><g id="line2d_64"><g clip-path="url(#p0236b41b68)" id="g520" transform="translate(-152.686 -73.486)"><use x="365.055" xlink:href="#m62993241de" y="88.355" id="use522" width="100%" height="100%" fill="#00f" stroke="#00f" stroke-width=".5"/></g></g><g id="line2d_65"><g clip-path="url(#p0236b41b68)" id="g525" transform="translate(-152.686 -73.486)"><use x="401.095" xlink:href="#m62993241de" y="88.355" id="use527" width="100%" height="100%" fill="#00f" stroke="#00f" stroke-width=".5"/></g></g><g id="line2d_66"><g clip-path="url(#p0236b41b68)" id="g530" transform="translate(-152.686 -73.486)"><use x="422.845" xlink:href="#m62993241de" y="88.355" id="use532" width="100%" height="100%" fill="#00f" stroke="#00f" stroke-width=".5"/></g></g></g></g><defs id="defs534"><clipPath id="p0236b41b68" stroke-linejoin="round" stroke-miterlimit="100000"><path id="rect537" d="M72 43.2h446.4v345.6H72z"/></clipPath></defs></svg>