<svg xmlns="http://www.w3.org/2000/svg" xmlns:xlink="http://www.w3.org/1999/xlink" id="svg2654" width="369.703" viewBox="0 0 277.277 248.314" version="1.1" height="331.085"><defs id="defs2252"><style id="style2250" type="text/css">*{stroke-linecap:butt;stroke-linejoin:round}</style></defs><g transform="translate(-46.984 -18.271)" id="figure_1"><g id="axes_1"><g id="patch_2"><path id="path2254" d="M185.76 265.694a4.478 4.478 0 100-8.957 4.478 4.478 0 000 8.957z" clip-path="url(#p516fab4ee7)" opacity=".5" fill="#1f77b4" stroke="#1f77b4" stroke-linejoin="miter"/></g><g id="patch_3"><path id="path2257" d="M185.76 246.672a21.517 21.517 0 100-43.033 21.517 21.517 0 000 43.033z" clip-path="url(#p516fab4ee7)" opacity=".5" fill="#1f77b4" stroke="#1f77b4" stroke-linejoin="miter"/></g><g id="patch_4"><path id="path2260" d="M185.76 174.948a23.142 23.142 0 100-46.284 23.142 23.142 0 000 46.284z" clip-path="url(#p516fab4ee7)" opacity=".5" fill="#1f77b4" stroke="#1f77b4" stroke-linejoin="miter"/></g><g id="patch_5"><path id="path2263" d="M185.76 95.385a15.743 15.743 0 100-31.485 15.743 15.743 0 000 31.485z" clip-path="url(#p516fab4ee7)" opacity=".5" fill="#1f77b4" stroke="#1f77b4" stroke-linejoin="miter"/></g><g id="patch_6"><path id="path2266" d="M185.76 64.876a11.792 11.792 0 100-23.584 11.792 11.792 0 000 23.584z" clip-path="url(#p516fab4ee7)" opacity=".5" fill="#1f77b4" stroke="#1f77b4" stroke-linejoin="miter"/></g><g id="patch_7"><path id="path2269" d="M185.76 35.394a7.049 7.049 0 100-14.097 7.049 7.049 0 000 14.097z" clip-path="url(#p516fab4ee7)" opacity=".5" fill="#1f77b4" stroke="#1f77b4" stroke-linejoin="miter"/></g><g id="patch_8"><path id="path2272" d="M114.003 141.407a4.478 4.478 0 100-8.957 4.478 4.478 0 000 8.957z" clip-path="url(#p516fab4ee7)" opacity=".5" fill="#1f77b4" stroke="#1f77b4" stroke-linejoin="miter"/></g><g id="patch_9"><path id="path2275" d="M145.23 176.474a21.517 21.517 0 100-43.033 21.517 21.517 0 000 43.033z" clip-path="url(#p516fab4ee7)" opacity=".5" fill="#1f77b4" stroke="#1f77b4" stroke-linejoin="miter"/></g><g id="patch_10"><path id="path2278" d="M208.753 214.774a23.142 23.142 0 100-46.284 23.142 23.142 0 000 46.284z" clip-path="url(#p516fab4ee7)" opacity=".5" fill="#1f77b4" stroke="#1f77b4" stroke-linejoin="miter"/></g><g id="patch_11"><path id="path2281" d="M271.25 243.457a15.743 15.743 0 10-.001-31.485 15.743 15.743 0 000 31.485z" clip-path="url(#p516fab4ee7)" opacity=".5" fill="#1f77b4" stroke="#1f77b4" stroke-linejoin="miter"/></g><g id="patch_12"><path id="path2284" d="M294.25 252.786a11.792 11.792 0 100-23.584 11.792 11.792 0 000 23.584z" clip-path="url(#p516fab4ee7)" opacity=".5" fill="#1f77b4" stroke="#1f77b4" stroke-linejoin="miter"/></g><g id="patch_13"><path id="path2287" d="M315.674 260.412a7.049 7.049 0 100-14.097 7.049 7.049 0 000 14.097z" clip-path="url(#p516fab4ee7)" opacity=".5" fill="#1f77b4" stroke="#1f77b4" stroke-linejoin="miter"/></g><g id="patch_14"><path id="path2290" d="M257.517 141.407a4.478 4.478 0 100-8.957 4.478 4.478 0 000 8.957z" clip-path="url(#p516fab4ee7)" opacity=".5" fill="#1f77b4" stroke="#1f77b4" stroke-linejoin="miter"/></g><g id="patch_15"><path id="path2293" d="M226.29 176.474a21.517 21.517 0 10-.002-43.033 21.517 21.517 0 00.001 43.033z" clip-path="url(#p516fab4ee7)" opacity=".5" fill="#1f77b4" stroke="#1f77b4" stroke-linejoin="miter"/></g><g id="patch_16"><path id="path2296" d="M162.767 214.774a23.142 23.142 0 10-.001-46.284 23.142 23.142 0 000 46.284z" clip-path="url(#p516fab4ee7)" opacity=".5" fill="#1f77b4" stroke="#1f77b4" stroke-linejoin="miter"/></g><g id="patch_17"><path id="path2299" d="M100.27 243.457a15.743 15.743 0 100-31.485 15.743 15.743 0 000 31.485z" clip-path="url(#p516fab4ee7)" opacity=".5" fill="#1f77b4" stroke="#1f77b4" stroke-linejoin="miter"/></g><g id="patch_18"><path id="path2302" d="M77.27 252.786a11.792 11.792 0 100-23.584 11.792 11.792 0 000 23.584z" clip-path="url(#p516fab4ee7)" opacity=".5" fill="#1f77b4" stroke="#1f77b4" stroke-linejoin="miter"/></g><g id="patch_19"><path id="path2305" d="M55.846 260.412a7.049 7.049 0 100-14.098 7.049 7.049 0 000 14.098z" clip-path="url(#p516fab4ee7)" opacity=".5" fill="#1f77b4" stroke="#1f77b4" stroke-linejoin="miter"/></g><g id="patch_20"><path id="path2308" d="M203.334 133.633a20.083 20.083 0 100-40.166 20.083 20.083 0 000 40.166z" clip-path="url(#p516fab4ee7)" opacity=".5" fill="#1f77b4" stroke="#1f77b4" stroke-linejoin="miter"/></g><g id="patch_21"><path id="path2311" d="M260.038 182.177a16.875 16.875 0 100-33.749 16.875 16.875 0 000 33.75z" clip-path="url(#p516fab4ee7)" opacity=".5" fill="#1f77b4" stroke="#1f77b4" stroke-linejoin="miter"/></g><g id="patch_22"><path id="path2314" d="M226.519 89.815a4.778 4.778 0 100-9.556 4.778 4.778 0 000 9.556z" clip-path="url(#p516fab4ee7)" opacity=".5" fill="#1f77b4" stroke="#1f77b4" stroke-linejoin="miter"/></g><g id="patch_23"><path id="path2317" d="M210.384 94.527a15 15 0 100-30 15 15 0 000 30z" clip-path="url(#p516fab4ee7)" opacity=".5" fill="#1f77b4" stroke="#1f77b4" stroke-linejoin="miter"/></g><g id="patch_24"><path id="path2320" d="M198.311 55.941a8.96 8.96 0 100-17.92 8.96 8.96 0 000 17.92z" clip-path="url(#p516fab4ee7)" opacity=".5" fill="#1f77b4" stroke="#1f77b4" stroke-linejoin="miter"/></g><g id="patch_25"><path id="path2323" d="M120.849 215.624a20.083 20.083 0 10-.001-40.167 20.083 20.083 0 000 40.167z" clip-path="url(#p516fab4ee7)" opacity=".5" fill="#1f77b4" stroke="#1f77b4" stroke-linejoin="miter"/></g><g id="patch_26"><path id="path2326" d="M137.316 137.432a16.875 16.875 0 10-.001-33.75 16.875 16.875 0 000 33.75z" clip-path="url(#p516fab4ee7)" opacity=".5" fill="#1f77b4" stroke="#1f77b4" stroke-linejoin="miter"/></g><g id="patch_27"><path id="path2329" d="M84.563 194.498a4.778 4.778 0 100-9.556 4.778 4.778 0 000 9.556z" clip-path="url(#p516fab4ee7)" opacity=".5" fill="#1f77b4" stroke="#1f77b4" stroke-linejoin="miter"/></g><g id="patch_28"><path id="path2332" d="M87.858 221.448a15 15 0 100-30 15 15 0 000 30z" clip-path="url(#p516fab4ee7)" opacity=".5" fill="#1f77b4" stroke="#1f77b4" stroke-linejoin="miter"/></g><g id="patch_29"><path id="path2335" d="M65.709 242.136a8.96 8.96 0 100-17.92 8.96 8.96 0 000 17.92z" clip-path="url(#p516fab4ee7)" opacity=".5" fill="#1f77b4" stroke="#1f77b4" stroke-linejoin="miter"/></g><g id="patch_30"><path id="path2338" d="M233.097 246.063a20.083 20.083 0 100-40.167 20.083 20.083 0 000 40.167z" clip-path="url(#p516fab4ee7)" opacity=".5" fill="#1f77b4" stroke="#1f77b4" stroke-linejoin="miter"/></g><g id="patch_31"><path id="path2341" d="M159.926 266.086a16.875 16.875 0 100-33.75 16.875 16.875 0 000 33.75z" clip-path="url(#p516fab4ee7)" opacity=".5" fill="#1f77b4" stroke="#1f77b4" stroke-linejoin="miter"/></g><g id="patch_32"><path id="path2344" d="M246.199 265.094a4.778 4.778 0 100-9.556 4.778 4.778 0 000 9.556z" clip-path="url(#p516fab4ee7)" opacity=".5" fill="#1f77b4" stroke="#1f77b4" stroke-linejoin="miter"/></g><g id="patch_33"><path id="path2347" d="M259.038 264.097a15 15 0 100-30 15 15 0 000 30z" clip-path="url(#p516fab4ee7)" opacity=".5" fill="#1f77b4" stroke="#1f77b4" stroke-linejoin="miter"/></g><g id="patch_34"><path id="path2350" d="M293.26 263.876a8.96 8.96 0 100-17.921 8.96 8.96 0 000 17.92z" clip-path="url(#p516fab4ee7)" opacity=".5" fill="#1f77b4" stroke="#1f77b4" stroke-linejoin="miter"/></g><g id="patch_35"><path id="path2353" d="M168.186 133.633a20.083 20.083 0 100-40.166 20.083 20.083 0 000 40.166z" clip-path="url(#p516fab4ee7)" opacity=".5" fill="#1f77b4" stroke="#1f77b4" stroke-linejoin="miter"/></g><g id="patch_36"><path id="path2356" d="M111.482 182.177a16.875 16.875 0 10-.001-33.749 16.875 16.875 0 000 33.75z" clip-path="url(#p516fab4ee7)" opacity=".5" fill="#1f77b4" stroke="#1f77b4" stroke-linejoin="miter"/></g><g id="patch_37"><path id="path2359" d="M145.001 89.815a4.778 4.778 0 100-9.556 4.778 4.778 0 000 9.556z" clip-path="url(#p516fab4ee7)" opacity=".5" fill="#1f77b4" stroke="#1f77b4" stroke-linejoin="miter"/></g><g id="patch_38"><path id="path2362" d="M161.136 94.527a15 15 0 100-30 15 15 0 000 30z" clip-path="url(#p516fab4ee7)" opacity=".5" fill="#1f77b4" stroke="#1f77b4" stroke-linejoin="miter"/></g><g id="patch_39"><path id="path2365" d="M173.209 55.941a8.96 8.96 0 100-17.92 8.96 8.96 0 000 17.92z" clip-path="url(#p516fab4ee7)" opacity=".5" fill="#1f77b4" stroke="#1f77b4" stroke-linejoin="miter"/></g><g id="patch_40"><path id="path2368" d="M138.423 246.063a20.083 20.083 0 10-.001-40.167 20.083 20.083 0 000 40.167z" clip-path="url(#p516fab4ee7)" opacity=".5" fill="#1f77b4" stroke="#1f77b4" stroke-linejoin="miter"/></g><g id="patch_41"><path id="path2371" d="M211.594 266.086a16.875 16.875 0 100-33.75 16.875 16.875 0 000 33.75z" clip-path="url(#p516fab4ee7)" opacity=".5" fill="#1f77b4" stroke="#1f77b4" stroke-linejoin="miter"/></g><g id="patch_42"><path id="path2374" d="M125.321 265.094a4.778 4.778 0 100-9.556 4.778 4.778 0 000 9.556z" clip-path="url(#p516fab4ee7)" opacity=".5" fill="#1f77b4" stroke="#1f77b4" stroke-linejoin="miter"/></g><g id="patch_43"><path id="path2377" d="M112.482 264.097a15 15 0 100-30 15 15 0 000 30z" clip-path="url(#p516fab4ee7)" opacity=".5" fill="#1f77b4" stroke="#1f77b4" stroke-linejoin="miter"/></g><g id="patch_44"><path id="path2380" d="M78.26 263.876a8.96 8.96 0 100-17.921 8.96 8.96 0 000 17.92z" clip-path="url(#p516fab4ee7)" opacity=".5" fill="#1f77b4" stroke="#1f77b4" stroke-linejoin="miter"/></g><g id="patch_45"><path id="path2383" d="M250.671 215.624a20.083 20.083 0 100-40.167 20.083 20.083 0 000 40.167z" clip-path="url(#p516fab4ee7)" opacity=".5" fill="#1f77b4" stroke="#1f77b4" stroke-linejoin="miter"/></g><g id="patch_46"><path id="path2386" d="M234.204 137.432a16.875 16.875 0 100-33.75 16.875 16.875 0 000 33.75z" clip-path="url(#p516fab4ee7)" opacity=".5" fill="#1f77b4" stroke="#1f77b4" stroke-linejoin="miter"/></g><g id="patch_47"><path id="path2389" d="M286.957 194.498a4.778 4.778 0 100-9.556 4.778 4.778 0 000 9.556z" clip-path="url(#p516fab4ee7)" opacity=".5" fill="#1f77b4" stroke="#1f77b4" stroke-linejoin="miter"/></g><g id="patch_48"><path id="path2392" d="M283.662 221.448a15 15 0 100-30 15 15 0 000 30z" clip-path="url(#p516fab4ee7)" opacity=".5" fill="#1f77b4" stroke="#1f77b4" stroke-linejoin="miter"/></g><g id="patch_49"><path id="path2395" d="M305.811 242.136a8.96 8.96 0 100-17.92 8.96 8.96 0 000 17.92z" clip-path="url(#p516fab4ee7)" opacity=".5" fill="#1f77b4" stroke="#1f77b4" stroke-linejoin="miter"/></g><g id="line2d_1"><path id="path2398" d="M48.008 257.889h275.504L185.76 19.296" clip-path="url(#p516fab4ee7)" fill="none" stroke="#000" stroke-width="1.5" stroke-linecap="square"/></g><g id="line2d_2"><path id="path2401" d="M185.76 19.296L48.008 257.889" clip-path="url(#p516fab4ee7)" fill="none" stroke="#000" stroke-width="1.5" stroke-linecap="square"/></g><g id="line2d_3"><defs id="defs2405"><path id="mc241360729" d="M0 1.5a1.5 1.5 0 100-3 1.5 1.5 0 000 3z" stroke="#1f77b4"/></defs><g id="g2409" clip-path="url(#p516fab4ee7)"><use height="100%" width="100%" id="use2407" y="261.216" xlink:href="#mc241360729" x="185.76" fill="#1f77b4" stroke="#1f77b4"/></g></g><g id="line2d_4"><g id="g2414" clip-path="url(#p516fab4ee7)"><use height="100%" width="100%" id="use2412" y="225.157" xlink:href="#mc241360729" x="185.76" fill="#1f77b4" stroke="#1f77b4"/></g></g><g id="line2d_5"><g id="g2419" clip-path="url(#p516fab4ee7)"><use height="100%" width="100%" id="use2417" y="151.807" xlink:href="#mc241360729" x="185.76" fill="#1f77b4" stroke="#1f77b4"/></g></g><g id="line2d_6"><g id="g2424" clip-path="url(#p516fab4ee7)"><use height="100%" width="100%" id="use2422" y="79.643" xlink:href="#mc241360729" x="185.76" fill="#1f77b4" stroke="#1f77b4"/></g></g><g id="line2d_7"><g id="g2429" clip-path="url(#p516fab4ee7)"><use height="100%" width="100%" id="use2427" y="53.085" xlink:href="#mc241360729" x="185.76" fill="#1f77b4" stroke="#1f77b4"/></g></g><g id="line2d_8"><g id="g2434" clip-path="url(#p516fab4ee7)"><use height="100%" width="100%" id="use2432" y="28.346" xlink:href="#mc241360729" x="185.76" fill="#1f77b4" stroke="#1f77b4"/></g></g><g id="line2d_9"><g id="g2439" clip-path="url(#p516fab4ee7)"><use height="100%" width="100%" id="use2437" y="136.929" xlink:href="#mc241360729" x="114.003" fill="#1f77b4" stroke="#1f77b4"/></g></g><g id="line2d_10"><g id="g2444" clip-path="url(#p516fab4ee7)"><use height="100%" width="100%" id="use2442" y="154.958" xlink:href="#mc241360729" x="145.231" fill="#1f77b4" stroke="#1f77b4"/></g></g><g id="line2d_11"><g id="g2449" clip-path="url(#p516fab4ee7)"><use height="100%" width="100%" id="use2447" y="191.633" xlink:href="#mc241360729" x="208.753" fill="#1f77b4" stroke="#1f77b4"/></g></g><g id="line2d_12"><g id="g2454" clip-path="url(#p516fab4ee7)"><use height="100%" width="100%" id="use2452" y="227.715" xlink:href="#mc241360729" x="271.249" fill="#1f77b4" stroke="#1f77b4"/></g></g><g id="line2d_13"><g id="g2459" clip-path="url(#p516fab4ee7)"><use height="100%" width="100%" id="use2457" y="240.994" xlink:href="#mc241360729" x="294.25" fill="#1f77b4" stroke="#1f77b4"/></g></g><g id="line2d_14"><g id="g2464" clip-path="url(#p516fab4ee7)"><use height="100%" width="100%" id="use2462" y="253.364" xlink:href="#mc241360729" x="315.674" fill="#1f77b4" stroke="#1f77b4"/></g></g><g id="line2d_15"><g id="g2469" clip-path="url(#p516fab4ee7)"><use height="100%" width="100%" id="use2467" y="136.929" xlink:href="#mc241360729" x="257.517" fill="#1f77b4" stroke="#1f77b4"/></g></g><g id="line2d_16"><g id="g2474" clip-path="url(#p516fab4ee7)"><use height="100%" width="100%" id="use2472" y="154.958" xlink:href="#mc241360729" x="226.289" fill="#1f77b4" stroke="#1f77b4"/></g></g><g id="line2d_17"><g id="g2479" clip-path="url(#p516fab4ee7)"><use height="100%" width="100%" id="use2477" y="191.633" xlink:href="#mc241360729" x="162.767" fill="#1f77b4" stroke="#1f77b4"/></g></g><g id="line2d_18"><g id="g2484" clip-path="url(#p516fab4ee7)"><use height="100%" width="100%" id="use2482" y="227.715" xlink:href="#mc241360729" x="100.271" fill="#1f77b4" stroke="#1f77b4"/></g></g><g id="line2d_19"><g id="g2489" clip-path="url(#p516fab4ee7)"><use height="100%" width="100%" id="use2487" y="240.994" xlink:href="#mc241360729" x="77.27" fill="#1f77b4" stroke="#1f77b4"/></g></g><g id="line2d_20"><g id="g2494" clip-path="url(#p516fab4ee7)"><use height="100%" width="100%" id="use2492" y="253.364" xlink:href="#mc241360729" x="55.846" fill="#1f77b4" stroke="#1f77b4"/></g></g><g id="line2d_21"><g id="g2499" clip-path="url(#p516fab4ee7)"><use height="100%" width="100%" id="use2497" y="113.551" xlink:href="#mc241360729" x="203.334" fill="#1f77b4" stroke="#1f77b4"/></g></g><g id="line2d_22"><g id="g2504" clip-path="url(#p516fab4ee7)"><use height="100%" width="100%" id="use2502" y="165.304" xlink:href="#mc241360729" x="260.038" fill="#1f77b4" stroke="#1f77b4"/></g></g><g id="line2d_23"><g id="g2509" clip-path="url(#p516fab4ee7)"><use height="100%" width="100%" id="use2507" y="85.037" xlink:href="#mc241360729" x="226.519" fill="#1f77b4" stroke="#1f77b4"/></g></g><g id="line2d_24"><g id="g2514" clip-path="url(#p516fab4ee7)"><use height="100%" width="100%" id="use2512" y="79.527" xlink:href="#mc241360729" x="210.384" fill="#1f77b4" stroke="#1f77b4"/></g></g><g id="line2d_25"><g id="g2519" clip-path="url(#p516fab4ee7)"><use height="100%" width="100%" id="use2517" y="46.981" xlink:href="#mc241360729" x="198.311" fill="#1f77b4" stroke="#1f77b4"/></g></g><g id="line2d_26"><g id="g2524" clip-path="url(#p516fab4ee7)"><use height="100%" width="100%" id="use2522" y="195.542" xlink:href="#mc241360729" x="120.849" fill="#1f77b4" stroke="#1f77b4"/></g></g><g id="line2d_27"><g id="g2529" clip-path="url(#p516fab4ee7)"><use height="100%" width="100%" id="use2527" y="120.558" xlink:href="#mc241360729" x="137.316" fill="#1f77b4" stroke="#1f77b4"/></g></g><g id="line2d_28"><g id="g2534" clip-path="url(#p516fab4ee7)"><use height="100%" width="100%" id="use2532" y="189.72" xlink:href="#mc241360729" x="84.563" fill="#1f77b4" stroke="#1f77b4"/></g></g><g id="line2d_29"><g id="g2539" clip-path="url(#p516fab4ee7)"><use height="100%" width="100%" id="use2537" y="206.448" xlink:href="#mc241360729" x="87.858" fill="#1f77b4" stroke="#1f77b4"/></g></g><g id="line2d_30"><g id="g2544" clip-path="url(#p516fab4ee7)"><use height="100%" width="100%" id="use2542" y="233.176" xlink:href="#mc241360729" x="65.709" fill="#1f77b4" stroke="#1f77b4"/></g></g><g id="line2d_31"><g id="g2549" clip-path="url(#p516fab4ee7)"><use height="100%" width="100%" id="use2547" y="225.981" xlink:href="#mc241360729" x="233.097" fill="#1f77b4" stroke="#1f77b4"/></g></g><g id="line2d_32"><g id="g2554" clip-path="url(#p516fab4ee7)"><use height="100%" width="100%" id="use2552" y="249.212" xlink:href="#mc241360729" x="159.926" fill="#1f77b4" stroke="#1f77b4"/></g></g><g id="line2d_33"><g id="g2559" clip-path="url(#p516fab4ee7)"><use height="100%" width="100%" id="use2557" y="260.316" xlink:href="#mc241360729" x="246.199" fill="#1f77b4" stroke="#1f77b4"/></g></g><g id="line2d_34"><g id="g2564" clip-path="url(#p516fab4ee7)"><use height="100%" width="100%" id="use2562" y="249.098" xlink:href="#mc241360729" x="259.038" fill="#1f77b4" stroke="#1f77b4"/></g></g><g id="line2d_35"><g id="g2569" clip-path="url(#p516fab4ee7)"><use height="100%" width="100%" id="use2567" y="254.916" xlink:href="#mc241360729" x="293.26" fill="#1f77b4" stroke="#1f77b4"/></g></g><g id="line2d_36"><g id="g2574" clip-path="url(#p516fab4ee7)"><use height="100%" width="100%" id="use2572" y="113.551" xlink:href="#mc241360729" x="168.186" fill="#1f77b4" stroke="#1f77b4"/></g></g><g id="line2d_37"><g id="g2579" clip-path="url(#p516fab4ee7)"><use height="100%" width="100%" id="use2577" y="165.304" xlink:href="#mc241360729" x="111.482" fill="#1f77b4" stroke="#1f77b4"/></g></g><g id="line2d_38"><g id="g2584" clip-path="url(#p516fab4ee7)"><use height="100%" width="100%" id="use2582" y="85.037" xlink:href="#mc241360729" x="145.001" fill="#1f77b4" stroke="#1f77b4"/></g></g><g id="line2d_39"><g id="g2589" clip-path="url(#p516fab4ee7)"><use height="100%" width="100%" id="use2587" y="79.527" xlink:href="#mc241360729" x="161.136" fill="#1f77b4" stroke="#1f77b4"/></g></g><g id="line2d_40"><g id="g2594" clip-path="url(#p516fab4ee7)"><use height="100%" width="100%" id="use2592" y="46.981" xlink:href="#mc241360729" x="173.209" fill="#1f77b4" stroke="#1f77b4"/></g></g><g id="line2d_41"><g id="g2599" clip-path="url(#p516fab4ee7)"><use height="100%" width="100%" id="use2597" y="225.981" xlink:href="#mc241360729" x="138.423" fill="#1f77b4" stroke="#1f77b4"/></g></g><g id="line2d_42"><g id="g2604" clip-path="url(#p516fab4ee7)"><use height="100%" width="100%" id="use2602" y="249.212" xlink:href="#mc241360729" x="211.594" fill="#1f77b4" stroke="#1f77b4"/></g></g><g id="line2d_43"><g id="g2609" clip-path="url(#p516fab4ee7)"><use height="100%" width="100%" id="use2607" y="260.316" xlink:href="#mc241360729" x="125.321" fill="#1f77b4" stroke="#1f77b4"/></g></g><g id="line2d_44"><g id="g2614" clip-path="url(#p516fab4ee7)"><use height="100%" width="100%" id="use2612" y="249.098" xlink:href="#mc241360729" x="112.482" fill="#1f77b4" stroke="#1f77b4"/></g></g><g id="line2d_45"><g id="g2619" clip-path="url(#p516fab4ee7)"><use height="100%" width="100%" id="use2617" y="254.916" xlink:href="#mc241360729" x="78.26" fill="#1f77b4" stroke="#1f77b4"/></g></g><g id="line2d_46"><g id="g2624" clip-path="url(#p516fab4ee7)"><use height="100%" width="100%" id="use2622" y="195.542" xlink:href="#mc241360729" x="250.671" fill="#1f77b4" stroke="#1f77b4"/></g></g><g id="line2d_47"><g id="g2629" clip-path="url(#p516fab4ee7)"><use height="100%" width="100%" id="use2627" y="120.558" xlink:href="#mc241360729" x="234.204" fill="#1f77b4" stroke="#1f77b4"/></g></g><g id="line2d_48"><g id="g2634" clip-path="url(#p516fab4ee7)"><use height="100%" width="100%" id="use2632" y="189.72" xlink:href="#mc241360729" x="286.957" fill="#1f77b4" stroke="#1f77b4"/></g></g><g id="line2d_49"><g id="g2639" clip-path="url(#p516fab4ee7)"><use height="100%" width="100%" id="use2637" y="206.448" xlink:href="#mc241360729" x="283.662" fill="#1f77b4" stroke="#1f77b4"/></g></g><g id="line2d_50"><g id="g2644" clip-path="url(#p516fab4ee7)"><use height="100%" width="100%" id="use2642" y="233.176" xlink:href="#mc241360729" x="305.811" fill="#1f77b4" stroke="#1f77b4"/></g></g></g></g><defs id="defs2652"><clipPath id="p516fab4ee7"><path id="rect2649" d="M7.2 7.2h357.12v266.112H7.2z"/></clipPath></defs></svg>