<svg xmlns="http://www.w3.org/2000/svg" xmlns:xlink="http://www.w3.org/1999/xlink" id="svg259" width="350.682" height="348.943" version="1.1" viewBox="0 0 263.012 261.707"><defs id="defs4"><style id="style2" type="text/css">*{stroke-linecap:butt;stroke-linejoin:round}</style></defs><g id="figure_1" transform="translate(-47.054 -2.202)"><g id="axes_1"><g id="patch_2"><path id="path6" fill="none" stroke="#000" stroke-linejoin="miter" d="M178.56 252.096c31.57 0 61.85-12.543 84.174-34.866a119.046 119.046 0 0 0 34.866-84.174c0-31.57-12.543-61.85-34.866-84.174a119.046 119.046 0 0 0-84.174-34.866c-31.57 0-61.85 12.543-84.174 34.866a119.046 119.046 0 0 0-34.866 84.174c0 31.57 12.543 61.85 34.866 84.174a119.046 119.046 0 0 0 84.174 34.866z" clip-path="url(#p45113e0a2f)"/></g><g id="patch_3"><path id="path9" fill="#1f77b4" d="M297.6 145.522a12.466 12.466 0 1 0 0-24.933 12.466 12.466 0 0 0 0 24.933z" clip-path="url(#p45113e0a2f)" opacity=".5"/></g><g id="patch_4"><path id="path12" fill="#1f77b4" d="M294.999 120.772a12.466 12.466 0 1 0 0-24.933 12.466 12.466 0 0 0 0 24.933z" clip-path="url(#p45113e0a2f)" opacity=".5"/></g><g id="patch_5"><path id="path15" fill="#1f77b4" d="M287.308 97.104a12.466 12.466 0 1 0 0-24.933 12.466 12.466 0 0 0 0 24.933z" clip-path="url(#p45113e0a2f)" opacity=".5"/></g><g id="patch_6"><path id="path18" fill="#1f77b4" d="M274.865 75.552a12.466 12.466 0 1 0 0-24.933 12.466 12.466 0 0 0 0 24.933z" clip-path="url(#p45113e0a2f)" opacity=".5"/></g><g id="patch_7"><path id="path21" fill="#1f77b4" d="M258.213 57.058a12.466 12.466 0 1 0 0-24.933 12.466 12.466 0 0 0 0 24.933z" clip-path="url(#p45113e0a2f)" opacity=".5"/></g><g id="patch_8"><path id="path24" fill="#1f77b4" d="M238.08 42.43a12.466 12.466 0 1 0 0-24.933 12.466 12.466 0 0 0 0 24.933z" clip-path="url(#p45113e0a2f)" opacity=".5"/></g><g id="patch_9"><path id="path27" fill="#1f77b4" d="M215.345 32.308a12.466 12.466 0 1 0 0-24.933 12.466 12.466 0 0 0 0 24.933z" clip-path="url(#p45113e0a2f)" opacity=".5"/></g><g id="patch_10"><path id="path30" fill="#1f77b4" d="M191.003 27.134a12.466 12.466 0 1 0 0-24.933 12.466 12.466 0 0 0 0 24.933z" clip-path="url(#p45113e0a2f)" opacity=".5"/></g><g id="patch_11"><path id="path33" fill="#1f77b4" d="M166.117 27.134a12.466 12.466 0 1 0 0-24.933 12.466 12.466 0 0 0 0 24.933z" clip-path="url(#p45113e0a2f)" opacity=".5"/></g><g id="patch_12"><path id="path36" fill="#1f77b4" d="M141.775 32.308a12.466 12.466 0 1 0 0-24.933 12.466 12.466 0 0 0 0 24.933z" clip-path="url(#p45113e0a2f)" opacity=".5"/></g><g id="patch_13"><path id="path39" fill="#1f77b4" d="M119.04 42.43a12.466 12.466 0 1 0 0-24.933 12.466 12.466 0 0 0 0 24.933z" clip-path="url(#p45113e0a2f)" opacity=".5"/></g><g id="patch_14"><path id="path42" fill="#1f77b4" d="M98.907 57.058a12.466 12.466 0 1 0 0-24.933 12.466 12.466 0 0 0 0 24.933z" clip-path="url(#p45113e0a2f)" opacity=".5"/></g><g id="patch_15"><path id="path45" fill="#1f77b4" d="M82.255 75.552a12.466 12.466 0 1 0 0-24.933 12.466 12.466 0 0 0 0 24.933z" clip-path="url(#p45113e0a2f)" opacity=".5"/></g><g id="patch_16"><path id="path48" fill="#1f77b4" d="M69.812 97.104a12.466 12.466 0 1 0 0-24.933 12.466 12.466 0 0 0 0 24.933z" clip-path="url(#p45113e0a2f)" opacity=".5"/></g><g id="patch_17"><path id="path51" fill="#1f77b4" d="M62.121 120.772a12.466 12.466 0 1 0 0-24.933 12.466 12.466 0 0 0 0 24.933z" clip-path="url(#p45113e0a2f)" opacity=".5"/></g><g id="patch_18"><path id="path54" fill="#1f77b4" d="M59.52 145.522a12.466 12.466 0 1 0 0-24.933 12.466 12.466 0 0 0 0 24.933z" clip-path="url(#p45113e0a2f)" opacity=".5"/></g><g id="patch_19"><path id="path57" fill="#1f77b4" d="M62.121 170.272a12.466 12.466 0 1 0 0-24.933 12.466 12.466 0 0 0 0 24.933z" clip-path="url(#p45113e0a2f)" opacity=".5"/></g><g id="patch_20"><path id="path60" fill="#1f77b4" d="M69.812 193.94a12.466 12.466 0 1 0 0-24.933 12.466 12.466 0 0 0 0 24.933z" clip-path="url(#p45113e0a2f)" opacity=".5"/></g><g id="patch_21"><path id="path63" fill="#1f77b4" d="M82.255 215.492a12.466 12.466 0 1 0 0-24.933 12.466 12.466 0 0 0 0 24.933z" clip-path="url(#p45113e0a2f)" opacity=".5"/></g><g id="patch_22"><path id="path66" fill="#1f77b4" d="M98.907 233.986a12.466 12.466 0 1 0 0-24.933 12.466 12.466 0 0 0 0 24.933z" clip-path="url(#p45113e0a2f)" opacity=".5"/></g><g id="patch_23"><path id="path69" fill="#1f77b4" d="M119.04 248.613a12.466 12.466 0 1 0 0-24.932 12.466 12.466 0 0 0 0 24.932z" clip-path="url(#p45113e0a2f)" opacity=".5"/></g><g id="patch_24"><path id="path72" fill="#1f77b4" d="M141.775 258.736a12.466 12.466 0 1 0 0-24.933 12.466 12.466 0 0 0 0 24.933z" clip-path="url(#p45113e0a2f)" opacity=".5"/></g><g id="patch_25"><path id="path75" fill="#1f77b4" d="M166.117 263.91a12.466 12.466 0 1 0 0-24.933 12.466 12.466 0 0 0 0 24.933z" clip-path="url(#p45113e0a2f)" opacity=".5"/></g><g id="patch_26"><path id="path78" fill="#1f77b4" d="M191.003 263.91a12.466 12.466 0 1 0 0-24.933 12.466 12.466 0 0 0 0 24.933z" clip-path="url(#p45113e0a2f)" opacity=".5"/></g><g id="patch_27"><path id="path81" fill="#1f77b4" d="M215.345 258.736a12.466 12.466 0 1 0 0-24.933 12.466 12.466 0 0 0 0 24.933z" clip-path="url(#p45113e0a2f)" opacity=".5"/></g><g id="patch_28"><path id="path84" fill="#1f77b4" d="M238.08 248.613a12.466 12.466 0 1 0 0-24.932 12.466 12.466 0 0 0 0 24.932z" clip-path="url(#p45113e0a2f)" opacity=".5"/></g><g id="patch_29"><path id="path87" fill="#1f77b4" d="M258.213 233.986a12.466 12.466 0 1 0 0-24.933 12.466 12.466 0 0 0 0 24.933z" clip-path="url(#p45113e0a2f)" opacity=".5"/></g><g id="patch_30"><path id="path90" fill="#1f77b4" d="M274.865 215.492a12.466 12.466 0 1 0 0-24.933 12.466 12.466 0 0 0 0 24.933z" clip-path="url(#p45113e0a2f)" opacity=".5"/></g><g id="patch_31"><path id="path93" fill="#1f77b4" d="M287.308 193.94a12.466 12.466 0 1 0 0-24.933 12.466 12.466 0 0 0 0 24.933z" clip-path="url(#p45113e0a2f)" opacity=".5"/></g><g id="patch_32"><path id="path96" fill="#1f77b4" d="M294.999 170.272a12.466 12.466 0 1 0 0-24.933 12.466 12.466 0 0 0 0 24.933z" clip-path="url(#p45113e0a2f)" opacity=".5"/></g><g id="line2d_1"><defs id="defs100"><path id="m8de7f3598a" stroke="#1f77b4" d="M0 1.5a1.5 1.5 0 1 0 0-3 1.5 1.5 0 0 0 0 3z"/></defs><g id="g104" clip-path="url(#p45113e0a2f)"><use xlink:href="#m8de7f3598a" id="use102" width="100%" height="100%" x="297.6" y="133.056" fill="#1f77b4" stroke="#1f77b4"/></g></g><g id="line2d_2"><g id="g109" clip-path="url(#p45113e0a2f)"><use xlink:href="#m8de7f3598a" id="use107" width="100%" height="100%" x="294.999" y="108.306" fill="#1f77b4" stroke="#1f77b4"/></g></g><g id="line2d_3"><g id="g114" clip-path="url(#p45113e0a2f)"><use xlink:href="#m8de7f3598a" id="use112" width="100%" height="100%" x="287.308" y="84.638" fill="#1f77b4" stroke="#1f77b4"/></g></g><g id="line2d_4"><g id="g119" clip-path="url(#p45113e0a2f)"><use xlink:href="#m8de7f3598a" id="use117" width="100%" height="100%" x="274.865" y="63.086" fill="#1f77b4" stroke="#1f77b4"/></g></g><g id="line2d_5"><g id="g124" clip-path="url(#p45113e0a2f)"><use xlink:href="#m8de7f3598a" id="use122" width="100%" height="100%" x="258.213" y="44.592" fill="#1f77b4" stroke="#1f77b4"/></g></g><g id="line2d_6"><g id="g129" clip-path="url(#p45113e0a2f)"><use xlink:href="#m8de7f3598a" id="use127" width="100%" height="100%" x="238.08" y="29.964" fill="#1f77b4" stroke="#1f77b4"/></g></g><g id="line2d_7"><g id="g134" clip-path="url(#p45113e0a2f)"><use xlink:href="#m8de7f3598a" id="use132" width="100%" height="100%" x="215.345" y="19.842" fill="#1f77b4" stroke="#1f77b4"/></g></g><g id="line2d_8"><g id="g139" clip-path="url(#p45113e0a2f)"><use xlink:href="#m8de7f3598a" id="use137" width="100%" height="100%" x="191.003" y="14.668" fill="#1f77b4" stroke="#1f77b4"/></g></g><g id="line2d_9"><g id="g144" clip-path="url(#p45113e0a2f)"><use xlink:href="#m8de7f3598a" id="use142" width="100%" height="100%" x="166.117" y="14.668" fill="#1f77b4" stroke="#1f77b4"/></g></g><g id="line2d_10"><g id="g149" clip-path="url(#p45113e0a2f)"><use xlink:href="#m8de7f3598a" id="use147" width="100%" height="100%" x="141.775" y="19.842" fill="#1f77b4" stroke="#1f77b4"/></g></g><g id="line2d_11"><g id="g154" clip-path="url(#p45113e0a2f)"><use xlink:href="#m8de7f3598a" id="use152" width="100%" height="100%" x="119.04" y="29.964" fill="#1f77b4" stroke="#1f77b4"/></g></g><g id="line2d_12"><g id="g159" clip-path="url(#p45113e0a2f)"><use xlink:href="#m8de7f3598a" id="use157" width="100%" height="100%" x="98.907" y="44.592" fill="#1f77b4" stroke="#1f77b4"/></g></g><g id="line2d_13"><g id="g164" clip-path="url(#p45113e0a2f)"><use xlink:href="#m8de7f3598a" id="use162" width="100%" height="100%" x="82.255" y="63.086" fill="#1f77b4" stroke="#1f77b4"/></g></g><g id="line2d_14"><g id="g169" clip-path="url(#p45113e0a2f)"><use xlink:href="#m8de7f3598a" id="use167" width="100%" height="100%" x="69.812" y="84.638" fill="#1f77b4" stroke="#1f77b4"/></g></g><g id="line2d_15"><g id="g174" clip-path="url(#p45113e0a2f)"><use xlink:href="#m8de7f3598a" id="use172" width="100%" height="100%" x="62.121" y="108.306" fill="#1f77b4" stroke="#1f77b4"/></g></g><g id="line2d_16"><g id="g179" clip-path="url(#p45113e0a2f)"><use xlink:href="#m8de7f3598a" id="use177" width="100%" height="100%" x="59.52" y="133.056" fill="#1f77b4" stroke="#1f77b4"/></g></g><g id="line2d_17"><g id="g184" clip-path="url(#p45113e0a2f)"><use xlink:href="#m8de7f3598a" id="use182" width="100%" height="100%" x="62.121" y="157.806" fill="#1f77b4" stroke="#1f77b4"/></g></g><g id="line2d_18"><g id="g189" clip-path="url(#p45113e0a2f)"><use xlink:href="#m8de7f3598a" id="use187" width="100%" height="100%" x="69.812" y="181.474" fill="#1f77b4" stroke="#1f77b4"/></g></g><g id="line2d_19"><g id="g194" clip-path="url(#p45113e0a2f)"><use xlink:href="#m8de7f3598a" id="use192" width="100%" height="100%" x="82.255" y="203.026" fill="#1f77b4" stroke="#1f77b4"/></g></g><g id="line2d_20"><g id="g199" clip-path="url(#p45113e0a2f)"><use xlink:href="#m8de7f3598a" id="use197" width="100%" height="100%" x="98.907" y="221.52" fill="#1f77b4" stroke="#1f77b4"/></g></g><g id="line2d_21"><g id="g204" clip-path="url(#p45113e0a2f)"><use xlink:href="#m8de7f3598a" id="use202" width="100%" height="100%" x="119.04" y="236.148" fill="#1f77b4" stroke="#1f77b4"/></g></g><g id="line2d_22"><g id="g209" clip-path="url(#p45113e0a2f)"><use xlink:href="#m8de7f3598a" id="use207" width="100%" height="100%" x="141.775" y="246.27" fill="#1f77b4" stroke="#1f77b4"/></g></g><g id="line2d_23"><g id="g214" clip-path="url(#p45113e0a2f)"><use xlink:href="#m8de7f3598a" id="use212" width="100%" height="100%" x="166.117" y="251.444" fill="#1f77b4" stroke="#1f77b4"/></g></g><g id="line2d_24"><g id="g219" clip-path="url(#p45113e0a2f)"><use xlink:href="#m8de7f3598a" id="use217" width="100%" height="100%" x="191.003" y="251.444" fill="#1f77b4" stroke="#1f77b4"/></g></g><g id="line2d_25"><g id="g224" clip-path="url(#p45113e0a2f)"><use xlink:href="#m8de7f3598a" id="use222" width="100%" height="100%" x="215.345" y="246.27" fill="#1f77b4" stroke="#1f77b4"/></g></g><g id="line2d_26"><g id="g229" clip-path="url(#p45113e0a2f)"><use xlink:href="#m8de7f3598a" id="use227" width="100%" height="100%" x="238.08" y="236.148" fill="#1f77b4" stroke="#1f77b4"/></g></g><g id="line2d_27"><g id="g234" clip-path="url(#p45113e0a2f)"><use xlink:href="#m8de7f3598a" id="use232" width="100%" height="100%" x="258.213" y="221.52" fill="#1f77b4" stroke="#1f77b4"/></g></g><g id="line2d_28"><g id="g239" clip-path="url(#p45113e0a2f)"><use xlink:href="#m8de7f3598a" id="use237" width="100%" height="100%" x="274.865" y="203.026" fill="#1f77b4" stroke="#1f77b4"/></g></g><g id="line2d_29"><g id="g244" clip-path="url(#p45113e0a2f)"><use xlink:href="#m8de7f3598a" id="use242" width="100%" height="100%" x="287.308" y="181.474" fill="#1f77b4" stroke="#1f77b4"/></g></g><g id="line2d_30"><g id="g249" clip-path="url(#p45113e0a2f)"><use xlink:href="#m8de7f3598a" id="use247" width="100%" height="100%" x="294.999" y="157.806" fill="#1f77b4" stroke="#1f77b4"/></g></g></g></g><defs id="defs257"><clipPath id="p45113e0a2f"><path id="rect254" d="M0 0h357.12v266.112H0z"/></clipPath></defs></svg>