<svg xmlns="http://www.w3.org/2000/svg" xmlns:xlink="http://www.w3.org/1999/xlink" id="svg538" width="347.319" height="347.319" version="1.1" viewBox="0 0 260.489 260.489"><defs id="defs267"><style id="style265" type="text/css">*{stroke-linecap:butt;stroke-linejoin:round}</style></defs><g id="figure_1" transform="translate(-48.316 -2.812)"><g id="axes_1"><g id="patch_2"><path id="path269" fill="none" stroke="#000" stroke-linejoin="miter" d="M178.56 252.096c31.57 0 61.85-12.543 84.174-34.866a119.046 119.046 0 0 0 34.866-84.174c0-31.57-12.543-61.85-34.866-84.174a119.046 119.046 0 0 0-84.174-34.866c-31.57 0-61.85 12.543-84.174 34.866a119.046 119.046 0 0 0-34.866 84.174c0 31.57 12.543 61.85 34.866 84.174a119.046 119.046 0 0 0 84.174 34.866z" clip-path="url(#p9957957fab)"/></g><g id="patch_3"><path id="path272" fill="#1f77b4" d="M218.523 155.238a22.183 22.183 0 1 0 0-44.366 22.183 22.183 0 0 0 0 44.366z" clip-path="url(#p9957957fab)" opacity=".5"/></g><g id="patch_4"><path id="path275" fill="#1f77b4" d="M138.597 155.238a22.183 22.183 0 1 0 0-44.366 22.183 22.183 0 0 0 0 44.366z" clip-path="url(#p9957957fab)" opacity=".5"/></g><g id="patch_5"><path id="path278" fill="#1f77b4" d="M178.56 115.275a22.183 22.183 0 1 0 0-44.366 22.183 22.183 0 0 0 0 44.366z" clip-path="url(#p9957957fab)" opacity=".5"/></g><g id="patch_6"><path id="path281" fill="#1f77b4" d="M178.56 195.2a22.183 22.183 0 1 0 0-44.365 22.183 22.183 0 0 0 0 44.366z" clip-path="url(#p9957957fab)" opacity=".5"/></g><g id="patch_7"><path id="path284" fill="#1f77b4" d="M262.734 155.94a22.886 22.886 0 1 0 0-45.77 22.886 22.886 0 0 0 0 45.77z" clip-path="url(#p9957957fab)" opacity=".5"/></g><g id="patch_8"><path id="path287" fill="#1f77b4" d="M94.386 155.94a22.886 22.886 0 1 0 0-45.77 22.886 22.886 0 0 0 0 45.77z" clip-path="url(#p9957957fab)" opacity=".5"/></g><g id="patch_9"><path id="path290" fill="#1f77b4" d="M178.56 71.767a22.886 22.886 0 1 0 0-45.772 22.886 22.886 0 0 0 0 45.772z" clip-path="url(#p9957957fab)" opacity=".5"/></g><g id="patch_10"><path id="path293" fill="#1f77b4" d="M178.56 240.115a22.886 22.886 0 1 0 0-45.772 22.886 22.886 0 0 0 0 45.772z" clip-path="url(#p9957957fab)" opacity=".5"/></g><g id="patch_11"><path id="path296" fill="#1f77b4" d="M290.692 151.169a18.114 18.114 0 1 0-.001-36.228 18.114 18.114 0 0 0 0 36.228z" clip-path="url(#p9957957fab)" opacity=".5"/></g><g id="patch_12"><path id="path299" fill="#1f77b4" d="M66.428 151.169a18.114 18.114 0 1 0 0-36.228 18.114 18.114 0 0 0 0 36.228z" clip-path="url(#p9957957fab)" opacity=".5"/></g><g id="patch_13"><path id="path302" fill="#1f77b4" d="M178.56 39.037a18.114 18.114 0 1 0 0-36.227 18.114 18.114 0 0 0 0 36.227z" clip-path="url(#p9957957fab)" opacity=".5"/></g><g id="patch_14"><path id="path305" fill="#1f77b4" d="M178.56 263.3a18.114 18.114 0 1 0 0-36.227 18.114 18.114 0 0 0 0 36.227z" clip-path="url(#p9957957fab)" opacity=".5"/></g><g id="patch_15"><path id="path308" fill="#1f77b4" d="M251.476 113.925a22.923 22.923 0 1 0 0-45.846 22.923 22.923 0 0 0 0 45.846z" clip-path="url(#p9957957fab)" opacity=".5"/></g><g id="patch_16"><path id="path311" fill="#1f77b4" d="M251.476 198.03a22.923 22.923 0 1 0 0-45.845 22.923 22.923 0 0 0 0 45.846z" clip-path="url(#p9957957fab)" opacity=".5"/></g><g id="patch_17"><path id="path314" fill="#1f77b4" d="M105.644 113.925a22.923 22.923 0 1 0-.001-45.846 22.923 22.923 0 0 0 0 45.846z" clip-path="url(#p9957957fab)" opacity=".5"/></g><g id="patch_18"><path id="path317" fill="#1f77b4" d="M105.644 198.03a22.923 22.923 0 1 0-.001-45.845 22.923 22.923 0 0 0 0 45.846z" clip-path="url(#p9957957fab)" opacity=".5"/></g><g id="patch_19"><path id="path320" fill="#1f77b4" d="M220.613 83.061a22.923 22.923 0 1 0 0-45.845 22.923 22.923 0 0 0 0 45.845z" clip-path="url(#p9957957fab)" opacity=".5"/></g><g id="patch_20"><path id="path323" fill="#1f77b4" d="M220.613 228.894a22.923 22.923 0 1 0 0-45.845 22.923 22.923 0 0 0 0 45.845z" clip-path="url(#p9957957fab)" opacity=".5"/></g><g id="patch_21"><path id="path326" fill="#1f77b4" d="M136.507 83.061a22.923 22.923 0 1 0 0-45.845 22.923 22.923 0 0 0 0 45.845z" clip-path="url(#p9957957fab)" opacity=".5"/></g><g id="patch_22"><path id="path329" fill="#1f77b4" d="M136.507 228.894a22.923 22.923 0 1 0-.001-45.845 22.923 22.923 0 0 0 0 45.845z" clip-path="url(#p9957957fab)" opacity=".5"/></g><g id="patch_23"><path id="path332" fill="#1f77b4" d="M275.667 95.097a18.111 18.111 0 1 0-.001-36.223 18.111 18.111 0 0 0 0 36.223z" clip-path="url(#p9957957fab)" opacity=".5"/></g><g id="patch_24"><path id="path335" fill="#1f77b4" d="M275.667 207.236a18.111 18.111 0 1 0-.001-36.223 18.111 18.111 0 0 0 0 36.223z" clip-path="url(#p9957957fab)" opacity=".5"/></g><g id="patch_25"><path id="path338" fill="#1f77b4" d="M81.453 95.097a18.111 18.111 0 1 0 0-36.223 18.111 18.111 0 0 0 0 36.223z" clip-path="url(#p9957957fab)" opacity=".5"/></g><g id="patch_26"><path id="path341" fill="#1f77b4" d="M81.453 207.236a18.111 18.111 0 1 0 0-36.223 18.111 18.111 0 0 0 0 36.223z" clip-path="url(#p9957957fab)" opacity=".5"/></g><g id="patch_27"><path id="path344" fill="#1f77b4" d="M234.63 54.06a18.111 18.111 0 1 0-.001-36.223 18.111 18.111 0 0 0 0 36.223z" clip-path="url(#p9957957fab)" opacity=".5"/></g><g id="patch_28"><path id="path347" fill="#1f77b4" d="M234.63 248.273a18.111 18.111 0 1 0-.001-36.223 18.111 18.111 0 0 0 0 36.223z" clip-path="url(#p9957957fab)" opacity=".5"/></g><g id="patch_29"><path id="path350" fill="#1f77b4" d="M122.49 54.06a18.111 18.111 0 1 0 0-36.223 18.111 18.111 0 0 0 0 36.223z" clip-path="url(#p9957957fab)" opacity=".5"/></g><g id="patch_30"><path id="path353" fill="#1f77b4" d="M122.49 248.273a18.111 18.111 0 1 0 0-36.223 18.111 18.111 0 0 0 0 36.223z" clip-path="url(#p9957957fab)" opacity=".5"/></g><g id="patch_31"><path id="path356" fill="#1f77b4" d="M206.818 126.98a22.183 22.183 0 1 0 0-44.366 22.183 22.183 0 0 0 0 44.366z" clip-path="url(#p9957957fab)" opacity=".5"/></g><g id="patch_32"><path id="path359" fill="#1f77b4" d="M206.818 183.496a22.183 22.183 0 1 0 0-44.366 22.183 22.183 0 0 0 0 44.366z" clip-path="url(#p9957957fab)" opacity=".5"/></g><g id="patch_33"><path id="path362" fill="#1f77b4" d="M150.302 126.98a22.183 22.183 0 1 0-.001-44.366 22.183 22.183 0 0 0 0 44.366z" clip-path="url(#p9957957fab)" opacity=".5"/></g><g id="patch_34"><path id="path365" fill="#1f77b4" d="M150.302 183.496a22.183 22.183 0 1 0-.001-44.366 22.183 22.183 0 0 0 0 44.366z" clip-path="url(#p9957957fab)" opacity=".5"/></g><g id="line2d_1"><defs id="defs369"><path id="mee0f2fd33b" stroke="#1f77b4" d="M0 1.5a1.5 1.5 0 1 0 0-3 1.5 1.5 0 0 0 0 3z"/></defs><g id="g373" clip-path="url(#p9957957fab)"><use xlink:href="#mee0f2fd33b" id="use371" width="100%" height="100%" x="218.523" y="133.056" fill="#1f77b4" stroke="#1f77b4"/></g></g><g id="line2d_2"><g id="g378" clip-path="url(#p9957957fab)"><use xlink:href="#mee0f2fd33b" id="use376" width="100%" height="100%" x="138.597" y="133.056" fill="#1f77b4" stroke="#1f77b4"/></g></g><g id="line2d_3"><g id="g383" clip-path="url(#p9957957fab)"><use xlink:href="#mee0f2fd33b" id="use381" width="100%" height="100%" x="178.56" y="93.093" fill="#1f77b4" stroke="#1f77b4"/></g></g><g id="line2d_4"><g id="g388" clip-path="url(#p9957957fab)"><use xlink:href="#mee0f2fd33b" id="use386" width="100%" height="100%" x="178.56" y="173.019" fill="#1f77b4" stroke="#1f77b4"/></g></g><g id="line2d_5"><g id="g393" clip-path="url(#p9957957fab)"><use xlink:href="#mee0f2fd33b" id="use391" width="100%" height="100%" x="262.734" y="133.056" fill="#1f77b4" stroke="#1f77b4"/></g></g><g id="line2d_6"><g id="g398" clip-path="url(#p9957957fab)"><use xlink:href="#mee0f2fd33b" id="use396" width="100%" height="100%" x="94.386" y="133.056" fill="#1f77b4" stroke="#1f77b4"/></g></g><g id="line2d_7"><g id="g403" clip-path="url(#p9957957fab)"><use xlink:href="#mee0f2fd33b" id="use401" width="100%" height="100%" x="178.56" y="48.882" fill="#1f77b4" stroke="#1f77b4"/></g></g><g id="line2d_8"><g id="g408" clip-path="url(#p9957957fab)"><use xlink:href="#mee0f2fd33b" id="use406" width="100%" height="100%" x="178.56" y="217.23" fill="#1f77b4" stroke="#1f77b4"/></g></g><g id="line2d_9"><g id="g413" clip-path="url(#p9957957fab)"><use xlink:href="#mee0f2fd33b" id="use411" width="100%" height="100%" x="290.692" y="133.056" fill="#1f77b4" stroke="#1f77b4"/></g></g><g id="line2d_10"><g id="g418" clip-path="url(#p9957957fab)"><use xlink:href="#mee0f2fd33b" id="use416" width="100%" height="100%" x="66.428" y="133.056" fill="#1f77b4" stroke="#1f77b4"/></g></g><g id="line2d_11"><g id="g423" clip-path="url(#p9957957fab)"><use xlink:href="#mee0f2fd33b" id="use421" width="100%" height="100%" x="178.56" y="20.924" fill="#1f77b4" stroke="#1f77b4"/></g></g><g id="line2d_12"><g id="g428" clip-path="url(#p9957957fab)"><use xlink:href="#mee0f2fd33b" id="use426" width="100%" height="100%" x="178.56" y="245.188" fill="#1f77b4" stroke="#1f77b4"/></g></g><g id="line2d_13"><g id="g433" clip-path="url(#p9957957fab)"><use xlink:href="#mee0f2fd33b" id="use431" width="100%" height="100%" x="251.476" y="91.003" fill="#1f77b4" stroke="#1f77b4"/></g></g><g id="line2d_14"><g id="g438" clip-path="url(#p9957957fab)"><use xlink:href="#mee0f2fd33b" id="use436" width="100%" height="100%" x="251.476" y="175.109" fill="#1f77b4" stroke="#1f77b4"/></g></g><g id="line2d_15"><g id="g443" clip-path="url(#p9957957fab)"><use xlink:href="#mee0f2fd33b" id="use441" width="100%" height="100%" x="105.644" y="91.003" fill="#1f77b4" stroke="#1f77b4"/></g></g><g id="line2d_16"><g id="g448" clip-path="url(#p9957957fab)"><use xlink:href="#mee0f2fd33b" id="use446" width="100%" height="100%" x="105.644" y="175.109" fill="#1f77b4" stroke="#1f77b4"/></g></g><g id="line2d_17"><g id="g453" clip-path="url(#p9957957fab)"><use xlink:href="#mee0f2fd33b" id="use451" width="100%" height="100%" x="220.613" y="60.14" fill="#1f77b4" stroke="#1f77b4"/></g></g><g id="line2d_18"><g id="g458" clip-path="url(#p9957957fab)"><use xlink:href="#mee0f2fd33b" id="use456" width="100%" height="100%" x="220.613" y="205.972" fill="#1f77b4" stroke="#1f77b4"/></g></g><g id="line2d_19"><g id="g463" clip-path="url(#p9957957fab)"><use xlink:href="#mee0f2fd33b" id="use461" width="100%" height="100%" x="136.507" y="60.14" fill="#1f77b4" stroke="#1f77b4"/></g></g><g id="line2d_20"><g id="g468" clip-path="url(#p9957957fab)"><use xlink:href="#mee0f2fd33b" id="use466" width="100%" height="100%" x="136.507" y="205.972" fill="#1f77b4" stroke="#1f77b4"/></g></g><g id="line2d_21"><g id="g473" clip-path="url(#p9957957fab)"><use xlink:href="#mee0f2fd33b" id="use471" width="100%" height="100%" x="275.667" y="76.987" fill="#1f77b4" stroke="#1f77b4"/></g></g><g id="line2d_22"><g id="g478" clip-path="url(#p9957957fab)"><use xlink:href="#mee0f2fd33b" id="use476" width="100%" height="100%" x="275.667" y="189.125" fill="#1f77b4" stroke="#1f77b4"/></g></g><g id="line2d_23"><g id="g483" clip-path="url(#p9957957fab)"><use xlink:href="#mee0f2fd33b" id="use481" width="100%" height="100%" x="81.453" y="76.987" fill="#1f77b4" stroke="#1f77b4"/></g></g><g id="line2d_24"><g id="g488" clip-path="url(#p9957957fab)"><use xlink:href="#mee0f2fd33b" id="use486" width="100%" height="100%" x="81.453" y="189.125" fill="#1f77b4" stroke="#1f77b4"/></g></g><g id="line2d_25"><g id="g493" clip-path="url(#p9957957fab)"><use xlink:href="#mee0f2fd33b" id="use491" width="100%" height="100%" x="234.629" y="35.949" fill="#1f77b4" stroke="#1f77b4"/></g></g><g id="line2d_26"><g id="g498" clip-path="url(#p9957957fab)"><use xlink:href="#mee0f2fd33b" id="use496" width="100%" height="100%" x="234.629" y="230.163" fill="#1f77b4" stroke="#1f77b4"/></g></g><g id="line2d_27"><g id="g503" clip-path="url(#p9957957fab)"><use xlink:href="#mee0f2fd33b" id="use501" width="100%" height="100%" x="122.491" y="35.949" fill="#1f77b4" stroke="#1f77b4"/></g></g><g id="line2d_28"><g id="g508" clip-path="url(#p9957957fab)"><use xlink:href="#mee0f2fd33b" id="use506" width="100%" height="100%" x="122.491" y="230.163" fill="#1f77b4" stroke="#1f77b4"/></g></g><g id="line2d_29"><g id="g513" clip-path="url(#p9957957fab)"><use xlink:href="#mee0f2fd33b" id="use511" width="100%" height="100%" x="206.818" y="104.798" fill="#1f77b4" stroke="#1f77b4"/></g></g><g id="line2d_30"><g id="g518" clip-path="url(#p9957957fab)"><use xlink:href="#mee0f2fd33b" id="use516" width="100%" height="100%" x="206.818" y="161.314" fill="#1f77b4" stroke="#1f77b4"/></g></g><g id="line2d_31"><g id="g523" clip-path="url(#p9957957fab)"><use xlink:href="#mee0f2fd33b" id="use521" width="100%" height="100%" x="150.302" y="104.798" fill="#1f77b4" stroke="#1f77b4"/></g></g><g id="line2d_32"><g id="g528" clip-path="url(#p9957957fab)"><use xlink:href="#mee0f2fd33b" id="use526" width="100%" height="100%" x="150.302" y="161.314" fill="#1f77b4" stroke="#1f77b4"/></g></g></g></g><defs id="defs536"><clipPath id="p9957957fab"><path id="rect533" d="M0 0h357.12v266.112H0z"/></clipPath></defs></svg>