<svg xmlns="http://www.w3.org/2000/svg" xmlns:xlink="http://www.w3.org/1999/xlink" id="svg672" width="434.873" height="44.488" version="1.1" viewBox="0 0 326.155 33.366"><defs id="defs633"><style id="style631" type="text/css">*{stroke-linecap:butt;stroke-linejoin:round}</style></defs><g id="figure_1" transform="translate(-15.483 -116.373)"><g id="axes_1"><g id="patch_2"><path id="path635" fill="#1f77b4" d="M35.742 149.74a16.684 16.684 0 1 0 0-33.369 16.684 16.684 0 0 0 0 33.368z" clip-path="url(#p0f81d6ba77)" opacity=".5"/></g><g id="patch_3"><path id="path638" fill="#1f77b4" d="M123.886 139.59a6.535 6.535 0 1 0 0-13.07 6.535 6.535 0 0 0 0 13.07z" clip-path="url(#p0f81d6ba77)" opacity=".5"/></g><g id="patch_4"><path id="path641" fill="#1f77b4" d="M311.373 133.3a.244.244 0 1 0 0-.488.244.244 0 0 0 0 .488z" clip-path="url(#p0f81d6ba77)" opacity=".5"/></g><g id="line2d_1"><path id="path644" fill="none" stroke="#000" stroke-linecap="square" stroke-width="1.5" d="M16.233 133.056h324.654" clip-path="url(#p0f81d6ba77)"/></g><g id="line2d_2"><defs id="defs648"><path id="m4647eca107" stroke="#1f77b4" d="M0 1.5a1.5 1.5 0 1 0 0-3 1.5 1.5 0 0 0 0 3z"/></defs><g id="g652" clip-path="url(#p0f81d6ba77)"><use xlink:href="#m4647eca107" id="use650" width="100%" height="100%" x="35.742" y="133.056" fill="#1f77b4" stroke="#1f77b4"/></g></g><g id="line2d_3"><g id="g657" clip-path="url(#p0f81d6ba77)"><use xlink:href="#m4647eca107" id="use655" width="100%" height="100%" x="123.886" y="133.056" fill="#1f77b4" stroke="#1f77b4"/></g></g><g id="line2d_4"><g id="g662" clip-path="url(#p0f81d6ba77)"><use xlink:href="#m4647eca107" id="use660" width="100%" height="100%" x="311.373" y="133.056" fill="#1f77b4" stroke="#1f77b4"/></g></g></g></g><defs id="defs670"><clipPath id="p0f81d6ba77"><path id="rect667" d="M0 0h357.12v266.112H0z"/></clipPath></defs></svg>