<svg xmlns="http://www.w3.org/2000/svg" xmlns:xlink="http://www.w3.org/1999/xlink" id="svg625" width="434.873" height="25.044" version="1.1" viewBox="0 0 326.155 18.783"><defs id="defs546"><style id="style544" type="text/css">*{stroke-linecap:butt;stroke-linejoin:round}</style></defs><g id="figure_1" transform="translate(-15.483 -123.665)"><g id="axes_1"><g id="patch_2"><path id="path548" fill="#1f77b4" d="m30.99 133.059.002-.001v-.004h-.004l-.001.002v.002h.003z" clip-path="url(#p9f9d5d8dd4)" opacity=".5"/></g><g id="patch_3"><path id="path551" fill="#1f77b4" d="M78.775 133.299a.243.243 0 1 0 0-.486.243.243 0 0 0 0 .486z" clip-path="url(#p9f9d5d8dd4)" opacity=".5"/></g><g id="patch_4"><path id="path554" fill="#1f77b4" d="M120.29 136.008a2.952 2.952 0 1 0 0-5.904 2.952 2.952 0 0 0 0 5.904z" clip-path="url(#p9f9d5d8dd4)" opacity=".5"/></g><g id="patch_5"><path id="path557" fill="#1f77b4" d="M159.366 142.447a9.392 9.392 0 1 0 0-18.783 9.392 9.392 0 0 0 0 18.783z" clip-path="url(#p9f9d5d8dd4)" opacity=".5"/></g><g id="patch_6"><path id="path560" fill="#1f77b4" d="M197.754 142.447a9.392 9.392 0 1 0 0-18.783 9.392 9.392 0 0 0 0 18.783z" clip-path="url(#p9f9d5d8dd4)" opacity=".5"/></g><g id="patch_7"><path id="path563" fill="#1f77b4" d="M236.83 136.008a2.952 2.952 0 1 0 0-5.904 2.952 2.952 0 0 0 0 5.904z" clip-path="url(#p9f9d5d8dd4)" opacity=".5"/></g><g id="patch_8"><path id="path566" fill="#1f77b4" d="M278.345 133.299a.243.243 0 1 0 0-.486.243.243 0 0 0 0 .486z" clip-path="url(#p9f9d5d8dd4)" opacity=".5"/></g><g id="patch_9"><path id="path569" fill="#1f77b4" d="m326.13 133.059.002-.001.001-.002v-.002h-.005v.004h.002z" clip-path="url(#p9f9d5d8dd4)" opacity=".5"/></g><g id="line2d_1"><path id="path572" fill="none" stroke="#000" stroke-linecap="square" stroke-width="1.5" d="M16.233 133.056h324.654" clip-path="url(#p9f9d5d8dd4)"/></g><g id="line2d_2"><defs id="defs576"><path id="m013026ec2a" stroke="#1f77b4" d="M0 1.5a1.5 1.5 0 1 0 0-3 1.5 1.5 0 0 0 0 3z"/></defs><g id="g580" clip-path="url(#p9f9d5d8dd4)"><use xlink:href="#m013026ec2a" id="use578" width="100%" height="100%" x="30.99" y="133.056" fill="#1f77b4" stroke="#1f77b4"/></g></g><g id="line2d_3"><g id="g585" clip-path="url(#p9f9d5d8dd4)"><use xlink:href="#m013026ec2a" id="use583" width="100%" height="100%" x="78.775" y="133.056" fill="#1f77b4" stroke="#1f77b4"/></g></g><g id="line2d_4"><g id="g590" clip-path="url(#p9f9d5d8dd4)"><use xlink:href="#m013026ec2a" id="use588" width="100%" height="100%" x="120.29" y="133.056" fill="#1f77b4" stroke="#1f77b4"/></g></g><g id="line2d_5"><g id="g595" clip-path="url(#p9f9d5d8dd4)"><use xlink:href="#m013026ec2a" id="use593" width="100%" height="100%" x="159.366" y="133.056" fill="#1f77b4" stroke="#1f77b4"/></g></g><g id="line2d_6"><g id="g600" clip-path="url(#p9f9d5d8dd4)"><use xlink:href="#m013026ec2a" id="use598" width="100%" height="100%" x="197.754" y="133.056" fill="#1f77b4" stroke="#1f77b4"/></g></g><g id="line2d_7"><g id="g605" clip-path="url(#p9f9d5d8dd4)"><use xlink:href="#m013026ec2a" id="use603" width="100%" height="100%" x="236.83" y="133.056" fill="#1f77b4" stroke="#1f77b4"/></g></g><g id="line2d_8"><g id="g610" clip-path="url(#p9f9d5d8dd4)"><use xlink:href="#m013026ec2a" id="use608" width="100%" height="100%" x="278.345" y="133.056" fill="#1f77b4" stroke="#1f77b4"/></g></g><g id="line2d_9"><g id="g615" clip-path="url(#p9f9d5d8dd4)"><use xlink:href="#m013026ec2a" id="use613" width="100%" height="100%" x="326.13" y="133.056" fill="#1f77b4" stroke="#1f77b4"/></g></g></g></g><defs id="defs623"><clipPath id="p9f9d5d8dd4"><path id="rect620" d="M0 0h357.12v266.112H0z"/></clipPath></defs></svg>