<svg xmlns="http://www.w3.org/2000/svg" xmlns:xlink="http://www.w3.org/1999/xlink" id="svg1288" width="327.893" height="327.893" version="1.1" viewBox="0 0 245.92 245.92"><defs id="defs924"><style id="style922" type="text/css">*{stroke-linecap:butt;stroke-linejoin:round}</style></defs><g id="figure_1" transform="translate(-55.6 -10.096)"><g id="axes_1"><g id="patch_2"><path id="path926" fill="#1f77b4" d="M299.52 133.057h.001v-.002h-.002v.002h.001z" clip-path="url(#pe415f0ea11)" opacity=".5"/></g><g id="patch_3"><path id="path929" fill="#1f77b4" d="M57.6 133.057h.001v-.002h-.002v.002h.001z" clip-path="url(#pe415f0ea11)" opacity=".5"/></g><g id="patch_4"><path id="path932" fill="#1f77b4" d="M178.56 12.097h.001v-.002h-.002v.002h.001z" clip-path="url(#pe415f0ea11)" opacity=".5"/></g><g id="patch_5"><path id="path935" fill="#1f77b4" d="M178.56 254.017h.001v-.002h-.002v.002h.001z" clip-path="url(#pe415f0ea11)" opacity=".5"/></g><g id="patch_6"><path id="path938" fill="#1f77b4" d="M248.369 133.116a.06.06 0 1 0 0-.12.06.06 0 0 0 0 .12z" clip-path="url(#pe415f0ea11)" opacity=".5"/></g><g id="patch_7"><path id="path941" fill="#1f77b4" d="M108.751 133.116a.06.06 0 1 0 0-.12.06.06 0 0 0 0 .12z" clip-path="url(#pe415f0ea11)" opacity=".5"/></g><g id="patch_8"><path id="path944" fill="#1f77b4" d="M178.56 63.307a.06.06 0 1 0 0-.12.06.06 0 0 0 0 .12z" clip-path="url(#pe415f0ea11)" opacity=".5"/></g><g id="patch_9"><path id="path947" fill="#1f77b4" d="M178.56 202.924a.06.06 0 1 0 0-.12.06.06 0 0 0 0 .12z" clip-path="url(#pe415f0ea11)" opacity=".5"/></g><g id="patch_10"><path id="path950" fill="#1f77b4" d="M209.746 134.05a.994.994 0 1 0 0-1.988.994.994 0 0 0 0 1.988z" clip-path="url(#pe415f0ea11)" opacity=".5"/></g><g id="patch_11"><path id="path953" fill="#1f77b4" d="M147.374 134.05a.994.994 0 1 0 0-1.988.994.994 0 0 0 0 1.988z" clip-path="url(#pe415f0ea11)" opacity=".5"/></g><g id="patch_12"><path id="path956" fill="#1f77b4" d="M178.56 102.864a.994.994 0 1 0 0-1.989.994.994 0 0 0 0 1.989z" clip-path="url(#pe415f0ea11)" opacity=".5"/></g><g id="patch_13"><path id="path959" fill="#1f77b4" d="M178.56 165.236a.994.994 0 1 0 0-1.988.994.994 0 0 0 0 1.988z" clip-path="url(#pe415f0ea11)" opacity=".5"/></g><g id="patch_14"><path id="path962" fill="#1f77b4" d="M188.313 137.003a3.947 3.947 0 1 0 0-7.894 3.947 3.947 0 0 0 0 7.894z" clip-path="url(#pe415f0ea11)" opacity=".5"/></g><g id="patch_15"><path id="path965" fill="#1f77b4" d="M168.807 137.003a3.947 3.947 0 1 0 0-7.894 3.947 3.947 0 0 0 0 7.894z" clip-path="url(#pe415f0ea11)" opacity=".5"/></g><g id="patch_16"><path id="path968" fill="#1f77b4" d="M178.56 127.25a3.947 3.947 0 1 0 0-7.894 3.947 3.947 0 0 0 0 7.893z" clip-path="url(#pe415f0ea11)" opacity=".5"/></g><g id="patch_17"><path id="path971" fill="#1f77b4" d="M178.56 146.756a3.947 3.947 0 1 0 0-7.894 3.947 3.947 0 0 0 0 7.894z" clip-path="url(#pe415f0ea11)" opacity=".5"/></g><g id="patch_18"><path id="path974" fill="#1f77b4" d="m256.76 54.859.002-.001.001-.002v-.002l-.003-.001h-.002a.003.003 0 0 0 0 .005h.002z" clip-path="url(#pe415f0ea11)" opacity=".5"/></g><g id="patch_19"><path id="path977" fill="#1f77b4" d="m100.36 54.859.002-.001a.003.003 0 0 0 0-.004l-.002-.001h-.002l-.001.003v.002h.003z" clip-path="url(#pe415f0ea11)" opacity=".5"/></g><g id="patch_20"><path id="path980" fill="#1f77b4" d="m256.76 211.26.002-.002.001-.002v-.002h-.005v.004l.002.001z" clip-path="url(#pe415f0ea11)" opacity=".5"/></g><g id="patch_21"><path id="path983" fill="#1f77b4" d="m100.36 211.26.002-.002v-.004h-.004l-.001.002v.002l.003.001z" clip-path="url(#pe415f0ea11)" opacity=".5"/></g><g id="patch_22"><path id="path986" fill="#1f77b4" d="M224.567 87.13a.082.082 0 1 0 0-.163.082.082 0 0 0 0 .164z" clip-path="url(#pe415f0ea11)" opacity=".5"/></g><g id="patch_23"><path id="path989" fill="#1f77b4" d="M132.553 87.13a.082.082 0 1 0 0-.163.082.082 0 0 0 0 .164z" clip-path="url(#pe415f0ea11)" opacity=".5"/></g><g id="patch_24"><path id="path992" fill="#1f77b4" d="M224.567 179.145a.082.082 0 1 0 0-.164.082.082 0 0 0 0 .164z" clip-path="url(#pe415f0ea11)" opacity=".5"/></g><g id="patch_25"><path id="path995" fill="#1f77b4" d="M132.553 179.145a.082.082 0 1 0 0-.164.082.082 0 0 0 0 .164z" clip-path="url(#pe415f0ea11)" opacity=".5"/></g><g id="patch_26"><path id="path998" fill="#1f77b4" d="M198.393 114.52a1.296 1.296 0 1 0 0-2.593 1.296 1.296 0 0 0 0 2.593z" clip-path="url(#pe415f0ea11)" opacity=".5"/></g><g id="patch_27"><path id="path1001" fill="#1f77b4" d="M158.727 114.52a1.296 1.296 0 1 0 0-2.593 1.296 1.296 0 0 0 0 2.593z" clip-path="url(#pe415f0ea11)" opacity=".5"/></g><g id="patch_28"><path id="path1004" fill="#1f77b4" d="M198.393 154.185a1.296 1.296 0 1 0 0-2.593 1.296 1.296 0 0 0 0 2.593z" clip-path="url(#pe415f0ea11)" opacity=".5"/></g><g id="patch_29"><path id="path1007" fill="#1f77b4" d="M158.727 154.185a1.296 1.296 0 1 0 0-2.593 1.296 1.296 0 0 0 0 2.593z" clip-path="url(#pe415f0ea11)" opacity=".5"/></g><g id="patch_30"><path id="path1010" fill="#1f77b4" d="M269.17 95.532a.01.01 0 0 0 .006-.002.01.01 0 0 0 .002-.006.01.01 0 0 0-.002-.005c-.001-.002-.004-.003-.006-.003a.01.01 0 0 0-.006.003.01.01 0 0 0-.002.005c0 .002 0 .004.002.006l.006.002z" clip-path="url(#pe415f0ea11)" opacity=".5"/></g><g id="patch_31"><path id="path1013" fill="#1f77b4" d="M87.95 95.532c.002 0 .004 0 .006-.002a.008.008 0 0 0 0-.011.008.008 0 0 0-.011 0 .008.008 0 0 0 0 .011.008.008 0 0 0 .005.002z" clip-path="url(#pe415f0ea11)" opacity=".5"/></g><g id="patch_32"><path id="path1016" fill="#1f77b4" d="m269.17 170.596.006-.002a.01.01 0 0 0 .002-.006l-.002-.006a.01.01 0 0 0-.006-.002c-.002 0-.004 0-.006.002a.01.01 0 0 0-.002.006c0 .002 0 .004.002.006l.006.002z" clip-path="url(#pe415f0ea11)" opacity=".5"/></g><g id="patch_33"><path id="path1019" fill="#1f77b4" d="M87.95 170.596a.01.01 0 0 0 .006-.002l.002-.006a.01.01 0 0 0-.002-.006.01.01 0 0 0-.006-.002.01.01 0 0 0-.005.002c-.002 0-.003.004-.003.006l.003.006a.01.01 0 0 0 .005.002z" clip-path="url(#pe415f0ea11)" opacity=".5"/></g><g id="patch_34"><path id="path1022" fill="#1f77b4" d="M216.092 42.454a.01.01 0 0 0 .006-.002.01.01 0 0 0 .002-.006.01.01 0 0 0-.002-.005c-.001-.002-.004-.003-.006-.003a.01.01 0 0 0-.006.003.01.01 0 0 0-.002.005c0 .002 0 .004.002.006l.006.002z" clip-path="url(#pe415f0ea11)" opacity=".5"/></g><g id="patch_35"><path id="path1025" fill="#1f77b4" d="M141.028 42.454a.01.01 0 0 0 .006-.002.01.01 0 0 0 .002-.006.01.01 0 0 0-.002-.005c0-.002-.004-.003-.006-.003a.01.01 0 0 0-.006.003.01.01 0 0 0-.002.005l.002.006.006.002z" clip-path="url(#pe415f0ea11)" opacity=".5"/></g><g id="patch_36"><path id="path1028" fill="#1f77b4" d="m216.092 223.674.006-.002.002-.006-.002-.006a.01.01 0 0 0-.006-.002c-.002 0-.004 0-.006.002a.01.01 0 0 0-.002.006c0 .002 0 .004.002.006a.01.01 0 0 0 .006.002z" clip-path="url(#pe415f0ea11)" opacity=".5"/></g><g id="patch_37"><path id="path1031" fill="#1f77b4" d="m141.028 223.674.006-.002.002-.006c0-.002 0-.004-.002-.006a.01.01 0 0 0-.006-.002c-.002 0-.004 0-.006.002a.01.01 0 0 0-.002.006l.002.006a.01.01 0 0 0 .006.002z" clip-path="url(#pe415f0ea11)" opacity=".5"/></g><g id="patch_38"><path id="path1034" fill="#1f77b4" d="M227.58 112.95a.198.198 0 1 0 0-.398.198.198 0 0 0 0 .397z" clip-path="url(#pe415f0ea11)" opacity=".5"/></g><g id="patch_39"><path id="path1037" fill="#1f77b4" d="M129.54 112.95a.198.198 0 1 0 0-.398.198.198 0 0 0 0 .397z" clip-path="url(#pe415f0ea11)" opacity=".5"/></g><g id="patch_40"><path id="path1040" fill="#1f77b4" d="M227.58 153.56a.198.198 0 1 0 0-.397.198.198 0 0 0 0 .396z" clip-path="url(#pe415f0ea11)" opacity=".5"/></g><g id="patch_41"><path id="path1043" fill="#1f77b4" d="M129.54 153.56a.198.198 0 1 0 0-.397.198.198 0 0 0 0 .396z" clip-path="url(#pe415f0ea11)" opacity=".5"/></g><g id="patch_42"><path id="path1046" fill="#1f77b4" d="M198.865 84.233a.198.198 0 1 0 0-.396.198.198 0 0 0 0 .396z" clip-path="url(#pe415f0ea11)" opacity=".5"/></g><g id="patch_43"><path id="path1049" fill="#1f77b4" d="M158.255 84.233a.198.198 0 1 0 0-.396.198.198 0 0 0 0 .396z" clip-path="url(#pe415f0ea11)" opacity=".5"/></g><g id="patch_44"><path id="path1052" fill="#1f77b4" d="M198.865 182.275a.198.198 0 1 0 0-.397.198.198 0 0 0 0 .397z" clip-path="url(#pe415f0ea11)" opacity=".5"/></g><g id="patch_45"><path id="path1055" fill="#1f77b4" d="M158.255 182.275a.198.198 0 1 0 0-.397.198.198 0 0 0 0 .397z" clip-path="url(#pe415f0ea11)" opacity=".5"/></g><g id="line2d_1"><defs id="defs1059"><path id="m7689903953" stroke="#1f77b4" d="M0 1.5a1.5 1.5 0 1 0 0-3 1.5 1.5 0 0 0 0 3z"/></defs><g id="g1063" clip-path="url(#pe415f0ea11)"><use xlink:href="#m7689903953" id="use1061" width="100%" height="100%" x="299.52" y="133.056" fill="#1f77b4" stroke="#1f77b4"/></g></g><g id="line2d_2"><g id="g1068" clip-path="url(#pe415f0ea11)"><use xlink:href="#m7689903953" id="use1066" width="100%" height="100%" x="57.6" y="133.056" fill="#1f77b4" stroke="#1f77b4"/></g></g><g id="line2d_3"><g id="g1073" clip-path="url(#pe415f0ea11)"><use xlink:href="#m7689903953" id="use1071" width="100%" height="100%" x="178.56" y="12.096" fill="#1f77b4" stroke="#1f77b4"/></g></g><g id="line2d_4"><g id="g1078" clip-path="url(#pe415f0ea11)"><use xlink:href="#m7689903953" id="use1076" width="100%" height="100%" x="178.56" y="254.016" fill="#1f77b4" stroke="#1f77b4"/></g></g><g id="line2d_5"><g id="g1083" clip-path="url(#pe415f0ea11)"><use xlink:href="#m7689903953" id="use1081" width="100%" height="100%" x="248.369" y="133.056" fill="#1f77b4" stroke="#1f77b4"/></g></g><g id="line2d_6"><g id="g1088" clip-path="url(#pe415f0ea11)"><use xlink:href="#m7689903953" id="use1086" width="100%" height="100%" x="108.751" y="133.056" fill="#1f77b4" stroke="#1f77b4"/></g></g><g id="line2d_7"><g id="g1093" clip-path="url(#pe415f0ea11)"><use xlink:href="#m7689903953" id="use1091" width="100%" height="100%" x="178.56" y="63.247" fill="#1f77b4" stroke="#1f77b4"/></g></g><g id="line2d_8"><g id="g1098" clip-path="url(#pe415f0ea11)"><use xlink:href="#m7689903953" id="use1096" width="100%" height="100%" x="178.56" y="202.865" fill="#1f77b4" stroke="#1f77b4"/></g></g><g id="line2d_9"><g id="g1103" clip-path="url(#pe415f0ea11)"><use xlink:href="#m7689903953" id="use1101" width="100%" height="100%" x="209.746" y="133.056" fill="#1f77b4" stroke="#1f77b4"/></g></g><g id="line2d_10"><g id="g1108" clip-path="url(#pe415f0ea11)"><use xlink:href="#m7689903953" id="use1106" width="100%" height="100%" x="147.374" y="133.056" fill="#1f77b4" stroke="#1f77b4"/></g></g><g id="line2d_11"><g id="g1113" clip-path="url(#pe415f0ea11)"><use xlink:href="#m7689903953" id="use1111" width="100%" height="100%" x="178.56" y="101.87" fill="#1f77b4" stroke="#1f77b4"/></g></g><g id="line2d_12"><g id="g1118" clip-path="url(#pe415f0ea11)"><use xlink:href="#m7689903953" id="use1116" width="100%" height="100%" x="178.56" y="164.242" fill="#1f77b4" stroke="#1f77b4"/></g></g><g id="line2d_13"><g id="g1123" clip-path="url(#pe415f0ea11)"><use xlink:href="#m7689903953" id="use1121" width="100%" height="100%" x="188.313" y="133.056" fill="#1f77b4" stroke="#1f77b4"/></g></g><g id="line2d_14"><g id="g1128" clip-path="url(#pe415f0ea11)"><use xlink:href="#m7689903953" id="use1126" width="100%" height="100%" x="168.807" y="133.056" fill="#1f77b4" stroke="#1f77b4"/></g></g><g id="line2d_15"><g id="g1133" clip-path="url(#pe415f0ea11)"><use xlink:href="#m7689903953" id="use1131" width="100%" height="100%" x="178.56" y="123.303" fill="#1f77b4" stroke="#1f77b4"/></g></g><g id="line2d_16"><g id="g1138" clip-path="url(#pe415f0ea11)"><use xlink:href="#m7689903953" id="use1136" width="100%" height="100%" x="178.56" y="142.809" fill="#1f77b4" stroke="#1f77b4"/></g></g><g id="line2d_17"><g id="g1143" clip-path="url(#pe415f0ea11)"><use xlink:href="#m7689903953" id="use1141" width="100%" height="100%" x="256.76" y="54.856" fill="#1f77b4" stroke="#1f77b4"/></g></g><g id="line2d_18"><g id="g1148" clip-path="url(#pe415f0ea11)"><use xlink:href="#m7689903953" id="use1146" width="100%" height="100%" x="100.36" y="54.856" fill="#1f77b4" stroke="#1f77b4"/></g></g><g id="line2d_19"><g id="g1153" clip-path="url(#pe415f0ea11)"><use xlink:href="#m7689903953" id="use1151" width="100%" height="100%" x="256.76" y="211.256" fill="#1f77b4" stroke="#1f77b4"/></g></g><g id="line2d_20"><g id="g1158" clip-path="url(#pe415f0ea11)"><use xlink:href="#m7689903953" id="use1156" width="100%" height="100%" x="100.36" y="211.256" fill="#1f77b4" stroke="#1f77b4"/></g></g><g id="line2d_21"><g id="g1163" clip-path="url(#pe415f0ea11)"><use xlink:href="#m7689903953" id="use1161" width="100%" height="100%" x="224.567" y="87.049" fill="#1f77b4" stroke="#1f77b4"/></g></g><g id="line2d_22"><g id="g1168" clip-path="url(#pe415f0ea11)"><use xlink:href="#m7689903953" id="use1166" width="100%" height="100%" x="132.553" y="87.049" fill="#1f77b4" stroke="#1f77b4"/></g></g><g id="line2d_23"><g id="g1173" clip-path="url(#pe415f0ea11)"><use xlink:href="#m7689903953" id="use1171" width="100%" height="100%" x="224.567" y="179.063" fill="#1f77b4" stroke="#1f77b4"/></g></g><g id="line2d_24"><g id="g1178" clip-path="url(#pe415f0ea11)"><use xlink:href="#m7689903953" id="use1176" width="100%" height="100%" x="132.553" y="179.063" fill="#1f77b4" stroke="#1f77b4"/></g></g><g id="line2d_25"><g id="g1183" clip-path="url(#pe415f0ea11)"><use xlink:href="#m7689903953" id="use1181" width="100%" height="100%" x="198.393" y="113.223" fill="#1f77b4" stroke="#1f77b4"/></g></g><g id="line2d_26"><g id="g1188" clip-path="url(#pe415f0ea11)"><use xlink:href="#m7689903953" id="use1186" width="100%" height="100%" x="158.727" y="113.223" fill="#1f77b4" stroke="#1f77b4"/></g></g><g id="line2d_27"><g id="g1193" clip-path="url(#pe415f0ea11)"><use xlink:href="#m7689903953" id="use1191" width="100%" height="100%" x="198.393" y="152.889" fill="#1f77b4" stroke="#1f77b4"/></g></g><g id="line2d_28"><g id="g1198" clip-path="url(#pe415f0ea11)"><use xlink:href="#m7689903953" id="use1196" width="100%" height="100%" x="158.727" y="152.889" fill="#1f77b4" stroke="#1f77b4"/></g></g><g id="line2d_29"><g id="g1203" clip-path="url(#pe415f0ea11)"><use xlink:href="#m7689903953" id="use1201" width="100%" height="100%" x="269.17" y="95.524" fill="#1f77b4" stroke="#1f77b4"/></g></g><g id="line2d_30"><g id="g1208" clip-path="url(#pe415f0ea11)"><use xlink:href="#m7689903953" id="use1206" width="100%" height="100%" x="87.95" y="95.524" fill="#1f77b4" stroke="#1f77b4"/></g></g><g id="line2d_31"><g id="g1213" clip-path="url(#pe415f0ea11)"><use xlink:href="#m7689903953" id="use1211" width="100%" height="100%" x="269.17" y="170.588" fill="#1f77b4" stroke="#1f77b4"/></g></g><g id="line2d_32"><g id="g1218" clip-path="url(#pe415f0ea11)"><use xlink:href="#m7689903953" id="use1216" width="100%" height="100%" x="87.95" y="170.588" fill="#1f77b4" stroke="#1f77b4"/></g></g><g id="line2d_33"><g id="g1223" clip-path="url(#pe415f0ea11)"><use xlink:href="#m7689903953" id="use1221" width="100%" height="100%" x="216.092" y="42.446" fill="#1f77b4" stroke="#1f77b4"/></g></g><g id="line2d_34"><g id="g1228" clip-path="url(#pe415f0ea11)"><use xlink:href="#m7689903953" id="use1226" width="100%" height="100%" x="141.028" y="42.446" fill="#1f77b4" stroke="#1f77b4"/></g></g><g id="line2d_35"><g id="g1233" clip-path="url(#pe415f0ea11)"><use xlink:href="#m7689903953" id="use1231" width="100%" height="100%" x="216.092" y="223.666" fill="#1f77b4" stroke="#1f77b4"/></g></g><g id="line2d_36"><g id="g1238" clip-path="url(#pe415f0ea11)"><use xlink:href="#m7689903953" id="use1236" width="100%" height="100%" x="141.028" y="223.666" fill="#1f77b4" stroke="#1f77b4"/></g></g><g id="line2d_37"><g id="g1243" clip-path="url(#pe415f0ea11)"><use xlink:href="#m7689903953" id="use1241" width="100%" height="100%" x="227.581" y="112.751" fill="#1f77b4" stroke="#1f77b4"/></g></g><g id="line2d_38"><g id="g1248" clip-path="url(#pe415f0ea11)"><use xlink:href="#m7689903953" id="use1246" width="100%" height="100%" x="129.539" y="112.751" fill="#1f77b4" stroke="#1f77b4"/></g></g><g id="line2d_39"><g id="g1253" clip-path="url(#pe415f0ea11)"><use xlink:href="#m7689903953" id="use1251" width="100%" height="100%" x="227.581" y="153.361" fill="#1f77b4" stroke="#1f77b4"/></g></g><g id="line2d_40"><g id="g1258" clip-path="url(#pe415f0ea11)"><use xlink:href="#m7689903953" id="use1256" width="100%" height="100%" x="129.539" y="153.361" fill="#1f77b4" stroke="#1f77b4"/></g></g><g id="line2d_41"><g id="g1263" clip-path="url(#pe415f0ea11)"><use xlink:href="#m7689903953" id="use1261" width="100%" height="100%" x="198.865" y="84.035" fill="#1f77b4" stroke="#1f77b4"/></g></g><g id="line2d_42"><g id="g1268" clip-path="url(#pe415f0ea11)"><use xlink:href="#m7689903953" id="use1266" width="100%" height="100%" x="158.255" y="84.035" fill="#1f77b4" stroke="#1f77b4"/></g></g><g id="line2d_43"><g id="g1273" clip-path="url(#pe415f0ea11)"><use xlink:href="#m7689903953" id="use1271" width="100%" height="100%" x="198.865" y="182.077" fill="#1f77b4" stroke="#1f77b4"/></g></g><g id="line2d_44"><g id="g1278" clip-path="url(#pe415f0ea11)"><use xlink:href="#m7689903953" id="use1276" width="100%" height="100%" x="158.255" y="182.077" fill="#1f77b4" stroke="#1f77b4"/></g></g></g></g><defs id="defs1286"><clipPath id="pe415f0ea11"><path id="rect1283" d="M0 0h357.12v266.112H0z"/></clipPath></defs></svg>