<svg xmlns="http://www.w3.org/2000/svg" xmlns:xlink="http://www.w3.org/1999/xlink" id="svg2507" width="347.808" height="347.808" version="1.1" viewBox="0 0 260.856 260.856"><defs id="defs2379"><style id="style2377" type="text/css">*{stroke-linecap:butt;stroke-linejoin:round}</style></defs><g id="figure_1" transform="translate(-48.132 -2.628)"><g id="axes_1"><g id="patch_2"><path id="path2381" fill="#1f77b4" d="M178.56 146.958a13.902 13.902 0 1 0 0-27.805 13.902 13.902 0 0 0 0 27.805z" clip-path="url(#pe94f439f2b)" opacity=".5"/></g><g id="patch_3"><path id="path2384" fill="#1f77b4" d="M243.485 181.712a48.658 48.658 0 0 0 48.655-48.656A48.658 48.658 0 0 0 243.485 84.4a48.658 48.658 0 0 0-48.656 48.656 48.658 48.658 0 0 0 48.656 48.656z" clip-path="url(#pe94f439f2b)" opacity=".5"/></g><g id="patch_4"><path id="path2387" fill="#1f77b4" d="M113.635 181.712a48.658 48.658 0 0 0 48.656-48.656A48.658 48.658 0 0 0 113.635 84.4a48.658 48.658 0 0 0-48.655 48.656 48.658 48.658 0 0 0 48.655 48.656z" clip-path="url(#pe94f439f2b)" opacity=".5"/></g><g id="patch_5"><path id="path2390" fill="#1f77b4" d="M178.56 116.787a48.658 48.658 0 0 0 48.656-48.656 48.658 48.658 0 0 0-48.656-48.655 48.658 48.658 0 0 0-48.656 48.655 48.658 48.658 0 0 0 48.656 48.656z" clip-path="url(#pe94f439f2b)" opacity=".5"/></g><g id="patch_6"><path id="path2393" fill="#1f77b4" d="M178.56 246.636a48.658 48.658 0 0 0 48.656-48.655 48.658 48.658 0 0 0-48.656-48.656 48.658 48.658 0 0 0-48.656 48.656 48.658 48.658 0 0 0 48.656 48.655z" clip-path="url(#pe94f439f2b)" opacity=".5"/></g><g id="patch_7"><path id="path2396" fill="#1f77b4" d="M281.623 96.146a27.367 27.367 0 0 0 19.35-46.716 27.367 27.367 0 0 0-46.716 19.35 27.367 27.367 0 0 0 27.366 27.366z" clip-path="url(#pe94f439f2b)" opacity=".5"/></g><g id="patch_8"><path id="path2399" fill="#1f77b4" d="M75.497 96.146a27.367 27.367 0 0 0 19.35-46.716 27.367 27.367 0 0 0-46.715 19.35 27.367 27.367 0 0 0 27.365 27.366z" clip-path="url(#pe94f439f2b)" opacity=".5"/></g><g id="patch_9"><path id="path2402" fill="#1f77b4" d="M281.623 224.697a27.367 27.367 0 0 0 19.35-46.716 27.367 27.367 0 0 0-46.716 19.35 27.367 27.367 0 0 0 27.366 27.366z" clip-path="url(#pe94f439f2b)" opacity=".5"/></g><g id="patch_10"><path id="path2405" fill="#1f77b4" d="M75.497 224.697a27.367 27.367 0 0 0 19.35-46.716 27.367 27.367 0 0 0-46.715 19.35 27.367 27.367 0 0 0 27.365 27.366z" clip-path="url(#pe94f439f2b)" opacity=".5"/></g><g id="patch_11"><path id="path2408" fill="#1f77b4" d="M242.836 57.359a27.367 27.367 0 0 0 19.35-46.716 27.367 27.367 0 0 0-46.716 19.35 27.367 27.367 0 0 0 27.366 27.366z" clip-path="url(#pe94f439f2b)" opacity=".5"/></g><g id="patch_12"><path id="path2411" fill="#1f77b4" d="M114.284 57.359a27.367 27.367 0 0 0 19.35-46.716 27.367 27.367 0 0 0-46.715 19.35 27.367 27.367 0 0 0 27.365 27.366z" clip-path="url(#pe94f439f2b)" opacity=".5"/></g><g id="patch_13"><path id="path2414" fill="#1f77b4" d="M242.836 263.484a27.367 27.367 0 0 0 19.35-46.716 27.367 27.367 0 0 0-46.716 19.35 27.367 27.367 0 0 0 27.366 27.366z" clip-path="url(#pe94f439f2b)" opacity=".5"/></g><g id="patch_14"><path id="path2417" fill="#1f77b4" d="M114.284 263.484a27.367 27.367 0 0 0 19.35-46.716 27.367 27.367 0 0 0-46.715 19.35 27.367 27.367 0 0 0 27.365 27.366z" clip-path="url(#pe94f439f2b)" opacity=".5"/></g><g id="line2d_1"><path id="path2420" fill="none" stroke="#000" stroke-linecap="square" stroke-width="1.5" d="M67.68 243.936h221.76" clip-path="url(#pe94f439f2b)"/></g><g id="line2d_2"><path id="path2423" fill="none" stroke="#000" stroke-linecap="square" stroke-width="1.5" d="M289.44 243.936V22.176" clip-path="url(#pe94f439f2b)"/></g><g id="line2d_3"><path id="path2426" fill="none" stroke="#000" stroke-linecap="square" stroke-width="1.5" d="M289.44 22.176H67.68" clip-path="url(#pe94f439f2b)"/></g><g id="line2d_4"><path id="path2429" fill="none" stroke="#000" stroke-linecap="square" stroke-width="1.5" d="M67.68 22.176v221.76" clip-path="url(#pe94f439f2b)"/></g><g id="line2d_5"><defs id="defs2433"><path id="m7d16895c1c" stroke="#1f77b4" d="M0 1.5a1.5 1.5 0 1 0 0-3 1.5 1.5 0 0 0 0 3z"/></defs><g id="g2437" clip-path="url(#pe94f439f2b)"><use xlink:href="#m7d16895c1c" id="use2435" width="100%" height="100%" x="178.56" y="133.056" fill="#1f77b4" stroke="#1f77b4"/></g></g><g id="line2d_6"><g id="g2442" clip-path="url(#pe94f439f2b)"><use xlink:href="#m7d16895c1c" id="use2440" width="100%" height="100%" x="243.485" y="133.056" fill="#1f77b4" stroke="#1f77b4"/></g></g><g id="line2d_7"><g id="g2447" clip-path="url(#pe94f439f2b)"><use xlink:href="#m7d16895c1c" id="use2445" width="100%" height="100%" x="113.635" y="133.056" fill="#1f77b4" stroke="#1f77b4"/></g></g><g id="line2d_8"><g id="g2452" clip-path="url(#pe94f439f2b)"><use xlink:href="#m7d16895c1c" id="use2450" width="100%" height="100%" x="178.56" y="68.131" fill="#1f77b4" stroke="#1f77b4"/></g></g><g id="line2d_9"><g id="g2457" clip-path="url(#pe94f439f2b)"><use xlink:href="#m7d16895c1c" id="use2455" width="100%" height="100%" x="178.56" y="197.981" fill="#1f77b4" stroke="#1f77b4"/></g></g><g id="line2d_10"><g id="g2462" clip-path="url(#pe94f439f2b)"><use xlink:href="#m7d16895c1c" id="use2460" width="100%" height="100%" x="281.623" y="68.78" fill="#1f77b4" stroke="#1f77b4"/></g></g><g id="line2d_11"><g id="g2467" clip-path="url(#pe94f439f2b)"><use xlink:href="#m7d16895c1c" id="use2465" width="100%" height="100%" x="75.497" y="68.78" fill="#1f77b4" stroke="#1f77b4"/></g></g><g id="line2d_12"><g id="g2472" clip-path="url(#pe94f439f2b)"><use xlink:href="#m7d16895c1c" id="use2470" width="100%" height="100%" x="281.623" y="197.332" fill="#1f77b4" stroke="#1f77b4"/></g></g><g id="line2d_13"><g id="g2477" clip-path="url(#pe94f439f2b)"><use xlink:href="#m7d16895c1c" id="use2475" width="100%" height="100%" x="75.497" y="197.332" fill="#1f77b4" stroke="#1f77b4"/></g></g><g id="line2d_14"><g id="g2482" clip-path="url(#pe94f439f2b)"><use xlink:href="#m7d16895c1c" id="use2480" width="100%" height="100%" x="242.836" y="29.993" fill="#1f77b4" stroke="#1f77b4"/></g></g><g id="line2d_15"><g id="g2487" clip-path="url(#pe94f439f2b)"><use xlink:href="#m7d16895c1c" id="use2485" width="100%" height="100%" x="114.284" y="29.993" fill="#1f77b4" stroke="#1f77b4"/></g></g><g id="line2d_16"><g id="g2492" clip-path="url(#pe94f439f2b)"><use xlink:href="#m7d16895c1c" id="use2490" width="100%" height="100%" x="242.836" y="236.119" fill="#1f77b4" stroke="#1f77b4"/></g></g><g id="line2d_17"><g id="g2497" clip-path="url(#pe94f439f2b)"><use xlink:href="#m7d16895c1c" id="use2495" width="100%" height="100%" x="114.284" y="236.119" fill="#1f77b4" stroke="#1f77b4"/></g></g></g></g><defs id="defs2505"><clipPath id="pe94f439f2b"><path id="rect2502" d="M0 0h357.12v266.112H0z"/></clipPath></defs></svg>