<svg xmlns="http://www.w3.org/2000/svg" xmlns:xlink="http://www.w3.org/1999/xlink" id="svg2917" width="369.703" height="330.419" version="1.1" viewBox="0 0 277.277 247.814"><defs id="defs2515"><style id="style2513" type="text/css">*{stroke-linecap:butt;stroke-linejoin:round}</style></defs><g id="figure_1" transform="translate(-39.784 -11.071)"><g id="axes_1"><g id="patch_2"><path id="path2517" fill="#1f77b4" d="M178.56 258.494a4.478 4.478 0 1 0 0-8.956 4.478 4.478 0 0 0 0 8.956z" clip-path="url(#p76fb840ca1)" opacity=".5"/></g><g id="patch_3"><path id="path2520" fill="#1f77b4" d="M178.56 239.472a21.517 21.517 0 1 0 0-43.033 21.517 21.517 0 0 0 0 43.033z" clip-path="url(#p76fb840ca1)" opacity=".5"/></g><g id="patch_4"><path id="path2523" fill="#1f77b4" d="M178.56 167.748a23.142 23.142 0 1 0 0-46.284 23.142 23.142 0 0 0 0 46.284z" clip-path="url(#p76fb840ca1)" opacity=".5"/></g><g id="patch_5"><path id="path2526" fill="#1f77b4" d="M178.56 88.185a15.743 15.743 0 1 0 0-31.485 15.743 15.743 0 0 0 0 31.485z" clip-path="url(#p76fb840ca1)" opacity=".5"/></g><g id="patch_6"><path id="path2529" fill="#1f77b4" d="M178.56 57.676a11.792 11.792 0 1 0 0-23.584 11.792 11.792 0 0 0 0 23.584z" clip-path="url(#p76fb840ca1)" opacity=".5"/></g><g id="patch_7"><path id="path2532" fill="#1f77b4" d="M178.56 28.194a7.049 7.049 0 1 0 0-14.097 7.049 7.049 0 0 0 0 14.097z" clip-path="url(#p76fb840ca1)" opacity=".5"/></g><g id="patch_8"><path id="path2535" fill="#1f77b4" d="M106.803 134.207a4.478 4.478 0 1 0 0-8.957 4.478 4.478 0 0 0 0 8.957z" clip-path="url(#p76fb840ca1)" opacity=".5"/></g><g id="patch_9"><path id="path2538" fill="#1f77b4" d="M138.03 169.274a21.517 21.517 0 1 0 0-43.033 21.517 21.517 0 0 0 0 43.033z" clip-path="url(#p76fb840ca1)" opacity=".5"/></g><g id="patch_10"><path id="path2541" fill="#1f77b4" d="M201.553 207.574a23.142 23.142 0 1 0 0-46.284 23.142 23.142 0 0 0 0 46.284z" clip-path="url(#p76fb840ca1)" opacity=".5"/></g><g id="patch_11"><path id="path2544" fill="#1f77b4" d="M264.05 236.257a15.743 15.743 0 1 0-.001-31.485 15.743 15.743 0 0 0 0 31.485z" clip-path="url(#p76fb840ca1)" opacity=".5"/></g><g id="patch_12"><path id="path2547" fill="#1f77b4" d="M287.05 245.586a11.792 11.792 0 1 0 0-23.584 11.792 11.792 0 0 0 0 23.584z" clip-path="url(#p76fb840ca1)" opacity=".5"/></g><g id="patch_13"><path id="path2550" fill="#1f77b4" d="M308.474 253.212a7.049 7.049 0 1 0 0-14.097 7.049 7.049 0 0 0 0 14.097z" clip-path="url(#p76fb840ca1)" opacity=".5"/></g><g id="patch_14"><path id="path2553" fill="#1f77b4" d="M250.317 134.207a4.478 4.478 0 1 0 0-8.957 4.478 4.478 0 0 0 0 8.957z" clip-path="url(#p76fb840ca1)" opacity=".5"/></g><g id="patch_15"><path id="path2556" fill="#1f77b4" d="M219.09 169.274a21.517 21.517 0 1 0-.002-43.033 21.517 21.517 0 0 0 .001 43.033z" clip-path="url(#p76fb840ca1)" opacity=".5"/></g><g id="patch_16"><path id="path2559" fill="#1f77b4" d="M155.567 207.574a23.142 23.142 0 1 0-.001-46.284 23.142 23.142 0 0 0 0 46.284z" clip-path="url(#p76fb840ca1)" opacity=".5"/></g><g id="patch_17"><path id="path2562" fill="#1f77b4" d="M93.07 236.257a15.743 15.743 0 1 0 0-31.485 15.743 15.743 0 0 0 0 31.485z" clip-path="url(#p76fb840ca1)" opacity=".5"/></g><g id="patch_18"><path id="path2565" fill="#1f77b4" d="M70.07 245.586a11.792 11.792 0 1 0 0-23.584 11.792 11.792 0 0 0 0 23.584z" clip-path="url(#p76fb840ca1)" opacity=".5"/></g><g id="patch_19"><path id="path2568" fill="#1f77b4" d="M48.646 253.212a7.049 7.049 0 1 0 0-14.098 7.049 7.049 0 0 0 0 14.098z" clip-path="url(#p76fb840ca1)" opacity=".5"/></g><g id="patch_20"><path id="path2571" fill="#1f77b4" d="M196.134 126.433a20.083 20.083 0 1 0 0-40.166 20.083 20.083 0 0 0 0 40.166z" clip-path="url(#p76fb840ca1)" opacity=".5"/></g><g id="patch_21"><path id="path2574" fill="#1f77b4" d="M252.838 174.977a16.875 16.875 0 1 0 0-33.749 16.875 16.875 0 0 0 0 33.75z" clip-path="url(#p76fb840ca1)" opacity=".5"/></g><g id="patch_22"><path id="path2577" fill="#1f77b4" d="M219.319 82.615a4.778 4.778 0 1 0 0-9.556 4.778 4.778 0 0 0 0 9.556z" clip-path="url(#p76fb840ca1)" opacity=".5"/></g><g id="patch_23"><path id="path2580" fill="#1f77b4" d="M203.184 87.327a15 15 0 1 0 0-30 15 15 0 0 0 0 30z" clip-path="url(#p76fb840ca1)" opacity=".5"/></g><g id="patch_24"><path id="path2583" fill="#1f77b4" d="M191.111 48.741a8.96 8.96 0 1 0 0-17.92 8.96 8.96 0 0 0 0 17.92z" clip-path="url(#p76fb840ca1)" opacity=".5"/></g><g id="patch_25"><path id="path2586" fill="#1f77b4" d="M113.649 208.424a20.083 20.083 0 1 0-.001-40.167 20.083 20.083 0 0 0 0 40.167z" clip-path="url(#p76fb840ca1)" opacity=".5"/></g><g id="patch_26"><path id="path2589" fill="#1f77b4" d="M130.116 130.232a16.875 16.875 0 1 0-.001-33.75 16.875 16.875 0 0 0 0 33.75z" clip-path="url(#p76fb840ca1)" opacity=".5"/></g><g id="patch_27"><path id="path2592" fill="#1f77b4" d="M77.363 187.298a4.778 4.778 0 1 0 0-9.556 4.778 4.778 0 0 0 0 9.556z" clip-path="url(#p76fb840ca1)" opacity=".5"/></g><g id="patch_28"><path id="path2595" fill="#1f77b4" d="M80.658 214.248a15 15 0 1 0 0-30 15 15 0 0 0 0 30z" clip-path="url(#p76fb840ca1)" opacity=".5"/></g><g id="patch_29"><path id="path2598" fill="#1f77b4" d="M58.509 234.936a8.96 8.96 0 1 0 0-17.92 8.96 8.96 0 0 0 0 17.92z" clip-path="url(#p76fb840ca1)" opacity=".5"/></g><g id="patch_30"><path id="path2601" fill="#1f77b4" d="M225.897 238.863a20.083 20.083 0 1 0 0-40.167 20.083 20.083 0 0 0 0 40.167z" clip-path="url(#p76fb840ca1)" opacity=".5"/></g><g id="patch_31"><path id="path2604" fill="#1f77b4" d="M152.726 258.886a16.875 16.875 0 1 0 0-33.75 16.875 16.875 0 0 0 0 33.75z" clip-path="url(#p76fb840ca1)" opacity=".5"/></g><g id="patch_32"><path id="path2607" fill="#1f77b4" d="M238.999 257.894a4.778 4.778 0 1 0 0-9.556 4.778 4.778 0 0 0 0 9.556z" clip-path="url(#p76fb840ca1)" opacity=".5"/></g><g id="patch_33"><path id="path2610" fill="#1f77b4" d="M251.838 256.897a15 15 0 1 0 0-30 15 15 0 0 0 0 30z" clip-path="url(#p76fb840ca1)" opacity=".5"/></g><g id="patch_34"><path id="path2613" fill="#1f77b4" d="M286.06 256.676a8.96 8.96 0 1 0 0-17.921 8.96 8.96 0 0 0 0 17.92z" clip-path="url(#p76fb840ca1)" opacity=".5"/></g><g id="patch_35"><path id="path2616" fill="#1f77b4" d="M160.986 126.433a20.083 20.083 0 1 0 0-40.166 20.083 20.083 0 0 0 0 40.166z" clip-path="url(#p76fb840ca1)" opacity=".5"/></g><g id="patch_36"><path id="path2619" fill="#1f77b4" d="M104.282 174.977a16.875 16.875 0 1 0-.001-33.749 16.875 16.875 0 0 0 0 33.75z" clip-path="url(#p76fb840ca1)" opacity=".5"/></g><g id="patch_37"><path id="path2622" fill="#1f77b4" d="M137.801 82.615a4.778 4.778 0 1 0 0-9.556 4.778 4.778 0 0 0 0 9.556z" clip-path="url(#p76fb840ca1)" opacity=".5"/></g><g id="patch_38"><path id="path2625" fill="#1f77b4" d="M153.936 87.327a15 15 0 1 0 0-30 15 15 0 0 0 0 30z" clip-path="url(#p76fb840ca1)" opacity=".5"/></g><g id="patch_39"><path id="path2628" fill="#1f77b4" d="M166.009 48.741a8.96 8.96 0 1 0 0-17.92 8.96 8.96 0 0 0 0 17.92z" clip-path="url(#p76fb840ca1)" opacity=".5"/></g><g id="patch_40"><path id="path2631" fill="#1f77b4" d="M131.223 238.863a20.083 20.083 0 1 0-.001-40.167 20.083 20.083 0 0 0 0 40.167z" clip-path="url(#p76fb840ca1)" opacity=".5"/></g><g id="patch_41"><path id="path2634" fill="#1f77b4" d="M204.394 258.886a16.875 16.875 0 1 0 0-33.75 16.875 16.875 0 0 0 0 33.75z" clip-path="url(#p76fb840ca1)" opacity=".5"/></g><g id="patch_42"><path id="path2637" fill="#1f77b4" d="M118.121 257.894a4.778 4.778 0 1 0 0-9.556 4.778 4.778 0 0 0 0 9.556z" clip-path="url(#p76fb840ca1)" opacity=".5"/></g><g id="patch_43"><path id="path2640" fill="#1f77b4" d="M105.282 256.897a15 15 0 1 0 0-30 15 15 0 0 0 0 30z" clip-path="url(#p76fb840ca1)" opacity=".5"/></g><g id="patch_44"><path id="path2643" fill="#1f77b4" d="M71.06 256.676a8.96 8.96 0 1 0 0-17.921 8.96 8.96 0 0 0 0 17.92z" clip-path="url(#p76fb840ca1)" opacity=".5"/></g><g id="patch_45"><path id="path2646" fill="#1f77b4" d="M243.471 208.424a20.083 20.083 0 1 0 0-40.167 20.083 20.083 0 0 0 0 40.167z" clip-path="url(#p76fb840ca1)" opacity=".5"/></g><g id="patch_46"><path id="path2649" fill="#1f77b4" d="M227.004 130.232a16.875 16.875 0 1 0 0-33.75 16.875 16.875 0 0 0 0 33.75z" clip-path="url(#p76fb840ca1)" opacity=".5"/></g><g id="patch_47"><path id="path2652" fill="#1f77b4" d="M279.757 187.298a4.778 4.778 0 1 0 0-9.556 4.778 4.778 0 0 0 0 9.556z" clip-path="url(#p76fb840ca1)" opacity=".5"/></g><g id="patch_48"><path id="path2655" fill="#1f77b4" d="M276.462 214.248a15 15 0 1 0 0-30 15 15 0 0 0 0 30z" clip-path="url(#p76fb840ca1)" opacity=".5"/></g><g id="patch_49"><path id="path2658" fill="#1f77b4" d="M298.611 234.936a8.96 8.96 0 1 0 0-17.92 8.96 8.96 0 0 0 0 17.92z" clip-path="url(#p76fb840ca1)" opacity=".5"/></g><g id="line2d_1"><path id="path2661" fill="none" stroke="#000" stroke-linecap="square" stroke-width="1.5" d="M40.808 250.689h275.504L178.56 12.096" clip-path="url(#p76fb840ca1)"/></g><g id="line2d_2"><path id="path2664" fill="none" stroke="#000" stroke-linecap="square" stroke-width="1.5" d="M178.56 12.096 40.808 250.689" clip-path="url(#p76fb840ca1)"/></g><g id="line2d_3"><defs id="defs2668"><path id="mcb63362aea" stroke="#1f77b4" d="M0 1.5a1.5 1.5 0 1 0 0-3 1.5 1.5 0 0 0 0 3z"/></defs><g id="g2672" clip-path="url(#p76fb840ca1)"><use xlink:href="#mcb63362aea" id="use2670" width="100%" height="100%" x="178.56" y="254.016" fill="#1f77b4" stroke="#1f77b4"/></g></g><g id="line2d_4"><g id="g2677" clip-path="url(#p76fb840ca1)"><use xlink:href="#mcb63362aea" id="use2675" width="100%" height="100%" x="178.56" y="217.957" fill="#1f77b4" stroke="#1f77b4"/></g></g><g id="line2d_5"><g id="g2682" clip-path="url(#p76fb840ca1)"><use xlink:href="#mcb63362aea" id="use2680" width="100%" height="100%" x="178.56" y="144.607" fill="#1f77b4" stroke="#1f77b4"/></g></g><g id="line2d_6"><g id="g2687" clip-path="url(#p76fb840ca1)"><use xlink:href="#mcb63362aea" id="use2685" width="100%" height="100%" x="178.56" y="72.443" fill="#1f77b4" stroke="#1f77b4"/></g></g><g id="line2d_7"><g id="g2692" clip-path="url(#p76fb840ca1)"><use xlink:href="#mcb63362aea" id="use2690" width="100%" height="100%" x="178.56" y="45.885" fill="#1f77b4" stroke="#1f77b4"/></g></g><g id="line2d_8"><g id="g2697" clip-path="url(#p76fb840ca1)"><use xlink:href="#mcb63362aea" id="use2695" width="100%" height="100%" x="178.56" y="21.146" fill="#1f77b4" stroke="#1f77b4"/></g></g><g id="line2d_9"><g id="g2702" clip-path="url(#p76fb840ca1)"><use xlink:href="#mcb63362aea" id="use2700" width="100%" height="100%" x="106.803" y="129.729" fill="#1f77b4" stroke="#1f77b4"/></g></g><g id="line2d_10"><g id="g2707" clip-path="url(#p76fb840ca1)"><use xlink:href="#mcb63362aea" id="use2705" width="100%" height="100%" x="138.031" y="147.758" fill="#1f77b4" stroke="#1f77b4"/></g></g><g id="line2d_11"><g id="g2712" clip-path="url(#p76fb840ca1)"><use xlink:href="#mcb63362aea" id="use2710" width="100%" height="100%" x="201.553" y="184.433" fill="#1f77b4" stroke="#1f77b4"/></g></g><g id="line2d_12"><g id="g2717" clip-path="url(#p76fb840ca1)"><use xlink:href="#mcb63362aea" id="use2715" width="100%" height="100%" x="264.049" y="220.515" fill="#1f77b4" stroke="#1f77b4"/></g></g><g id="line2d_13"><g id="g2722" clip-path="url(#p76fb840ca1)"><use xlink:href="#mcb63362aea" id="use2720" width="100%" height="100%" x="287.05" y="233.794" fill="#1f77b4" stroke="#1f77b4"/></g></g><g id="line2d_14"><g id="g2727" clip-path="url(#p76fb840ca1)"><use xlink:href="#mcb63362aea" id="use2725" width="100%" height="100%" x="308.474" y="246.164" fill="#1f77b4" stroke="#1f77b4"/></g></g><g id="line2d_15"><g id="g2732" clip-path="url(#p76fb840ca1)"><use xlink:href="#mcb63362aea" id="use2730" width="100%" height="100%" x="250.317" y="129.729" fill="#1f77b4" stroke="#1f77b4"/></g></g><g id="line2d_16"><g id="g2737" clip-path="url(#p76fb840ca1)"><use xlink:href="#mcb63362aea" id="use2735" width="100%" height="100%" x="219.089" y="147.758" fill="#1f77b4" stroke="#1f77b4"/></g></g><g id="line2d_17"><g id="g2742" clip-path="url(#p76fb840ca1)"><use xlink:href="#mcb63362aea" id="use2740" width="100%" height="100%" x="155.567" y="184.433" fill="#1f77b4" stroke="#1f77b4"/></g></g><g id="line2d_18"><g id="g2747" clip-path="url(#p76fb840ca1)"><use xlink:href="#mcb63362aea" id="use2745" width="100%" height="100%" x="93.071" y="220.515" fill="#1f77b4" stroke="#1f77b4"/></g></g><g id="line2d_19"><g id="g2752" clip-path="url(#p76fb840ca1)"><use xlink:href="#mcb63362aea" id="use2750" width="100%" height="100%" x="70.07" y="233.794" fill="#1f77b4" stroke="#1f77b4"/></g></g><g id="line2d_20"><g id="g2757" clip-path="url(#p76fb840ca1)"><use xlink:href="#mcb63362aea" id="use2755" width="100%" height="100%" x="48.646" y="246.164" fill="#1f77b4" stroke="#1f77b4"/></g></g><g id="line2d_21"><g id="g2762" clip-path="url(#p76fb840ca1)"><use xlink:href="#mcb63362aea" id="use2760" width="100%" height="100%" x="196.134" y="106.351" fill="#1f77b4" stroke="#1f77b4"/></g></g><g id="line2d_22"><g id="g2767" clip-path="url(#p76fb840ca1)"><use xlink:href="#mcb63362aea" id="use2765" width="100%" height="100%" x="252.838" y="158.104" fill="#1f77b4" stroke="#1f77b4"/></g></g><g id="line2d_23"><g id="g2772" clip-path="url(#p76fb840ca1)"><use xlink:href="#mcb63362aea" id="use2770" width="100%" height="100%" x="219.319" y="77.837" fill="#1f77b4" stroke="#1f77b4"/></g></g><g id="line2d_24"><g id="g2777" clip-path="url(#p76fb840ca1)"><use xlink:href="#mcb63362aea" id="use2775" width="100%" height="100%" x="203.184" y="72.327" fill="#1f77b4" stroke="#1f77b4"/></g></g><g id="line2d_25"><g id="g2782" clip-path="url(#p76fb840ca1)"><use xlink:href="#mcb63362aea" id="use2780" width="100%" height="100%" x="191.111" y="39.781" fill="#1f77b4" stroke="#1f77b4"/></g></g><g id="line2d_26"><g id="g2787" clip-path="url(#p76fb840ca1)"><use xlink:href="#mcb63362aea" id="use2785" width="100%" height="100%" x="113.649" y="188.342" fill="#1f77b4" stroke="#1f77b4"/></g></g><g id="line2d_27"><g id="g2792" clip-path="url(#p76fb840ca1)"><use xlink:href="#mcb63362aea" id="use2790" width="100%" height="100%" x="130.116" y="113.358" fill="#1f77b4" stroke="#1f77b4"/></g></g><g id="line2d_28"><g id="g2797" clip-path="url(#p76fb840ca1)"><use xlink:href="#mcb63362aea" id="use2795" width="100%" height="100%" x="77.363" y="182.52" fill="#1f77b4" stroke="#1f77b4"/></g></g><g id="line2d_29"><g id="g2802" clip-path="url(#p76fb840ca1)"><use xlink:href="#mcb63362aea" id="use2800" width="100%" height="100%" x="80.658" y="199.248" fill="#1f77b4" stroke="#1f77b4"/></g></g><g id="line2d_30"><g id="g2807" clip-path="url(#p76fb840ca1)"><use xlink:href="#mcb63362aea" id="use2805" width="100%" height="100%" x="58.509" y="225.976" fill="#1f77b4" stroke="#1f77b4"/></g></g><g id="line2d_31"><g id="g2812" clip-path="url(#p76fb840ca1)"><use xlink:href="#mcb63362aea" id="use2810" width="100%" height="100%" x="225.897" y="218.781" fill="#1f77b4" stroke="#1f77b4"/></g></g><g id="line2d_32"><g id="g2817" clip-path="url(#p76fb840ca1)"><use xlink:href="#mcb63362aea" id="use2815" width="100%" height="100%" x="152.726" y="242.012" fill="#1f77b4" stroke="#1f77b4"/></g></g><g id="line2d_33"><g id="g2822" clip-path="url(#p76fb840ca1)"><use xlink:href="#mcb63362aea" id="use2820" width="100%" height="100%" x="238.999" y="253.116" fill="#1f77b4" stroke="#1f77b4"/></g></g><g id="line2d_34"><g id="g2827" clip-path="url(#p76fb840ca1)"><use xlink:href="#mcb63362aea" id="use2825" width="100%" height="100%" x="251.838" y="241.898" fill="#1f77b4" stroke="#1f77b4"/></g></g><g id="line2d_35"><g id="g2832" clip-path="url(#p76fb840ca1)"><use xlink:href="#mcb63362aea" id="use2830" width="100%" height="100%" x="286.06" y="247.716" fill="#1f77b4" stroke="#1f77b4"/></g></g><g id="line2d_36"><g id="g2837" clip-path="url(#p76fb840ca1)"><use xlink:href="#mcb63362aea" id="use2835" width="100%" height="100%" x="160.986" y="106.351" fill="#1f77b4" stroke="#1f77b4"/></g></g><g id="line2d_37"><g id="g2842" clip-path="url(#p76fb840ca1)"><use xlink:href="#mcb63362aea" id="use2840" width="100%" height="100%" x="104.282" y="158.104" fill="#1f77b4" stroke="#1f77b4"/></g></g><g id="line2d_38"><g id="g2847" clip-path="url(#p76fb840ca1)"><use xlink:href="#mcb63362aea" id="use2845" width="100%" height="100%" x="137.801" y="77.837" fill="#1f77b4" stroke="#1f77b4"/></g></g><g id="line2d_39"><g id="g2852" clip-path="url(#p76fb840ca1)"><use xlink:href="#mcb63362aea" id="use2850" width="100%" height="100%" x="153.936" y="72.327" fill="#1f77b4" stroke="#1f77b4"/></g></g><g id="line2d_40"><g id="g2857" clip-path="url(#p76fb840ca1)"><use xlink:href="#mcb63362aea" id="use2855" width="100%" height="100%" x="166.009" y="39.781" fill="#1f77b4" stroke="#1f77b4"/></g></g><g id="line2d_41"><g id="g2862" clip-path="url(#p76fb840ca1)"><use xlink:href="#mcb63362aea" id="use2860" width="100%" height="100%" x="131.223" y="218.781" fill="#1f77b4" stroke="#1f77b4"/></g></g><g id="line2d_42"><g id="g2867" clip-path="url(#p76fb840ca1)"><use xlink:href="#mcb63362aea" id="use2865" width="100%" height="100%" x="204.394" y="242.012" fill="#1f77b4" stroke="#1f77b4"/></g></g><g id="line2d_43"><g id="g2872" clip-path="url(#p76fb840ca1)"><use xlink:href="#mcb63362aea" id="use2870" width="100%" height="100%" x="118.121" y="253.116" fill="#1f77b4" stroke="#1f77b4"/></g></g><g id="line2d_44"><g id="g2877" clip-path="url(#p76fb840ca1)"><use xlink:href="#mcb63362aea" id="use2875" width="100%" height="100%" x="105.282" y="241.898" fill="#1f77b4" stroke="#1f77b4"/></g></g><g id="line2d_45"><g id="g2882" clip-path="url(#p76fb840ca1)"><use xlink:href="#mcb63362aea" id="use2880" width="100%" height="100%" x="71.06" y="247.716" fill="#1f77b4" stroke="#1f77b4"/></g></g><g id="line2d_46"><g id="g2887" clip-path="url(#p76fb840ca1)"><use xlink:href="#mcb63362aea" id="use2885" width="100%" height="100%" x="243.471" y="188.342" fill="#1f77b4" stroke="#1f77b4"/></g></g><g id="line2d_47"><g id="g2892" clip-path="url(#p76fb840ca1)"><use xlink:href="#mcb63362aea" id="use2890" width="100%" height="100%" x="227.004" y="113.358" fill="#1f77b4" stroke="#1f77b4"/></g></g><g id="line2d_48"><g id="g2897" clip-path="url(#p76fb840ca1)"><use xlink:href="#mcb63362aea" id="use2895" width="100%" height="100%" x="279.757" y="182.52" fill="#1f77b4" stroke="#1f77b4"/></g></g><g id="line2d_49"><g id="g2902" clip-path="url(#p76fb840ca1)"><use xlink:href="#mcb63362aea" id="use2900" width="100%" height="100%" x="276.462" y="199.248" fill="#1f77b4" stroke="#1f77b4"/></g></g><g id="line2d_50"><g id="g2907" clip-path="url(#p76fb840ca1)"><use xlink:href="#mcb63362aea" id="use2905" width="100%" height="100%" x="298.611" y="225.976" fill="#1f77b4" stroke="#1f77b4"/></g></g></g></g><defs id="defs2915"><clipPath id="p76fb840ca1"><path id="rect2912" d="M0 0h357.12v266.112H0z"/></clipPath></defs></svg>